<svg width="573" height="513" viewBox="0 0 573 513" fill="none" xmlns="http://www.w3.org/2000/svg">
<path d="M560.939 344.8C561.033 405.107 541.04 463.727 504.116 511.409H72.494C35.5697 463.727 15.5768 405.107 15.671 344.8C15.671 194.227 137.738 72.1719 288.311 72.1719C438.884 72.1719 560.939 194.231 560.939 344.8Z" fill="white"/>
<path opacity="0.1" d="M560.939 344.8C561.033 405.107 541.04 463.727 504.116 511.409H72.494C35.5697 463.727 15.5768 405.107 15.671 344.8C15.671 194.227 137.738 72.1719 288.311 72.1719C438.884 72.1719 560.939 194.231 560.939 344.8Z" fill="#4045B8"/>
<path d="M423 512.288H308.325L301.444 420.764L418.892 424.9C418.892 424.9 420.313 414.229 420.384 434.457C420.431 448.489 423.362 476.308 423 512.288Z" fill="#262626"/>
<path d="M350.024 415.506C349.918 417.685 349.799 419.876 349.657 422.055C347.83 452.414 343.632 482.584 337.1 512.288H222.486C223.978 465.816 225.222 429.007 225.222 429.007L301.444 420.764L306.015 420.264L350.024 415.506Z" fill="#262626"/>
<path d="M377.667 105.365C377.667 105.365 378.967 135.3 385.434 146.301C404.066 177.97 408.857 213.22 389.044 231.116C369.231 249.012 245.574 246.389 237.189 203.97C230.13 168.257 247.143 164.83 251.943 135.617C254.115 122.399 259.888 94.709 259.888 94.709" fill="#0A0A0A"/>
<path d="M271.861 199.308C272.074 199.28 274.443 238.592 320.112 235.165C351.729 232.796 363.002 199.252 363.726 199.252C360.317 198.528 354.577 197.474 353.063 196.666C348.085 193.991 341.925 191.208 340.32 181.54C339.395 175.967 340.964 147.46 340.481 141.822L291.95 152.654C292.628 164.562 297.375 192.165 280.74 197.054C277.972 197.859 274.991 198.6 271.861 199.308Z" fill="#E98862"/>
<path opacity="0.52" d="M291.27 185.77C292.03 183.32 292.52 180.794 292.73 178.238C293.264 172.404 293.157 166.529 292.413 160.719C302.277 159.388 311.57 155.316 319.235 148.967C320.135 152.295 325.092 166.837 323.72 170C321.126 175.979 308.938 185.77 291.27 185.77Z" fill="#0C0C0C"/>
<path d="M295.617 173.346C314.703 175.646 339.631 168.567 345.351 143.212L350.512 120.335C356.232 94.9806 347.552 71.4226 323.68 66.0346C299.808 60.6486 277.327 77.1776 271.607 102.535L269.322 112.663C267.128 122.39 261.565 169.249 295.617 173.346Z" fill="#E98862"/>
<path d="M291.053 145.337C294.717 145.405 298.314 146.334 301.553 148.049C301.684 148.12 301.782 148.239 301.827 148.381C301.871 148.523 301.859 148.677 301.792 148.809C301.725 148.942 301.608 149.044 301.468 149.093C301.327 149.141 301.173 149.133 301.038 149.07C294.05 145.546 287.498 145.576 282.091 149.157C281.982 149.232 281.869 149.303 281.752 149.367C281.617 149.423 281.466 149.426 281.329 149.375C281.192 149.323 281.08 149.221 281.016 149.09C280.952 148.958 280.941 148.807 280.985 148.668C281.029 148.528 281.124 148.411 281.252 148.34C281.295 148.316 281.366 148.268 281.464 148.203C284.304 146.315 287.643 145.317 291.053 145.337Z" fill="#0C0C0C"/>
<path d="M290.121 137.575H290.073C289.092 137.425 288.12 137.222 287.161 136.966C285.728 136.573 283.846 135.901 284.031 134.615C284.243 133.149 290.546 117.915 291.264 116.183C291.294 116.106 291.338 116.035 291.396 115.976C291.453 115.916 291.521 115.869 291.597 115.836C291.673 115.804 291.755 115.787 291.837 115.786C291.92 115.786 292.002 115.802 292.078 115.833C292.154 115.865 292.223 115.912 292.281 115.971C292.339 116.029 292.385 116.099 292.415 116.176C292.446 116.253 292.461 116.335 292.459 116.417C292.457 116.5 292.439 116.581 292.405 116.657C289.716 123.144 285.396 133.805 285.254 134.792C285.433 135.238 287.815 135.999 290.254 136.352C290.411 136.375 290.553 136.459 290.651 136.585C290.748 136.711 290.793 136.869 290.777 137.027C290.76 137.186 290.683 137.331 290.562 137.434C290.44 137.537 290.284 137.589 290.125 137.58L290.121 137.575Z" fill="#0C0C0C"/>
<path d="M369.457 129.031L348.057 124.331C331.973 117.16 328.024 88.7448 328.024 88.7448C328.024 88.7448 307.534 107.369 259.893 94.7088C259.893 94.7088 271.857 28.0718 342.126 50.0188C364.784 57.0958 380.399 80.7188 377.279 111.462C375.088 133 369.457 129.031 369.457 129.031Z" fill="#0A0A0A"/>
<path d="M342.125 150.6C349.38 152.237 357.012 145.8 358.649 138.548C360.286 131.296 355.307 125.965 348.049 124.329L343.214 128.346L335.888 149.2L342.125 150.6Z" fill="#E98862"/>
<path d="M287.362 102.64C285.279 101.19 282.846 100.327 280.315 100.14C279.07 100.041 277.816 100.129 276.597 100.403C275.39 100.668 274.221 101.085 273.118 101.643C272.966 101.715 272.849 101.843 272.79 102.001C272.731 102.158 272.737 102.332 272.804 102.486C272.872 102.639 272.997 102.761 273.153 102.824C273.308 102.887 273.483 102.886 273.638 102.823L273.684 102.804C274.702 102.347 275.773 102.02 276.872 101.83C277.959 101.636 279.068 101.608 280.163 101.747C282.335 102.005 284.401 102.833 286.15 104.147L286.206 104.192C286.409 104.35 286.666 104.421 286.921 104.389C287.176 104.357 287.408 104.226 287.566 104.023C287.724 103.82 287.795 103.563 287.763 103.308C287.731 103.053 287.6 102.821 287.397 102.663L287.362 102.64Z" fill="#0C0C0C"/>
<path d="M306.059 106.974C308.201 106.527 310.423 106.656 312.499 107.346C313.549 107.686 314.541 108.184 315.442 108.821C316.356 109.46 317.186 110.211 317.913 111.058L317.946 111.094C318.06 111.217 318.217 111.29 318.384 111.299C318.552 111.308 318.716 111.252 318.842 111.142C318.969 111.032 319.047 110.877 319.062 110.71C319.076 110.544 319.025 110.378 318.919 110.248C318.158 109.274 317.277 108.401 316.297 107.648C315.31 106.882 314.214 106.268 313.045 105.829C310.676 104.921 308.105 104.666 305.604 105.093C305.476 105.112 305.353 105.157 305.242 105.224C305.132 105.292 305.036 105.381 304.961 105.486C304.885 105.591 304.831 105.711 304.803 105.837C304.774 105.963 304.771 106.094 304.794 106.222C304.817 106.349 304.865 106.471 304.936 106.579C305.006 106.688 305.098 106.781 305.205 106.854C305.312 106.926 305.433 106.977 305.56 107.002C305.687 107.027 305.818 107.026 305.945 107L305.985 106.992L306.059 106.974Z" fill="#0C0C0C"/>
<path d="M348.015 124.056L348.249 123.467C321.298 112.718 328.906 86.1668 328.985 85.8988L328.379 85.7168C328.3 85.9888 320.517 113.089 348.015 124.056Z" fill="#0C0C0C"/>
<path d="M275.762 113.421C277.427 113.421 278.776 112.071 278.776 110.407C278.776 108.742 277.427 107.393 275.762 107.393C274.097 107.393 272.748 108.742 272.748 110.407C272.748 112.071 274.097 113.421 275.762 113.421Z" fill="#0C0C0C"/>
<path d="M305.555 118.549C307.22 118.549 308.569 117.2 308.569 115.535C308.569 113.87 307.22 112.521 305.555 112.521C303.89 112.521 302.541 113.87 302.541 115.535C302.541 117.2 303.89 118.549 305.555 118.549Z" fill="#0C0C0C"/>
<path opacity="0.1" d="M314.832 136.891C315.162 134.588 312.884 132.357 309.744 131.908C306.605 131.459 303.793 132.962 303.464 135.265C303.135 137.568 305.412 139.798 308.552 140.247C311.691 140.696 314.503 139.193 314.832 136.891Z" fill="#0C0C0C"/>
<path opacity="0.1" d="M275.505 130.242C275.17 132.542 272.359 134.042 269.219 133.598C268.677 133.519 268.144 133.385 267.629 133.198C267.546 130.445 267.599 127.798 267.737 125.354C268.616 125.156 269.525 125.124 270.416 125.259C273.555 125.7 275.832 127.934 275.505 130.242Z" fill="#0C0C0C"/>
<path d="M51.529 197C51.9492 196.168 52.6174 195.487 53.4415 195.051C54.2655 194.615 55.2046 194.445 56.129 194.566C56.1209 194.51 56.1265 194.454 56.1453 194.401C56.1641 194.348 56.1956 194.3 56.237 194.262C56.2783 194.224 56.3284 194.196 56.3827 194.182C56.4371 194.167 56.4942 194.166 56.549 194.179L53.43 191.943C52.497 191.304 51.8266 190.35 51.5428 189.255C51.259 188.161 51.3809 187.001 51.886 185.989C52.4173 185.006 53.2946 184.256 54.3477 183.883C55.4009 183.511 56.5549 183.542 57.586 183.972C57.578 183.928 57.608 183.886 57.615 183.841L56.333 182.922C55.4563 182.316 54.8158 181.427 54.5197 180.403C54.2236 179.38 54.2901 178.285 54.708 177.305C54.9829 176.696 55.3895 176.155 55.8985 175.722C56.4076 175.289 57.0063 174.975 57.6517 174.801C58.297 174.628 58.9728 174.6 59.6303 174.719C60.2879 174.838 60.9107 175.102 61.454 175.491L64.411 177.611C64.42 177.593 64.411 177.573 64.423 177.556C64.435 177.539 64.467 177.534 64.484 177.516C63.8042 176.753 63.4041 175.781 63.3496 174.76C63.2951 173.739 63.5893 172.73 64.184 171.899C65.584 169.653 68.802 170.112 70.715 171.482L88.121 183.506L85.01 178.268C84.385 177.26 84.1655 176.053 84.3958 174.89C84.6261 173.726 85.2891 172.694 86.251 172C86.7604 171.659 87.3338 171.426 87.9363 171.314C88.5389 171.202 89.1579 171.214 89.7557 171.349C90.3534 171.484 90.9174 171.74 91.4131 172.1C91.9088 172.461 92.3259 172.918 92.639 173.445L109.628 202.045C111.621 205.4 112.227 209.4 111.318 213.195C110.408 216.99 108.055 220.281 104.758 222.369C100.934 224.79 96.4746 226.014 91.9506 225.884C87.4267 225.754 83.0446 224.277 79.366 221.64L53.079 202.8C52.2046 202.15 51.5756 201.223 51.2942 200.17C51.0129 199.117 51.0956 198 51.529 197Z" fill="#E98862"/>
<g opacity="0.25">
<path d="M81.64 189.5C81.5763 189.588 81.4806 189.648 81.3734 189.667C81.2661 189.686 81.1558 189.662 81.066 189.6L64.527 178.138C64.4801 178.108 64.4398 178.068 64.4084 178.022C64.3771 177.976 64.3553 177.924 64.3445 177.869C64.3337 177.814 64.334 177.758 64.3454 177.703C64.3568 177.648 64.3791 177.596 64.4109 177.55C64.4428 177.505 64.4835 177.466 64.5307 177.436C64.578 177.406 64.6307 177.386 64.6859 177.377C64.741 177.368 64.7974 177.37 64.8517 177.383C64.906 177.396 64.9571 177.42 65.002 177.453L81.541 188.909C81.6315 188.972 81.6934 189.068 81.7131 189.177C81.7327 189.285 81.7086 189.397 81.646 189.488L81.64 189.5Z" fill="#0C0C0C"/>
</g>
<g opacity="0.25">
<path d="M76.789 196.93C76.7253 197.018 76.6296 197.078 76.5224 197.097C76.4151 197.115 76.3048 197.091 76.215 197.03L57.758 184.242C57.6674 184.179 57.6053 184.083 57.5854 183.974C57.5656 183.866 57.5895 183.754 57.652 183.663C57.7173 183.575 57.8136 183.515 57.9213 183.496C58.029 183.476 58.1401 183.498 58.232 183.558L76.69 196.343C76.7805 196.406 76.8424 196.502 76.8621 196.611C76.8818 196.719 76.8576 196.831 76.795 196.922L76.789 196.93Z" fill="#0C0C0C"/>
</g>
<g opacity="0.25">
<path d="M71.581 205.011C71.5177 205.099 71.4221 205.159 71.315 205.178C71.2078 205.197 71.0976 205.173 71.008 205.111L56.284 194.911C56.199 194.846 56.1424 194.751 56.1258 194.645C56.1092 194.539 56.1339 194.431 56.1948 194.343C56.2557 194.255 56.3482 194.194 56.4531 194.172C56.5579 194.15 56.6671 194.169 56.758 194.226L71.482 204.426C71.5728 204.489 71.6348 204.586 71.6545 204.694C71.6742 204.803 71.6499 204.915 71.587 205.006L71.581 205.011Z" fill="#0C0C0C"/>
</g>
<path d="M117.118 191.726L159.4 289.371L217.74 209.524L268.3 255.1L181.962 366.916L181.396 367.716C177.94 372.449 173.336 376.224 168.018 378.686C162.7 381.148 156.842 382.215 150.998 381.788C145.153 381.36 139.513 379.451 134.61 376.241C129.707 373.031 125.702 368.626 122.972 363.44L62.172 222.289L117.118 191.726Z" fill="#4045B8"/>
<path d="M164.294 299.588C164.403 299.588 164.509 299.561 164.604 299.508C164.699 299.455 164.778 299.378 164.835 299.286C164.891 299.193 164.923 299.087 164.927 298.979C164.931 298.87 164.908 298.763 164.858 298.666L159.967 289.083C159.888 288.939 159.755 288.831 159.598 288.782C159.44 288.733 159.27 288.748 159.123 288.823C158.976 288.898 158.864 289.027 158.811 289.183C158.758 289.339 158.767 289.51 158.838 289.659L163.729 299.243C163.782 299.347 163.863 299.435 163.963 299.495C164.063 299.556 164.177 299.588 164.294 299.588Z" fill="#0C0C0C"/>
<path d="M215.119 285.855C216.558 302.755 223.555 408.189 224.938 429.005H420.285C421.362 410.23 421.459 328.136 425.543 291.423C429.443 256.39 437.087 238.85 431.482 228.493C422.322 211.566 409.168 196.3 383.948 194.193C373.468 193.316 354.13 197.055 354.13 197.055C354.13 197.055 352.8 223.9 321.157 225.393C278.078 227.426 280.941 197.124 280.741 197.051C271.861 193.804 240.952 192.151 227.341 201.141C201.371 218.289 212.066 250.042 215.119 285.855Z" fill="#4045B8"/>
<path d="M216.574 296.824L215.309 296.896L216.832 323.733L218.097 323.661L216.574 296.824Z" fill="#0C0C0C"/>
<path d="M572.218 208.849C571.723 208.06 570.996 207.444 570.136 207.085C569.276 206.727 568.327 206.644 567.418 206.849C567.421 206.793 567.41 206.737 567.386 206.686C567.363 206.635 567.327 206.59 567.282 206.556C567.237 206.522 567.185 206.499 567.13 206.49C567.074 206.481 567.017 206.485 566.964 206.503L569.864 203.989C570.734 203.267 571.314 202.255 571.496 201.139C571.677 200.023 571.449 198.879 570.853 197.918C570.233 196.989 569.29 196.322 568.207 196.048C567.124 195.774 565.978 195.912 564.991 196.435C564.991 196.39 564.962 196.351 564.951 196.307L566.142 195.274C566.959 194.59 567.515 193.645 567.716 192.598C567.916 191.552 567.749 190.468 567.242 189.531C566.912 188.95 566.458 188.449 565.911 188.065C565.364 187.681 564.739 187.422 564.08 187.309C563.422 187.196 562.746 187.23 562.103 187.409C561.459 187.588 560.863 187.908 560.358 188.346L557.608 190.729C557.598 190.712 557.608 190.691 557.592 190.676C557.576 190.661 557.546 190.658 557.528 190.642C558.134 189.818 558.442 188.814 558.401 187.792C558.361 186.771 557.975 185.794 557.306 185.021C555.706 182.913 552.542 183.667 550.765 185.207L534.539 198.783L537.155 193.283C537.686 192.221 537.795 190.998 537.458 189.859C537.122 188.721 536.366 187.753 535.343 187.151C534.804 186.858 534.212 186.678 533.602 186.622C532.991 186.566 532.376 186.635 531.793 186.825C531.21 187.015 530.672 187.321 530.212 187.726C529.751 188.13 529.378 188.624 529.115 189.178L514.833 219.221C513.157 222.745 512.922 226.784 514.177 230.48C515.432 234.175 518.078 237.235 521.553 239.011C525.584 241.069 530.137 241.877 534.63 241.331C539.123 240.785 543.351 238.91 546.771 235.946L571.211 214.763C572.021 214.035 572.561 213.055 572.744 211.981C572.927 210.908 572.741 209.804 572.218 208.849Z" fill="#E98862"/>
<g opacity="0.25">
<path d="M541.544 204.148C541.616 204.229 541.717 204.279 541.825 204.288C541.933 204.296 542.041 204.261 542.124 204.192L557.538 191.262C557.58 191.227 557.614 191.184 557.64 191.135C557.665 191.087 557.68 191.034 557.685 190.979C557.69 190.925 557.684 190.87 557.668 190.818C557.651 190.765 557.625 190.717 557.589 190.675C557.554 190.633 557.511 190.599 557.463 190.573C557.414 190.548 557.361 190.533 557.307 190.528C557.252 190.523 557.198 190.529 557.145 190.546C557.093 190.562 557.045 190.589 557.003 190.624L541.589 203.554C541.505 203.625 541.452 203.726 541.442 203.836C541.433 203.946 541.467 204.055 541.538 204.14L541.544 204.148Z" fill="#0C0C0C"/>
</g>
<g opacity="0.25">
<path d="M547.059 211.1C547.131 211.181 547.232 211.232 547.34 211.24C547.448 211.248 547.556 211.214 547.639 211.144L564.839 196.714C564.923 196.642 564.976 196.541 564.986 196.431C564.996 196.321 564.962 196.211 564.891 196.127C564.818 196.045 564.716 195.995 564.608 195.986C564.499 195.976 564.39 196.008 564.304 196.076L547.104 210.506C547.019 210.577 546.967 210.679 546.957 210.789C546.948 210.899 546.982 211.008 547.053 211.093L547.059 211.1Z" fill="#0C0C0C"/>
</g>
<g opacity="0.25">
<path d="M552.989 218.671C553.061 218.752 553.162 218.802 553.27 218.81C553.378 218.819 553.486 218.784 553.569 218.715L567.291 207.2C567.376 207.129 567.429 207.027 567.438 206.917C567.448 206.807 567.413 206.698 567.343 206.613C567.272 206.529 567.17 206.476 567.06 206.466C566.95 206.456 566.841 206.491 566.756 206.562L553.034 218.073C552.95 218.144 552.897 218.245 552.887 218.355C552.878 218.465 552.912 218.574 552.983 218.659L552.989 218.671Z" fill="#0C0C0C"/>
</g>
<path d="M508.127 207.589L475.983 290.022L429.05 224.122L378.5 269.7L450.893 380.246L451.459 381.046C454.915 385.779 459.519 389.554 464.837 392.016C470.156 394.478 476.013 395.545 481.858 395.117C487.703 394.69 493.342 392.781 498.246 389.571C503.149 386.361 507.154 381.956 509.884 376.77L561.814 236.887L508.127 207.589Z" fill="#4045B8"/>
<path d="M471.092 300.24C470.983 300.24 470.877 300.212 470.782 300.159C470.687 300.106 470.608 300.029 470.551 299.936C470.495 299.844 470.463 299.738 470.458 299.63C470.454 299.521 470.478 299.414 470.527 299.317L475.418 289.734C475.496 289.586 475.629 289.475 475.788 289.425C475.946 289.375 476.119 289.389 476.267 289.465C476.416 289.541 476.529 289.672 476.581 289.831C476.633 289.989 476.621 290.161 476.547 290.311L471.656 299.894C471.603 299.998 471.522 300.085 471.423 300.146C471.323 300.208 471.209 300.24 471.092 300.24Z" fill="#0C0C0C"/>
<path d="M531.864 512.282H50.881C50.5728 512.273 50.2802 512.144 50.0654 511.923C49.8506 511.702 49.7304 511.406 49.7304 511.098C49.7304 510.789 49.8506 510.493 50.0654 510.272C50.2802 510.051 50.5728 509.922 50.881 509.913H531.864C532.172 509.922 532.465 510.051 532.68 510.272C532.894 510.493 533.015 510.789 533.015 511.098C533.015 511.406 532.894 511.702 532.68 511.923C532.465 512.144 532.172 512.273 531.864 512.282Z" fill="#292A2E"/>
<path d="M162.841 131.272V10.245C162.841 7.52855 161.762 4.9233 159.842 3.0021C157.921 1.08091 155.316 0.0010606 152.6 0L10.245 0C7.52786 0 4.922 1.07938 3.00069 3.00069C1.07938 4.922 0 7.52786 0 10.245L0 100.487C0 103.204 1.07938 105.81 3.00069 107.731C4.922 109.653 7.52786 110.732 10.245 110.732H125.917L158.179 133.677C158.62 133.991 159.14 134.178 159.68 134.216C160.221 134.255 160.761 134.144 161.243 133.895C161.724 133.647 162.128 133.271 162.41 132.808C162.692 132.345 162.841 131.814 162.841 131.272Z" fill="#00DE8E"/>
<path d="M77.039 96.0503C80.5018 96.0503 83.309 93.2431 83.309 89.7803C83.309 86.3174 80.5018 83.5103 77.039 83.5103C73.5762 83.5103 70.769 86.3174 70.769 89.7803C70.769 93.2431 73.5762 96.0503 77.039 96.0503Z" fill="white"/>
<path d="M76.747 76.172C75.6645 76.1718 74.6265 75.7416 73.8612 74.9761C73.0959 74.2106 72.666 73.1725 72.666 72.09V56.93C72.666 56.0141 72.9741 55.1249 73.5408 54.4054C74.1074 53.6858 74.8996 53.1778 75.79 52.963C75.967 52.919 94.226 48.298 94.226 36.011C94.226 28.301 87.905 22.911 78.855 22.911C69.055 22.911 64.017 32.711 63.808 33.125C63.3183 34.0785 62.4732 34.8012 61.4552 35.1369C60.4372 35.4725 59.328 35.3943 58.3671 34.9191C57.4063 34.4439 56.671 33.6098 56.3199 32.597C55.9689 31.5842 56.0303 30.4739 56.491 29.506C56.791 28.906 63.925 14.749 78.855 14.749C92.491 14.749 102.388 23.688 102.388 36.006C102.388 50.851 87.488 57.651 80.829 59.949V72.09C80.8287 73.1726 80.3986 74.2107 79.6331 74.9761C78.8676 75.7416 77.8295 76.1718 76.747 76.172Z" fill="white"/>
</svg>
