<svg width="379" height="649" viewBox="0 0 379 649" fill="none" xmlns="http://www.w3.org/2000/svg">
<path d="M189.5 648.318C294.158 648.318 379 633.095 379 614.318C379 595.54 294.158 580.318 189.5 580.318C84.842 580.318 0 595.54 0 614.318C0 633.095 84.842 648.318 189.5 648.318Z" fill="#E54012"/>
<path d="M82.0048 42.2683C81.8111 23.5088 89.2261 11.8823 99.2804 5.50074C109.2 -0.798728 140.306 -6.28579 152.109 16.5842C159.806 31.5026 156.767 36.836 158.947 60.7331C161.128 84.6303 169.503 87.137 177.995 116.1C184.657 138.831 147.342 150.881 115.022 149.839C82.7014 148.797 62.2182 141.643 60.3429 121.088C57.6404 91.5906 82.3857 79.0338 82.0048 42.2683Z" fill="#0F1011"/>
<path d="M101.261 94.1395C101.261 94.1395 110.97 88.8777 108.547 62.3307L128.671 58.4075C128.671 58.4075 126.623 82.2478 136.89 89.7154L101.261 94.1395Z" fill="#E98862"/>
<g opacity="0.2">
<path d="M132.714 84.7733L115.851 72.1134L129.001 71.8545C129.423 76.3545 130.682 80.7359 132.714 84.7733Z" fill="black"/>
</g>
<path d="M97.0157 52.133C98.489 60.1794 102.953 67.7733 110.088 70.3116C117.866 73.3156 126.261 74.3713 134.541 73.3866C156.59 71.3745 151.766 21.2418 141.2 11.5916C130.635 1.94143 99.9476 8.39454 96.3527 24.7315C94.5027 33.1757 95.6182 44.4739 97.0157 52.133Z" fill="#E98862"/>
<path d="M128.507 45.634C129.516 45.634 130.334 44.8161 130.334 43.8071C130.334 42.7982 129.516 41.9802 128.507 41.9802C127.498 41.9802 126.68 42.7982 126.68 43.8071C126.68 44.8161 127.498 45.634 128.507 45.634Z" fill="#0F1011"/>
<path d="M142.92 44.3184C143.929 44.3184 144.747 43.5004 144.747 42.4915C144.747 41.4825 143.929 40.6646 142.92 40.6646C141.911 40.6646 141.093 41.4825 141.093 42.4915C141.093 43.5004 141.911 44.3184 142.92 44.3184Z" fill="#0F1011"/>
<path d="M146.043 38.5659L141.202 38.5512C140.975 38.5512 140.756 38.4607 140.595 38.2997C140.434 38.1386 140.344 37.9202 140.344 37.6925C140.344 37.4647 140.434 37.2463 140.595 37.0853C140.756 36.9242 140.975 36.8337 141.202 36.8337L146.043 36.8485C146.271 36.8485 146.49 36.939 146.651 37.1C146.812 37.2611 146.902 37.4795 146.902 37.7072C146.902 37.935 146.812 38.1534 146.651 38.3144C146.49 38.4755 146.271 38.5659 146.043 38.5659Z" fill="#0F1011"/>
<path d="M124.525 40.5428C124.315 40.5416 124.114 40.4644 123.958 40.3255C123.801 40.1866 123.701 39.9956 123.675 39.7881C123.649 39.5806 123.7 39.3708 123.818 39.1979C123.935 39.025 124.112 38.9008 124.314 38.8485L129.077 37.6551C129.297 37.6044 129.527 37.6419 129.719 37.7593C129.912 37.8768 130.05 38.0649 130.105 38.2834C130.16 38.5018 130.128 38.7332 130.014 38.9277C129.901 39.1223 129.715 39.2646 129.498 39.3241L124.733 40.5154C124.665 40.5327 124.595 40.5419 124.525 40.5428Z" fill="#0F1011"/>
<path d="M129.485 58.1969C133.34 58.546 137.227 58.1894 140.954 57.1445C140.734 58.4396 140.092 59.6256 139.128 60.5181C138.164 61.4106 136.932 61.9596 135.624 62.0796C134.316 62.1997 133.005 61.884 131.895 61.1819C130.785 60.4797 129.938 59.4303 129.485 58.1969Z" fill="#F8FCFF"/>
<path d="M111.671 31.1155C111.193 67.5274 107.684 81.6607 107.684 81.6607C107.684 81.6607 90.4446 60.8238 87.8432 38.7683C86.7652 31.0821 88.4973 23.2649 92.7213 16.7535C96.9452 10.242 103.377 5.47365 110.835 3.32464C149.924 -5.79306 152.637 22.7176 152.637 22.7176C150.112 32.4457 107.438 38.48 107.438 38.48" fill="#0F1011"/>
<path d="M119.349 51.7715C119.441 52.785 119.333 53.8069 119.031 54.7787C118.728 55.7504 118.238 56.6531 117.586 57.4352C116.935 58.2172 116.136 58.8634 115.235 59.3366C114.334 59.8099 113.349 60.1011 112.335 60.1936C111.321 60.286 110.3 60.1779 109.328 59.8755C108.356 59.573 107.453 59.0821 106.671 58.4308C105.889 57.7795 105.243 56.9806 104.77 56.0795C104.297 55.1785 104.005 54.1931 103.913 53.1796C103.803 52.1631 103.899 51.135 104.195 50.1564C104.49 49.1778 104.98 48.2686 105.634 47.4831C106.289 46.6976 107.094 46.0518 108.003 45.584C108.912 45.1163 109.906 44.8363 110.926 44.7606C116.449 44.527 118.96 47.5094 119.349 51.7715Z" fill="#E98862"/>
<g opacity="0.2">
<path d="M136.711 53.8716C136.561 53.8703 136.417 53.8159 136.304 53.718C136.19 53.6201 136.116 53.4852 136.093 53.3373C136.07 53.1894 136.1 53.0381 136.178 52.9105C136.256 52.7828 136.377 52.6871 136.519 52.6404L140.226 51.4638L137.572 45.6968C137.537 45.6215 137.518 45.5401 137.514 45.4573C137.511 45.3744 137.524 45.2917 137.553 45.2139C137.582 45.1361 137.625 45.0648 137.682 45.0039C137.738 44.943 137.806 44.8939 137.881 44.8592C137.956 44.8245 138.038 44.805 138.121 44.8017C138.204 44.7985 138.286 44.8117 138.364 44.8404C138.442 44.8691 138.513 44.9129 138.574 44.9692C138.635 45.0255 138.684 45.0933 138.719 45.1686L141.665 51.5859C141.703 51.6672 141.722 51.7555 141.723 51.8449C141.723 51.9344 141.705 52.0229 141.669 52.1047C141.633 52.1865 141.579 52.2597 141.513 52.3194C141.446 52.379 141.368 52.4239 141.282 52.4509L136.894 53.8422C136.835 53.8614 136.773 53.8713 136.711 53.8716Z" fill="black"/>
</g>
<path d="M171.995 266.294C197.167 377.184 219.959 488.821 237.946 601.115L212.662 606.316C184.865 496.041 161.74 384.477 141.101 272.65L171.995 266.294Z" fill="#E98862"/>
<path d="M119.97 273.164C122.285 383.327 122.113 493.74 117.105 603.83H91.2846C86.2774 493.74 86.109 383.325 88.42 273.164H119.97Z" fill="#E98862"/>
<path d="M150.488 614.006C151.201 614.003 151.905 613.853 152.557 613.565C153.209 613.277 153.794 612.858 154.277 612.334C154.759 611.81 155.129 611.192 155.361 610.518C155.594 609.845 155.686 609.131 155.63 608.42C155.554 607.436 155.197 606.494 154.603 605.705C154.008 604.916 153.201 604.314 152.275 603.969L121.443 593.639C120.846 593.441 120.213 593.374 119.587 593.444C118.961 593.513 118.358 593.717 117.819 594.041C113.579 596.984 108.507 598.488 103.349 598.332C99.332 598.047 95.4762 596.639 92.221 594.268C91.9349 594.033 91.5878 593.885 91.2204 593.84C90.8529 593.795 90.4803 593.855 90.146 594.014C89.8116 594.173 89.5294 594.424 89.3322 594.737C89.135 595.05 89.031 595.413 89.0324 595.784V610.864C89.0323 611.308 89.1203 611.748 89.2911 612.158C89.4619 612.569 89.7122 612.941 90.0276 613.254C90.343 613.567 90.7172 613.815 91.1287 613.982C91.5402 614.15 91.9808 614.235 92.4252 614.231L150.488 614.006Z" fill="#C1D8ED"/>
<path d="M268.762 614.006C269.475 614.003 270.179 613.853 270.831 613.565C271.483 613.277 272.068 612.858 272.551 612.334C273.034 611.81 273.403 611.192 273.636 610.518C273.869 609.845 273.961 609.131 273.906 608.42C273.829 607.436 273.472 606.494 272.878 605.705C272.284 604.916 271.476 604.314 270.551 603.969L239.71 593.639C239.113 593.441 238.48 593.374 237.855 593.444C237.23 593.513 236.627 593.717 236.088 594.041C231.848 596.983 226.776 598.488 221.618 598.332C217.601 598.047 213.744 596.639 210.488 594.268C210.202 594.033 209.855 593.885 209.488 593.84C209.12 593.795 208.747 593.855 208.413 594.014C208.079 594.173 207.797 594.424 207.599 594.737C207.402 595.05 207.298 595.413 207.3 595.783V610.864C207.301 611.308 207.39 611.747 207.561 612.157C207.732 612.566 207.983 612.938 208.298 613.251C208.613 613.564 208.987 613.811 209.398 613.98C209.808 614.148 210.248 614.233 210.692 614.231L268.762 614.006Z" fill="#C1D8ED"/>
<path d="M72.4303 225.601C72.4303 225.601 58.0971 289.795 58.0971 343.767C58.0971 397.739 41.6402 481.349 41.6402 481.349C41.6402 481.349 88.2811 473.806 119.924 481.349C174.436 494.35 223.323 466.044 223.323 466.044L168.419 231.526L72.4303 225.601Z" fill="#262626"/>
<path d="M320.551 165.502C320.551 165.502 330.908 160.47 338.687 162.4C346.467 164.33 342.821 167.681 337.159 168.872C331.498 170.063 319.059 172 319.059 172" fill="#E98862"/>
<path d="M326.594 165.266C326.594 165.266 345.795 163.244 345.995 167.868C345.995 167.868 346.837 182.119 344.225 184.325C340.287 187.65 320.782 185.047 320.782 185.047L326.594 165.266Z" fill="#E98862"/>
<path d="M275.836 188.817H200.792C198.57 188.815 196.384 188.256 194.435 187.189C192.486 186.123 190.836 184.583 189.637 182.713L142.217 108.692L164.527 94.4004L208.036 162.32H275.836V188.817Z" fill="#4045B8"/>
<path d="M174.501 233.967C169.216 246.118 65.3373 251.165 63.9503 229.791C63.0663 216.188 75.0528 204.324 75.0528 177.804C75.0528 151.285 50.6631 117.445 70.536 97.572C76.303 91.8051 86.2563 88.0839 98.3943 88.0713C99.3035 95.1495 142.278 95.1747 142.606 88.2354C144.246 88.2607 145.519 88.286 146.315 88.3238C188.18 90.1276 169.783 137.77 169.381 172.77C168.888 213.732 179.955 221.455 174.501 233.967Z" fill="#4045B8"/>
<path d="M142.606 88.2416C142.278 95.1872 138.504 105.389 126.859 106.157C111.34 107.18 99.3034 95.1556 98.3942 88.0774H98.432C113.712 88.0774 133.697 88.109 142.606 88.2416Z" fill="#E98862"/>
<path d="M264.703 251.724C306.513 251.724 340.406 217.83 340.406 176.021C340.406 134.211 306.513 100.318 264.703 100.318C222.893 100.318 189 134.211 189 176.021C189 217.83 222.893 251.724 264.703 251.724Z" fill="#FFD912"/>
<path d="M265.076 224.47C292.18 224.47 314.152 202.498 314.152 175.394C314.152 148.29 292.18 126.318 265.076 126.318C237.972 126.318 216 148.29 216 175.394C216 202.498 237.972 224.47 265.076 224.47Z" fill="#FFCD00"/>
<path d="M258.248 199.12L246.298 187.688L245.18 188.051L249.671 201.901L239.231 205.287L227.052 167.732L243.512 162.394C246.53 161.415 249.26 161.119 251.701 161.505C254.13 161.855 256.177 162.781 257.841 164.282C259.494 165.748 260.688 167.617 261.426 169.89C262.255 172.447 262.276 174.932 261.489 177.346C260.726 179.713 259.127 181.742 256.693 183.434L269.914 195.336L258.248 199.12ZM242.865 180.913L248.032 179.237C249.452 178.777 250.408 178.094 250.9 177.189C251.391 176.284 251.43 175.192 251.015 173.913C250.624 172.706 249.945 171.886 248.981 171.453C248.04 170.973 246.877 170.958 245.492 171.407L240.325 173.083L242.865 180.913ZM297.065 158.861C297.802 161.134 297.943 163.384 297.488 165.612C297.057 167.793 295.961 169.797 294.198 171.624C292.46 173.404 290.064 174.79 287.01 175.78L281.843 177.456L285.955 190.134L275.514 193.52L263.335 155.966L278.942 150.904C281.961 149.925 284.691 149.628 287.131 150.014C289.608 150.389 291.684 151.344 293.359 152.881C295.035 154.417 296.27 156.411 297.065 158.861ZM283.303 167.799C286.25 166.843 287.287 165.015 286.411 162.316C285.525 159.582 283.607 158.693 280.66 159.649L276.505 160.996L279.148 169.146L283.303 167.799Z" fill="white"/>
<path d="M344.223 184.329C343.868 184.61 343.472 184.835 343.048 184.994C340.786 185.461 335.082 184.098 334.166 182.515C332.678 179.939 333.602 170.636 334.916 167.26C336.147 164.103 342.282 165.427 343.095 165.576C343.119 165.585 343.144 165.592 343.17 165.595C344.854 166.056 345.944 166.771 345.993 167.874C345.993 167.878 346.839 182.119 344.223 184.329Z" fill="#E98862"/>
<path d="M177.069 192.925C177.069 192.925 180.108 176.329 191.849 179.217C199.257 181.04 220.787 177.788 221.104 187.301C221.389 195.554 201.166 197.753 194.477 197.067C188.585 196.097 182.768 194.712 177.069 192.925Z" fill="#E98862"/>
<path d="M187.551 179.034C187.551 179.034 205.02 176.458 208.918 178.116C212.372 179.59 203.867 184.169 203.867 184.169L187.551 179.034Z" fill="#E98862"/>
<path d="M193.137 202.146L115.051 199.765C112.613 199.69 110.239 198.968 108.172 197.674C106.105 196.379 104.42 194.559 103.288 192.399L64.7501 118.903L89.1145 106.125L123.931 172.509L193.974 174.647L193.137 202.146Z" fill="#4045B8"/>
</svg>
