<svg width="991" height="588" viewBox="0 0 991 588" fill="none" xmlns="http://www.w3.org/2000/svg">
<path d="M929.485 587.926C961.612 587.926 988.257 560.904 990.491 526.066C995.596 446.434 952.221 370.272 844.448 349.84C777.541 337.156 701.997 246.331 667.04 177.244C607.036 58.6536 523.909 0 438.16 0C298.152 0 278.461 76.3791 217.472 170.18C110.129 335.272 63.2974 337.529 9.8689 447.758C-0.972454 470.132 -0.795187 500.21 0.789402 526.074C2.92849 560.916 29.6698 587.926 61.795 587.926H929.485Z" fill="#2D3135"/>
<path d="M428.147 31.2842H125.027V576.237H428.147V31.2842Z" fill="#FF5B2E"/>
<path d="M125.027 576.237H347.134V68.081L125.027 31.2842V576.237Z" fill="#E7F3FF"/>
<path d="M125.027 31.2842H428.147V576.237H125.027V31.2842ZM113.338 19.5955V587.929H439.836V19.5955H113.338Z" fill="#262626"/>
<path d="M319.219 317.482C326.798 317.482 332.941 311.338 332.941 303.76C332.941 296.182 326.798 290.038 319.219 290.038C311.641 290.038 305.497 296.182 305.497 303.76C305.497 311.338 311.641 317.482 319.219 317.482Z" fill="#808080"/>
<path d="M426.002 140.387C426.002 140.387 434.694 136.654 434.694 113.818L452.167 112.038C452.167 112.038 448.566 132.216 456.742 139.384L426.002 140.387Z" fill="#E98862"/>
<path d="M425.649 104.221C426.277 111.201 429.499 118.026 435.386 120.746C441.788 123.916 448.868 125.47 456.009 125.274C474.977 125.274 474.763 82.1272 466.5 73.0725C458.236 64.0179 431.552 67.1341 427.218 80.7912C424.976 87.8537 425.053 97.5775 425.649 104.221Z" fill="#E98862"/>
<path d="M465.501 90.5971C469.182 90.5687 472.856 90.259 476.49 89.6707C476.49 89.6707 475.378 61.6518 445.622 63.2494C441.758 63.0731 437.886 63.3014 434.07 63.9304C425.126 65.302 412.445 74.4464 410.398 97.33C409.46 107.829 405.84 117.725 403.078 123.991C402.754 124.727 402.618 125.532 402.683 126.333C402.748 127.134 403.012 127.907 403.45 128.581C403.889 129.254 404.489 129.808 405.195 130.191C405.902 130.575 406.693 130.776 407.497 130.777L471.247 130.271C472.001 130.272 472.745 130.096 473.418 129.758C474.092 129.42 474.677 128.929 475.127 128.323C475.577 127.718 475.879 127.016 476.009 126.274C476.138 125.531 476.092 124.768 475.874 124.046C472.406 112.571 466.063 105.532 465.501 90.5971Z" fill="#0F1011"/>
<path d="M499.539 576.232L476.998 573.551C478.013 565.02 479.16 554.772 479.238 553.092V553.357H501.937C501.931 554.037 501.931 556.109 499.539 576.232Z" fill="#E98862"/>
<path d="M409.095 578.945L386.396 578.871C386.396 578.871 386.471 555.432 386.471 553.357H409.17C409.17 555.439 409.095 578.945 409.095 578.945Z" fill="#E98862"/>
<path d="M467.925 569.064L507.918 568.382C506.04 520.789 505.924 470.866 505.339 423.158C497.535 371.735 493.428 315.266 483.791 264.213L400.077 259.857C400.077 259.857 398.222 293.754 397.483 307.185C393.218 384.355 385.438 493.045 380.554 567.775L420.404 571.143C427.584 497.873 438.696 391.114 445.53 314.142C453.379 351.616 458.717 390.419 465.543 427.571C466.9 474.077 468.054 522.695 467.925 569.064Z" fill="#262626"/>
<path d="M436.688 587.724C437.271 587.721 437.848 587.604 438.385 587.378C438.923 587.153 439.411 586.823 439.822 586.409C440.232 585.995 440.557 585.504 440.778 584.964C440.998 584.424 441.11 583.846 441.107 583.263C441.107 583.155 441.103 583.047 441.094 582.939C441.028 582.095 440.723 581.288 440.214 580.612C439.704 579.936 439.013 579.42 438.22 579.124L411.8 570.275C411.288 570.105 410.746 570.049 410.21 570.108C409.674 570.168 409.158 570.343 408.696 570.621C405.063 573.14 400.719 574.429 396.3 574.296C392.859 574.051 389.555 572.844 386.767 570.813C386.522 570.612 386.224 570.485 385.91 570.446C385.595 570.407 385.276 570.459 384.989 570.595C384.703 570.731 384.461 570.946 384.292 571.214C384.123 571.482 384.034 571.793 384.035 572.11V585.029C384.035 585.797 384.34 586.533 384.883 587.076C385.426 587.619 386.162 587.924 386.93 587.924H386.941L436.688 587.724Z" fill="#C1D8ED"/>
<path d="M527.195 587.723C527.778 587.721 528.355 587.604 528.892 587.378C529.43 587.153 529.918 586.823 530.328 586.409C530.738 585.995 531.063 585.505 531.284 584.965C531.504 584.425 531.616 583.848 531.614 583.265C531.614 583.157 531.614 583.049 531.601 582.94C531.535 582.097 531.23 581.29 530.721 580.614C530.212 579.938 529.52 579.422 528.728 579.126L502.307 570.277C501.796 570.107 501.253 570.051 500.718 570.11C500.182 570.17 499.665 570.345 499.203 570.623C495.571 573.142 491.226 574.43 486.807 574.298C483.366 574.053 480.062 572.846 477.273 570.815C477.028 570.614 476.731 570.487 476.416 570.448C476.101 570.409 475.782 570.461 475.496 570.597C475.209 570.733 474.968 570.948 474.799 571.216C474.63 571.484 474.54 571.795 474.542 572.112V585.031C474.542 585.799 474.846 586.535 475.389 587.078C475.932 587.621 476.668 587.926 477.436 587.926H477.448L527.195 587.723Z" fill="#C1D8ED"/>
<path d="M573.277 215.826C576.498 215.826 587.267 214.124 588.035 216.86C588.497 218.501 580.469 220.438 580.469 220.438" fill="#E98862"/>
<path d="M571.585 228.739C571.585 228.739 593.326 237.672 605.817 227.485C606.135 227.225 606.367 226.875 606.483 226.481C606.599 226.087 606.593 225.668 606.467 225.277C606.34 224.886 606.099 224.543 605.775 224.292C605.45 224.04 605.057 223.893 604.647 223.868C596.226 223.372 578.929 221.674 580.949 216.121H567.37" fill="#E98862"/>
<path d="M514.479 210.123C517.685 209.814 528.241 207.087 529.269 209.736C529.886 211.324 522.083 214.023 522.083 214.023" fill="#E98862"/>
<path d="M514.036 223.14C514.036 223.14 536.534 229.943 547.988 218.6C548.28 218.311 548.477 217.941 548.555 217.537C548.633 217.134 548.587 216.716 548.423 216.339C548.26 215.963 547.986 215.644 547.639 215.425C547.291 215.206 546.885 215.097 546.475 215.112C538.044 215.428 520.663 215.399 522.142 209.679L508.631 210.976" fill="#E98862"/>
<path d="M401.552 237.354C398.427 237.354 395.431 236.113 393.221 233.903C391.012 231.694 389.77 228.697 389.77 225.572C389.77 225.385 389.77 225.199 389.783 225.012L392.975 157.549L416.516 158.663L413.941 213.083L516.523 207.42L517.82 230.953L402.201 237.335C401.984 237.348 401.768 237.354 401.552 237.354Z" fill="#4045B8"/>
<path d="M512.843 211.174L486.665 154.606C484.493 144.78 478.393 138.001 464.182 137.391C459.842 137.206 438.667 137.175 423.162 137.175C412.747 137.175 404.196 140.371 399.258 145.31C382.232 162.335 403.13 191.346 403.13 214.055C403.13 236.763 392.862 246.935 393.618 258.588C394.807 276.903 483.796 272.576 488.33 262.172C492.999 251.443 483.524 244.833 483.939 209.739C483.963 207.662 484.063 205.533 484.212 203.37L495.218 227.15C496.111 229.079 497.527 230.719 499.306 231.882C501.085 233.045 503.155 233.686 505.28 233.73L574.663 235.19L575.143 212.493L512.843 211.174Z" fill="#4045B8"/>
<path d="M748.281 576.23L770.822 573.551C769.807 565.019 768.66 554.772 768.582 553.092V553.357H745.883C745.889 554.036 745.889 556.109 748.281 576.23Z" fill="#E98862"/>
<path d="M838.726 578.944L861.424 578.871C861.424 578.871 861.349 555.432 861.349 553.356H838.65C838.65 555.438 838.726 578.944 838.726 578.944Z" fill="#E98862"/>
<path d="M779.895 569.064L739.902 568.382C741.564 526.268 741.847 478.097 742.294 434.509C742.418 423.705 743.233 412.919 744.736 402.219C751.169 356.04 755.366 310.127 764.028 264.213L764.317 264.298L765.161 258.537L847.392 253.457L851.673 307.177C851.673 307.177 862.384 493.035 867.269 567.764L827.424 571.142C820.243 497.873 809.132 391.112 802.297 314.142C794.449 351.615 789.111 390.418 782.286 427.571C780.921 474.077 779.767 522.696 779.895 569.064Z" fill="#262626"/>
<path d="M811.133 587.723C810.55 587.721 809.973 587.604 809.435 587.378C808.898 587.153 808.41 586.823 808 586.409C807.589 585.995 807.265 585.505 807.044 584.965C806.823 584.425 806.711 583.848 806.714 583.265C806.714 583.157 806.714 583.049 806.727 582.94C806.793 582.097 807.098 581.29 807.607 580.614C808.116 579.938 808.807 579.422 809.6 579.126L836.02 570.277C836.532 570.107 837.074 570.051 837.61 570.11C838.146 570.17 838.662 570.345 839.125 570.623C842.757 573.142 847.102 574.43 851.52 574.298C854.962 574.053 858.265 572.846 861.054 570.815C861.299 570.614 861.596 570.487 861.911 570.448C862.225 570.41 862.545 570.461 862.831 570.597C863.117 570.733 863.359 570.948 863.528 571.216C863.698 571.484 863.787 571.795 863.786 572.112V585.031C863.786 585.799 863.481 586.535 862.938 587.078C862.395 587.621 861.659 587.926 860.892 587.926H860.88L811.133 587.723Z" fill="#C1D8ED"/>
<path d="M720.625 587.724C720.042 587.721 719.465 587.603 718.928 587.377C718.39 587.152 717.902 586.822 717.492 586.408C717.081 585.994 716.757 585.502 716.536 584.963C716.316 584.423 716.204 583.845 716.206 583.262C716.206 583.154 716.206 583.046 716.219 582.937C716.285 582.094 716.59 581.286 717.1 580.611C717.609 579.935 718.301 579.419 719.093 579.123L745.513 570.274C746.025 570.105 746.567 570.048 747.103 570.107C747.639 570.167 748.156 570.342 748.618 570.62C752.25 573.139 756.594 574.427 761.013 574.295C764.454 574.05 767.758 572.843 770.547 570.812C770.792 570.611 771.089 570.484 771.404 570.445C771.719 570.406 772.038 570.458 772.324 570.594C772.611 570.73 772.853 570.945 773.022 571.213C773.191 571.481 773.28 571.792 773.279 572.109V585.028C773.279 585.796 772.974 586.532 772.431 587.075C771.888 587.618 771.152 587.923 770.384 587.923H770.372L720.625 587.724Z" fill="#C1D8ED"/>
<path d="M634.188 201.855C634.188 201.855 625.315 197.543 618.65 199.197C615.63 199.947 614.634 200.945 614.884 201.91C613.415 202.306 612.427 202.928 612.385 203.88C612.385 203.88 611.665 216.094 613.898 217.978C617.271 220.827 633.981 218.596 633.981 218.596L634.188 201.855Z" fill="#E98862"/>
<path d="M672.49 221.826H736.779C738.683 221.826 740.556 221.347 742.226 220.434C743.896 219.52 745.31 218.201 746.336 216.598L786.958 153.185L767.845 140.937L730.576 199.127H672.49V221.826Z" fill="#4045B8"/>
<path d="M759.299 260.509C763.828 270.918 852.818 275.242 854.007 256.931C854.764 245.279 844.495 235.108 844.495 212.399C844.495 189.689 865.389 160.689 848.365 143.665C843.425 138.725 834.897 135.536 824.499 135.525C823.721 141.589 786.905 141.611 786.624 135.666C785.219 135.688 784.128 135.709 783.447 135.742C747.583 137.287 763.342 178.102 763.688 208.086C764.109 243.172 754.63 249.783 759.299 260.509Z" fill="#4045B8"/>
<path d="M786.624 135.666C786.906 141.611 790.137 150.355 800.114 151.015C813.409 151.89 823.721 141.589 824.499 135.525H824.466C811.377 135.525 794.256 135.547 786.624 135.666Z" fill="#E98862"/>
<path d="M747.75 169.637H638.613V260.397H747.75V169.637Z" fill="#00DE8E"/>
<path opacity="0.26" d="M747.75 169.637H638.613V260.397H747.75V169.637Z" fill="#0F1011"/>
<path d="M713.162 169.637H614.834V260.397H713.162V169.637Z" fill="#00DE8E"/>
<path d="M748.119 213.451H748.094C747.93 213.421 747.761 213.398 747.591 213.38C744.926 213.007 732.783 211.405 729.814 212.668C728.815 213.093 728.994 213.822 729.655 214.6C724.203 215.116 719.505 216.453 719.366 220.536C719.122 227.607 736.444 229.491 742.173 228.902C747.318 228.37 755.149 214.728 748.119 213.451Z" fill="#E98862"/>
<path d="M743.336 233.246L810.221 231.206C812.309 231.142 814.342 230.525 816.113 229.417C817.884 228.309 819.328 226.75 820.297 224.9L853.321 161.934L832.449 150.99L802.623 207.861L742.617 209.691L743.336 233.246Z" fill="#4045B8"/>
<path d="M814.274 120.313C814.263 120.032 814.263 119.74 814.263 119.448C814.252 117.481 814.339 115.341 814.533 113.006L812.458 112.617L810.361 112.228L797.26 109.807C797.56 113.644 797.502 117.502 797.088 121.329C797.033 121.848 796.958 122.377 796.882 122.907C796.828 123.285 796.763 123.653 796.698 124.031C796.688 124.128 796.666 124.237 796.644 124.345C796.493 125.188 796.32 126.02 796.104 126.842C796.07 127.01 796.027 127.176 795.974 127.339C795.972 127.369 795.965 127.398 795.953 127.425C795.866 127.782 795.758 128.149 795.639 128.495C795.52 128.895 795.39 129.284 795.239 129.673C795.185 129.836 795.12 129.998 795.055 130.16C795.042 130.205 795.024 130.249 795.001 130.29C794.926 130.495 794.839 130.689 794.742 130.895C794.702 131.009 794.655 131.121 794.601 131.23C794.418 131.641 794.223 132.03 794.018 132.408C794.015 132.408 794.012 132.409 794.01 132.411C794.008 132.413 794.007 132.416 794.007 132.419C793.192 134.015 792.046 135.419 790.645 136.537H817.804C816.122 133.64 814.393 128.647 814.274 120.313Z" fill="#E98862"/>
<path d="M794.005 132.424L808.35 121.449L797.083 121.333C796.757 125.189 795.713 128.951 794.005 132.424Z" fill="#C98481"/>
<path d="M824.329 104.187C823.134 111.093 819.366 117.631 813.274 119.86C806.635 122.496 799.451 123.466 792.351 122.687C773.446 121.137 777.186 78.154 786.161 69.803C795.135 61.452 821.477 66.7408 824.682 80.706C826.343 87.9252 825.467 97.61 824.329 104.187Z" fill="#E98862"/>
<path d="M797.286 98.8639C798.151 98.8639 798.853 98.1627 798.853 97.2977C798.853 96.4327 798.151 95.7314 797.286 95.7314C796.421 95.7314 795.72 96.4327 795.72 97.2977C795.72 98.1627 796.421 98.8639 797.286 98.8639Z" fill="#0F1011"/>
<path d="M784.931 97.8497C785.796 97.8497 786.497 97.1485 786.497 96.2835C786.497 95.4185 785.796 94.7173 784.931 94.7173C784.066 94.7173 783.364 95.4185 783.364 96.2835C783.364 97.1485 784.066 97.8497 784.931 97.8497Z" fill="#0F1011"/>
<path d="M782.217 92.9459H782.226L786.376 92.895C786.571 92.8937 786.758 92.815 786.895 92.676C787.032 92.5371 787.108 92.3493 787.107 92.1541C787.106 91.9589 787.027 91.7721 786.888 91.635C786.749 91.4979 786.561 91.4216 786.366 91.4229H786.356L782.208 91.4747C782.018 91.4831 781.838 91.5648 781.707 91.7027C781.576 91.8406 781.503 92.0241 781.504 92.2145C781.505 92.4049 781.58 92.5874 781.713 92.7238C781.846 92.8602 782.026 92.9398 782.217 92.9459Z" fill="#0F1011"/>
<path d="M800.669 94.4592C800.849 94.4588 801.022 94.3924 801.156 94.2726C801.291 94.1528 801.377 93.9879 801.398 93.8091C801.419 93.6304 801.374 93.4501 801.271 93.3024C801.168 93.1547 801.014 93.0498 800.839 93.0076L796.748 92.0229C796.559 91.9746 796.358 92.0034 796.19 92.103C796.022 92.2027 795.901 92.3649 795.853 92.5541C795.804 92.7433 795.833 92.944 795.933 93.1119C796.032 93.2799 796.195 93.4014 796.384 93.4497H796.403L800.494 94.4344C800.551 94.4496 800.61 94.458 800.669 94.4592Z" fill="#0F1011"/>
<path d="M813.518 119.032C813.877 120.18 814.128 120.681 815.162 120.067C819.222 117.654 826.697 115.397 829.81 95.7316C832.6 78.1131 818.268 71.8936 809.598 69.2995C802.126 67.0642 803.904 67.7462 795.72 72.6794C788.666 76.9306 780.544 81.6336 780.544 81.6336C783.662 81.7773 784.29 84.4568 791.644 84.4568C797.33 84.4568 801.026 81.9167 806.35 82.1405C811.222 82.3448 812.223 85.3151 812.05 87.2207C811.003 98.7657 812.249 114.973 813.518 119.032Z" fill="#0F1011"/>
<path d="M805.434 101.129C805.317 102.87 805.889 104.587 807.028 105.909C808.166 107.231 809.78 108.052 811.519 108.194C813.258 108.336 814.982 107.788 816.321 106.668C817.659 105.548 818.502 103.947 818.669 102.21C818.753 101.357 818.669 100.495 818.421 99.6746C818.173 98.854 817.766 98.0902 817.222 97.427C816.679 96.7639 816.01 96.2142 815.254 95.8096C814.498 95.4049 813.67 95.1531 812.817 95.0686C812.743 95.061 812.669 95.0545 812.594 95.0502C807.86 94.8999 805.734 97.4746 805.434 101.129Z" fill="#E98862"/>
<g opacity="0.15">
<path d="M790.334 105.984C790.464 105.984 790.589 105.937 790.687 105.853C790.785 105.768 790.85 105.652 790.869 105.523C790.888 105.395 790.861 105.265 790.792 105.155C790.723 105.046 790.617 104.964 790.493 104.926L787.308 103.948L789.535 98.987C789.596 98.857 789.602 98.7083 789.553 98.5736C789.504 98.4389 789.403 98.3292 789.273 98.2687C789.143 98.2082 788.994 98.2019 788.86 98.251C788.725 98.3002 788.615 98.4008 788.555 98.5308V98.5438L786.076 104.065C786.047 104.13 786.031 104.2 786.029 104.271C786.027 104.342 786.039 104.412 786.065 104.479C786.09 104.545 786.128 104.606 786.177 104.657C786.226 104.709 786.284 104.75 786.349 104.779C786.37 104.788 786.39 104.796 786.41 104.802L790.181 105.96C790.23 105.975 790.282 105.983 790.334 105.984Z" fill="black"/>
</g>
<path d="M808.35 91.9883L812.051 93.2313C812.051 93.2313 811.569 106.358 810.201 113.034C808.832 119.711 807.768 128.413 803.52 129.37C797.881 130.639 789.817 130.693 784.929 128.946C779.416 126.977 779.55 106.543 779.55 106.543C779.55 106.543 797.277 108.463 802.188 106.11C807.1 103.757 808.35 91.9883 808.35 91.9883Z" fill="#0F1011"/>
<path d="M796.562 109.632C796.562 109.632 790.781 110.242 786.726 108.826C786.726 108.826 786.758 112.634 791.333 113.009C795.907 113.384 796.562 109.632 796.562 109.632Z" fill="#F8FCFF"/>
<path d="M812.594 95.0546C812.594 95.0546 823.591 93.7921 829.747 96.2836C829.747 96.2836 835.577 66.7979 807.401 64.0729C779.226 61.348 781.129 84.8174 781.129 84.8174L803.335 83.4901L812.594 95.0546Z" fill="#262626"/>
<path d="M812.594 95.0548C812.594 95.0548 803.004 87.6896 795.009 87.6896H778.784C778.784 87.6896 765.648 79.1084 765.695 76.9887C765.793 72.5744 789.103 72.9711 794.008 74.8745C798.913 76.778 812.594 95.0548 812.594 95.0548Z" fill="#262626"/>
<path opacity="0.21" d="M812.594 95.0548C812.594 95.0548 803.004 87.6896 795.009 87.6896H778.784C778.784 87.6896 765.648 79.1084 765.695 76.9887C765.793 72.5744 789.103 72.9711 794.008 74.8745C798.913 76.778 812.594 95.0548 812.594 95.0548Z" fill="black"/>
<path d="M613.903 217.983C614.207 218.224 614.546 218.416 614.908 218.553C616.848 218.953 621.734 217.784 622.518 216.428C623.793 214.222 623.002 206.252 621.877 203.359C620.821 200.657 615.561 201.789 614.871 201.916C614.849 201.925 614.827 201.93 614.805 201.934C613.37 202.327 612.427 202.942 612.387 203.886C612.387 203.886 611.662 216.089 613.903 217.983Z" fill="#E98862"/>
<path d="M114.133 525.795C105.329 523.268 98.702 515.39 96.069 506.618C93.4359 497.845 94.3633 488.325 96.9337 479.534C99.0317 472.36 102.213 465.425 102.996 457.992C105.607 433.239 81.5948 407.946 92.8966 385.772C96.55 378.6 103.62 372.995 104.882 365.046C105.928 358.472 102.685 352.084 101.078 345.624C98.8631 336.736 99.9861 326.65 105.753 319.533C111.519 312.415 122.417 309.305 130.362 313.863C140.755 319.825 141.657 334.543 138.986 346.223C136.315 357.903 131.364 369.918 134.628 381.447C137.738 392.436 147.861 400.71 149.676 411.985C151.189 421.357 146.609 430.496 144.596 439.774C141.435 454.357 144.652 469.473 144.789 484.393C144.926 499.312 140.721 516.045 114.133 525.795Z" fill="#584980"/>
<path d="M100.547 527.212C95.308 525.547 90.6063 522.518 86.925 518.435C83.2436 514.352 80.7153 509.363 79.5994 503.98C77.8765 495.102 79.9929 485.129 75.1332 477.498C68.5484 467.162 61.7971 465.994 53.5996 456.883C40.9964 442.875 40.5533 436.67 41.3856 410.728C41.7368 399.757 26.5892 387.381 31.9234 376.836C36.6242 367.549 50.9115 367.501 59.0138 374.036C67.1162 380.571 70.6756 391.046 74.2058 400.843C77.736 410.639 82.1871 420.995 91.1369 426.309C96.5035 429.497 103.53 430.97 106.494 436.47C108.872 440.883 107.677 446.271 106.719 451.195C104.313 463.571 104.916 478.668 115.302 485.816C119.988 489.041 126.124 490.151 129.977 494.337C133.786 498.475 134.4 504.605 134.142 510.226C133.636 521.027 130.659 531.569 125.442 541.041" fill="#F1576E"/>
<path d="M113.071 535.831C103.721 525.147 102.399 508.221 109.977 496.214C116.336 486.139 128.186 479.201 130.674 467.551C132.89 457.175 126.744 446.451 128.583 436.002C130.584 424.639 141.082 417.182 149.421 409.208C151.59 407.269 153.457 405.015 154.957 402.522C158.625 395.921 157.602 387.821 158.848 380.375C161.233 366.113 172.984 353.461 187.252 351.103C199.766 349.036 208.729 356.224 208.729 369.462C208.729 385.145 196.98 391.866 190.987 398.971C182.378 409.252 177.809 422.316 178.135 435.721C178.557 450.694 184.932 466.635 178.122 479.974C173.124 489.764 162.449 494.983 154.06 502.087C147.722 507.518 142.562 514.189 138.898 521.688C135.235 529.188 133.145 537.359 132.758 545.697" fill="#6E74B2"/>
<path d="M153.43 511.241H77.9717V586.699H153.43V511.241Z" fill="#00DE8E"/>
<g opacity="0.42">
<path d="M153.43 525.954H77.9717V540.682H153.43V525.954Z" fill="white"/>
</g>
<path d="M678.405 123.066C698.499 123.066 714.787 106.778 714.787 86.6845C714.787 66.5914 698.499 50.3027 678.405 50.3027C658.312 50.3027 642.024 66.5914 642.024 86.6845C642.024 106.778 658.312 123.066 678.405 123.066Z" fill="#00DE8E"/>
<path d="M671.387 106.188C670.569 106.188 669.783 105.876 669.188 105.315L653.641 90.6447C653.023 90.0615 652.662 89.2566 652.637 88.4072C652.613 87.5578 652.927 86.7333 653.51 86.1153C654.093 85.4972 654.898 85.1361 655.747 85.1115C656.597 85.0869 657.421 85.4007 658.039 85.9839L671.21 98.4142L698.599 68.2324C699.17 67.6032 699.967 67.2266 700.816 67.1854C701.665 67.1443 702.495 67.4419 703.124 68.013C703.754 68.584 704.13 69.3817 704.171 70.2304C704.213 71.0791 703.915 71.9095 703.344 72.5387L673.76 105.14C673.474 105.455 673.127 105.71 672.741 105.89C672.355 106.07 671.937 106.171 671.512 106.188H671.387Z" fill="white"/>
</svg>
