<svg width="594" height="725" viewBox="0 0 594 725" fill="none" xmlns="http://www.w3.org/2000/svg">
<ellipse cx="278.614" cy="283.351" rx="277.86" ry="283.351" fill="#2D3135"/>
<path d="M266.828 628.982C266.634 628.982 266.448 628.905 266.311 628.767C265.279 627.736 263.598 608.809 259.069 552.457C257.216 529.4 255.464 507.621 254.187 494.385C254.096 493.44 253.73 493.33 253.609 493.294C251.861 492.766 246.542 496.96 243.573 500.632C243.513 500.707 243.438 500.769 243.354 500.815C243.269 500.861 243.176 500.889 243.081 500.899C242.985 500.91 242.888 500.901 242.796 500.873C242.704 500.846 242.618 500.801 242.543 500.741C242.469 500.68 242.407 500.605 242.361 500.521C242.315 500.436 242.286 500.344 242.276 500.248C242.266 500.153 242.274 500.056 242.302 499.964C242.329 499.871 242.374 499.785 242.435 499.711C244.398 497.283 250.797 490.918 254.03 491.891C254.682 492.087 255.494 492.654 255.645 494.244C256.924 507.492 258.674 529.277 260.528 552.34C263.281 586.584 266.399 625.379 267.423 627.822C267.502 627.932 267.549 628.061 267.559 628.195C267.569 628.329 267.542 628.464 267.48 628.584C267.419 628.704 267.325 628.804 267.21 628.875C267.095 628.945 266.963 628.982 266.828 628.982Z" fill="#494949"/>
<path d="M252.306 518.672C264.456 508.934 268.482 493.775 261.3 484.815C254.118 475.855 238.447 476.487 226.297 486.225C214.148 495.964 210.121 511.123 217.303 520.083C224.485 529.043 240.156 528.411 252.306 518.672Z" fill="#6E74B2"/>
<path d="M220.709 522.361C220.639 522.361 220.571 522.341 220.513 522.304C220.454 522.267 220.408 522.214 220.378 522.151C220.349 522.088 220.338 522.018 220.346 521.949C220.355 521.88 220.383 521.815 220.428 521.762L255.053 480.007C255.083 479.969 255.121 479.937 255.164 479.914C255.206 479.891 255.253 479.876 255.302 479.871C255.35 479.866 255.399 479.871 255.445 479.885C255.492 479.9 255.535 479.923 255.573 479.954C255.61 479.985 255.641 480.023 255.663 480.066C255.686 480.109 255.699 480.157 255.703 480.205C255.707 480.254 255.702 480.302 255.687 480.349C255.672 480.395 255.648 480.438 255.616 480.474L220.991 522.23C220.956 522.271 220.913 522.304 220.864 522.327C220.816 522.35 220.763 522.361 220.709 522.361Z" fill="white"/>
<path d="M274.381 620.031C274.264 620.03 274.149 620.002 274.045 619.949C273.941 619.895 273.852 619.818 273.784 619.722C273.717 619.627 273.673 619.517 273.656 619.401C273.64 619.286 273.651 619.168 273.69 619.057L286.695 581.653C287.078 580.554 287.731 579.568 288.593 578.787C289.456 578.005 290.5 577.453 291.632 577.18C292.763 576.907 293.945 576.922 295.069 577.224C296.193 577.526 297.223 578.105 298.065 578.909L304.941 585.48C305.081 585.614 305.163 585.799 305.167 585.993C305.172 586.187 305.099 586.375 304.965 586.515C304.83 586.656 304.646 586.737 304.452 586.741C304.258 586.746 304.07 586.673 303.929 586.539L297.053 579.97C296.389 579.336 295.575 578.879 294.688 578.641C293.801 578.403 292.868 578.391 291.975 578.606C291.082 578.822 290.258 579.258 289.577 579.874C288.896 580.491 288.381 581.269 288.078 582.136L275.072 619.539C275.022 619.682 274.929 619.807 274.805 619.895C274.681 619.983 274.533 620.03 274.381 620.031Z" fill="#494949"/>
<path d="M324.153 606.188C333.157 599.061 332.622 583.386 322.958 571.176C313.294 558.967 298.16 554.847 289.156 561.974C280.152 569.101 280.687 584.776 290.351 596.986C300.015 609.195 315.149 613.315 324.153 606.188Z" fill="#584980"/>
<path d="M260.92 626.596C260.755 626.596 260.596 626.541 260.466 626.439C260.337 626.337 260.246 626.194 260.208 626.034L238.382 534.773C238.233 534.151 237.915 533.582 237.464 533.128C237.012 532.675 236.444 532.355 235.823 532.204C235.201 532.052 234.55 532.076 233.94 532.27C233.331 532.465 232.787 532.825 232.369 533.309L225.641 541.084C225.514 541.231 225.333 541.321 225.14 541.335C224.946 541.349 224.755 541.285 224.608 541.158C224.461 541.031 224.37 540.851 224.356 540.657C224.342 540.463 224.406 540.272 224.533 540.125L231.262 532.35C231.857 531.663 232.63 531.152 233.496 530.876C234.362 530.599 235.288 530.567 236.171 530.783C237.054 530.998 237.861 531.453 238.502 532.098C239.144 532.742 239.595 533.551 239.806 534.435L261.633 625.697C261.659 625.804 261.66 625.916 261.636 626.025C261.612 626.133 261.564 626.234 261.495 626.321C261.427 626.408 261.339 626.478 261.24 626.526C261.14 626.575 261.031 626.6 260.92 626.599V626.596Z" fill="#494949"/>
<path d="M252.437 561.371C255.084 546.034 248.06 532.018 236.749 530.066C225.438 528.114 214.123 538.965 211.476 554.302C208.829 569.64 215.852 583.656 227.163 585.608C238.474 587.56 249.79 576.709 252.437 561.371Z" fill="#F1576E"/>
<path d="M266.83 628.982C266.8 628.982 266.769 628.98 266.739 628.976C266.644 628.964 266.552 628.934 266.468 628.887C266.384 628.839 266.311 628.776 266.252 628.7C266.192 628.624 266.149 628.537 266.123 628.445C266.098 628.352 266.09 628.255 266.102 628.16L280.04 514.997C280.192 513.764 280.696 512.602 281.493 511.649C282.29 510.696 283.345 509.994 284.531 509.626C285.717 509.258 286.985 509.241 288.181 509.577C289.377 509.912 290.45 510.586 291.272 511.517L307.203 529.56C307.331 529.706 307.397 529.896 307.385 530.09C307.373 530.284 307.284 530.466 307.139 530.594C306.993 530.723 306.802 530.788 306.608 530.776C306.414 530.764 306.233 530.676 306.105 530.53L290.174 512.487C289.539 511.768 288.709 511.247 287.785 510.987C286.861 510.728 285.881 510.741 284.964 511.025C284.047 511.309 283.232 511.852 282.616 512.588C282 513.325 281.61 514.223 281.492 515.176L267.556 628.339C267.534 628.516 267.448 628.679 267.314 628.798C267.181 628.916 267.008 628.982 266.83 628.982Z" fill="#494949"/>
<path d="M323.542 539.588C329.1 529.539 322.561 515.283 308.935 507.747C295.31 500.21 279.758 502.246 274.2 512.294C268.642 522.343 275.181 536.598 288.807 544.135C302.432 551.672 317.984 549.636 323.542 539.588Z" fill="#D591B6"/>
<path d="M284.656 725H249.002L243.094 610.924H290.564L284.656 725Z" fill="#292A2E"/>
<path opacity="0.3" d="M284.656 725H249.002L243.094 610.924H290.564L284.656 725Z" fill="white"/>
<path d="M324.153 606.549C324.098 606.549 324.043 606.536 323.993 606.512C323.944 606.488 323.9 606.453 323.866 606.41L288.868 562.197C288.807 562.12 288.78 562.023 288.791 561.927C288.802 561.83 288.852 561.742 288.928 561.682C289.004 561.622 289.101 561.594 289.198 561.605C289.294 561.617 289.382 561.666 289.442 561.742L324.44 605.955C324.483 606.009 324.51 606.074 324.518 606.142C324.525 606.21 324.513 606.28 324.483 606.342C324.454 606.404 324.407 606.456 324.349 606.493C324.29 606.529 324.222 606.549 324.153 606.549Z" fill="white"/>
<path d="M321.214 543.13C321.136 543.129 321.061 543.103 320.998 543.057L276.214 510.359C276.175 510.33 276.143 510.294 276.117 510.253C276.092 510.212 276.076 510.167 276.068 510.119C276.061 510.072 276.063 510.023 276.074 509.976C276.086 509.93 276.106 509.886 276.134 509.847C276.163 509.808 276.199 509.775 276.24 509.75C276.281 509.725 276.326 509.708 276.374 509.701C276.421 509.693 276.47 509.696 276.517 509.707C276.563 509.718 276.607 509.739 276.646 509.767L321.433 542.468C321.495 542.514 321.54 542.578 321.563 542.652C321.586 542.725 321.585 542.804 321.561 542.877C321.537 542.95 321.49 543.013 321.428 543.058C321.365 543.103 321.291 543.127 321.214 543.127V543.13Z" fill="white"/>
<path d="M225.758 585.119C225.726 585.119 225.694 585.115 225.663 585.106C225.569 585.081 225.489 585.02 225.44 584.936C225.392 584.852 225.379 584.752 225.404 584.658L239.66 531.244C239.672 531.197 239.693 531.153 239.722 531.114C239.751 531.075 239.788 531.042 239.83 531.017C239.872 530.993 239.918 530.977 239.966 530.97C240.014 530.963 240.063 530.966 240.11 530.979C240.157 530.991 240.201 531.013 240.24 531.043C240.278 531.073 240.31 531.11 240.334 531.152C240.358 531.194 240.373 531.241 240.379 531.289C240.385 531.337 240.381 531.386 240.368 531.433L226.111 584.847C226.09 584.925 226.044 584.994 225.98 585.043C225.917 585.092 225.838 585.119 225.758 585.119Z" fill="white"/>
<rect x="28" y="32" width="312" height="183" rx="30" fill="white"/>
<rect x="73.9713" y="62.967" width="360.23" height="117.88" rx="30" fill="url(#paint0_linear_5_1025)"/>
<path d="M155.334 101.342L138.502 145.95H131.782L114.95 101.342H121.158L135.174 139.806L149.19 101.342H155.334ZM193.72 127.07C193.72 128.179 193.656 129.352 193.528 130.59H165.496C165.709 134.046 166.882 136.755 169.016 138.718C171.192 140.638 173.816 141.598 176.888 141.598C179.405 141.598 181.496 141.022 183.16 139.87C184.866 138.675 186.061 137.096 186.744 135.134H193.016C192.077 138.504 190.2 141.256 187.384 143.39C184.568 145.48 181.069 146.526 176.888 146.526C173.56 146.526 170.573 145.779 167.928 144.286C165.325 142.792 163.277 140.68 161.784 137.95C160.29 135.176 159.544 131.976 159.544 128.35C159.544 124.723 160.269 121.544 161.72 118.814C163.17 116.083 165.197 113.992 167.8 112.542C170.445 111.048 173.474 110.302 176.888 110.302C180.216 110.302 183.16 111.027 185.72 112.478C188.28 113.928 190.242 115.934 191.608 118.494C193.016 121.011 193.72 123.87 193.72 127.07ZM187.704 125.854C187.704 123.635 187.213 121.736 186.232 120.158C185.25 118.536 183.906 117.32 182.2 116.51C180.536 115.656 178.68 115.23 176.632 115.23C173.688 115.23 171.17 116.168 169.08 118.046C167.032 119.923 165.858 122.526 165.56 125.854H187.704ZM207.231 116.574C208.255 114.568 209.706 113.011 211.583 111.902C213.503 110.792 215.828 110.238 218.559 110.238V116.254H217.023C210.495 116.254 207.231 119.795 207.231 126.878V145.95H201.407V110.878H207.231V116.574ZM228.29 105.182C227.181 105.182 226.242 104.798 225.474 104.03C224.706 103.262 224.322 102.323 224.322 101.214C224.322 100.104 224.706 99.1657 225.474 98.3977C226.242 97.6297 227.181 97.2457 228.29 97.2457C229.357 97.2457 230.253 97.6297 230.978 98.3977C231.746 99.1657 232.13 100.104 232.13 101.214C232.13 102.323 231.746 103.262 230.978 104.03C230.253 104.798 229.357 105.182 228.29 105.182ZM231.106 110.878V145.95H225.282V110.878H231.106ZM255.304 115.678H247.944V145.95H242.12V115.678H237.576V110.878H242.12V108.382C242.12 104.456 243.123 101.598 245.128 99.8057C247.176 97.971 250.44 97.0537 254.92 97.0537V101.918C252.36 101.918 250.547 102.43 249.48 103.454C248.456 104.435 247.944 106.078 247.944 108.382V110.878H255.304V115.678ZM265.103 105.182C263.993 105.182 263.055 104.798 262.287 104.03C261.519 103.262 261.135 102.323 261.135 101.214C261.135 100.104 261.519 99.1657 262.287 98.3977C263.055 97.6297 263.993 97.2457 265.103 97.2457C266.169 97.2457 267.065 97.6297 267.791 98.3977C268.559 99.1657 268.943 100.104 268.943 101.214C268.943 102.323 268.559 103.262 267.791 104.03C267.065 104.798 266.169 105.182 265.103 105.182ZM267.919 110.878V145.95H262.095V110.878H267.919ZM297.429 145.95L283.669 130.462V145.95H277.845V98.5897H283.669V126.43L297.173 110.878H305.301L288.789 128.35L305.365 145.95H297.429ZM308.606 128.286C308.606 124.702 309.331 121.566 310.782 118.878C312.233 116.147 314.217 114.035 316.734 112.542C319.294 111.048 322.131 110.302 325.246 110.302C328.318 110.302 330.985 110.963 333.246 112.286C335.507 113.608 337.193 115.272 338.302 117.278V110.878H344.19V145.95H338.302V139.422C337.15 141.47 335.422 143.176 333.118 144.542C330.857 145.864 328.211 146.526 325.182 146.526C322.067 146.526 319.251 145.758 316.734 144.222C314.217 142.686 312.233 140.531 310.782 137.758C309.331 134.984 308.606 131.827 308.606 128.286ZM338.302 128.35C338.302 125.704 337.769 123.4 336.702 121.438C335.635 119.475 334.185 117.982 332.35 116.958C330.558 115.891 328.574 115.358 326.398 115.358C324.222 115.358 322.238 115.87 320.446 116.894C318.654 117.918 317.225 119.411 316.158 121.374C315.091 123.336 314.558 125.64 314.558 128.286C314.558 130.974 315.091 133.32 316.158 135.326C317.225 137.288 318.654 138.803 320.446 139.87C322.238 140.894 324.222 141.406 326.398 141.406C328.574 141.406 330.558 140.894 332.35 139.87C334.185 138.803 335.635 137.288 336.702 135.326C337.769 133.32 338.302 130.995 338.302 128.35ZM366.448 146.526C363.76 146.526 361.349 146.078 359.216 145.182C357.083 144.243 355.397 142.963 354.16 141.342C352.923 139.678 352.24 137.779 352.112 135.646H358.128C358.299 137.395 359.109 138.824 360.56 139.934C362.053 141.043 363.995 141.598 366.384 141.598C368.603 141.598 370.352 141.107 371.632 140.126C372.912 139.144 373.552 137.907 373.552 136.414C373.552 134.878 372.869 133.747 371.504 133.022C370.139 132.254 368.027 131.507 365.168 130.782C362.565 130.099 360.432 129.416 358.768 128.734C357.147 128.008 355.739 126.963 354.544 125.598C353.392 124.19 352.816 122.355 352.816 120.094C352.816 118.302 353.349 116.659 354.416 115.166C355.483 113.672 356.997 112.499 358.96 111.646C360.923 110.75 363.163 110.302 365.68 110.302C369.563 110.302 372.699 111.283 375.088 113.246C377.477 115.208 378.757 117.896 378.928 121.31H373.104C372.976 119.475 372.229 118.003 370.864 116.894C369.541 115.784 367.749 115.23 365.488 115.23C363.397 115.23 361.733 115.678 360.496 116.574C359.259 117.47 358.64 118.643 358.64 120.094C358.64 121.246 359.003 122.206 359.728 122.974C360.496 123.699 361.435 124.296 362.544 124.766C363.696 125.192 365.275 125.683 367.28 126.238C369.797 126.92 371.845 127.603 373.424 128.286C375.003 128.926 376.347 129.907 377.456 131.23C378.608 132.552 379.205 134.28 379.248 136.414C379.248 138.334 378.715 140.062 377.648 141.598C376.581 143.134 375.067 144.35 373.104 145.246C371.184 146.099 368.965 146.526 366.448 146.526ZM390.478 105.182C389.368 105.182 388.43 104.798 387.662 104.03C386.894 103.262 386.51 102.323 386.51 101.214C386.51 100.104 386.894 99.1657 387.662 98.3977C388.43 97.6297 389.368 97.2457 390.478 97.2457C391.544 97.2457 392.44 97.6297 393.166 98.3977C393.934 99.1657 394.318 100.104 394.318 101.214C394.318 102.323 393.934 103.262 393.166 104.03C392.44 104.798 391.544 105.182 390.478 105.182ZM393.294 110.878V145.95H387.47V110.878H393.294Z" fill="white"/>
<path d="M343.05 166.369C342.836 165.845 342.457 165.404 341.971 165.115C341.484 164.825 340.916 164.703 340.353 164.766C340.353 164.721 340.393 164.611 340.314 164.612L342.144 163.455C342.691 163.126 343.101 162.61 343.297 162.002C343.493 161.394 343.463 160.736 343.212 160.149C342.945 159.577 342.475 159.124 341.893 158.879C341.311 158.634 340.659 158.614 340.063 158.823C340.069 158.798 340.054 158.773 340.052 158.749L340.804 158.274C341.319 157.962 341.709 157.481 341.91 156.914C342.111 156.347 342.11 155.727 341.907 155.161C341.772 154.809 341.56 154.491 341.288 154.23C341.015 153.969 340.688 153.772 340.33 153.653C339.971 153.534 339.591 153.496 339.217 153.541C338.842 153.587 338.482 153.715 338.163 153.916L336.425 155.015C336.421 155.004 336.425 154.993 336.421 154.984C336.416 154.974 336.396 154.97 336.388 154.959C336.796 154.55 337.053 154.016 337.117 153.442C337.181 152.868 337.049 152.29 336.741 151.801C336.028 150.488 334.196 150.641 333.072 151.35L329.704 153.861C329.185 154.248 328.769 154.758 328.495 155.345C328.22 155.932 328.095 156.577 328.13 157.224C328.43 162.824 329.562 177.432 333.149 175.163L341.979 169.588C342.49 169.247 342.873 168.745 343.067 168.162C343.261 167.579 343.255 166.948 343.05 166.369Z" fill="#E98862"/>
<path d="M349.375 160.238C349.314 159.811 349.166 159.402 348.941 159.034C348.716 158.667 348.419 158.349 348.067 158.1C347.715 157.851 347.316 157.677 346.895 157.587C346.473 157.498 346.038 157.495 345.615 157.579C344.803 157.771 344.094 158.264 343.632 158.958C343.169 159.652 342.986 160.496 343.122 161.319L343.209 165.816C343.228 166.767 342.898 167.692 342.281 168.416C341.665 169.14 340.804 169.614 339.863 169.747C338.94 169.878 338 169.674 337.215 169.171C336.43 168.668 335.852 167.9 335.585 167.007L333.291 159.331L335.785 155.607C334.912 154.201 334.18 150.566 332.668 151.649C331.389 152.444 328.485 154.367 327.689 156.188C327.674 156.196 326.187 171.825 326.996 173.129L334.155 192.279C337.59 197.809 354.165 193.53 354.165 193.53L349.375 160.238Z" fill="#E98862"/>
<path d="M471.256 293.462L367.956 284.769C360.35 284.969 353.728 278.645 350.938 271.549L323.874 186.72L359.278 172.803L383.168 245.466L474.017 251.825L471.256 293.462Z" fill="#4045B8"/>
<path d="M531.236 692.856C531.236 692.856 527.93 709.989 511.886 710.947C495.842 711.905 499.321 724.683 499.321 724.683H560.633V694.051L531.236 692.856Z" fill="#4045B8"/>
<path d="M550.147 380.268C550.147 380.268 549.954 375.117 549.995 386.802C550.147 430.387 550.903 480.172 552.751 509.306C555.721 556.138 563.338 703.792 563.338 703.792L523.05 703.453L484.001 378.498L550.147 380.268Z" fill="#262626"/>
<path d="M504.65 431.666C504.65 431.666 502.981 463.296 502.673 470.721C501.957 487.894 501.708 505.674 501.708 525.834L495.356 472.985C495.356 472.985 500.003 456.423 504.65 431.666Z" fill="#0A0A0A"/>
<path d="M459.512 692.856C459.512 692.856 456.206 709.989 440.162 710.947C424.118 711.905 427.597 724.683 427.597 724.683H488.908V694.051L459.512 692.856Z" fill="#4045B8"/>
<path d="M440.004 383.653C440.004 383.653 436.436 532.618 436.958 539.899L451.941 702.661L491.564 703.393L487.703 534.01C487.703 534.01 490.426 487.285 501.716 443.898C507.492 421.631 510.968 398.829 512.09 375.852L440.004 383.653Z" fill="#262626"/>
<path d="M550.586 380.264L550.718 380.271C550.718 380.271 550.622 377.729 550.586 380.264Z" fill="#333333"/>
<path d="M434.333 305.361C435.163 315.122 439.205 371.629 440.004 383.653H550.103C550.724 372.808 553.518 325.389 555.876 304.183C558.127 283.947 562.545 273.816 559.307 267.834C554.016 258.056 539.559 252.407 529.701 251.072C523.681 250.257 472.36 249.671 472.237 249.671C468.205 249.671 444.732 251.566 439.543 255.562C430.154 262.793 432.882 288.338 434.333 305.361Z" fill="#4045B8"/>
<path d="M432.812 290.514C432.719 290.515 432.629 290.479 432.56 290.415C432.492 290.351 432.451 290.263 432.446 290.17L431.558 276.133C431.552 276.036 431.585 275.941 431.65 275.869C431.714 275.796 431.805 275.752 431.902 275.746C431.999 275.742 432.093 275.776 432.165 275.84C432.238 275.904 432.282 275.994 432.289 276.091L433.177 290.127C433.182 290.224 433.149 290.319 433.085 290.392C433.02 290.464 432.93 290.508 432.833 290.514L432.812 290.514Z" fill="#0C0C0C"/>
<path d="M573.906 383.014C577.144 383.013 580.333 382.23 583.203 380.731C586.074 379.232 588.539 377.062 590.39 374.406C592.242 371.749 593.424 368.685 593.836 365.474C594.249 362.262 593.879 358.998 592.759 355.96C591.625 352.876 564.959 282.263 559.885 269.179L522.296 284.408C525.151 291.764 535.492 319.648 543.8 342.111L529.997 340.611L525.653 380.577L571.732 382.896C572.454 382.974 573.18 383.014 573.906 383.014Z" fill="#4045B8"/>
<path d="M459.12 248.336C459.243 248.32 462.62 261.029 488.976 259.051C507.222 257.684 511.674 245.264 512.09 245.264C510.122 244.846 506.927 244.412 506.054 243.947C503.181 242.402 501.087 240.524 500.035 236.49C499.211 233.337 498.79 221.195 498.79 215.103L470.713 221.412C471.105 228.284 473.844 244.215 464.244 247.034C462.647 247.5 460.926 247.928 459.12 248.336Z" fill="#E98862"/>
<path d="M471.685 234.921C482.754 235.795 496.973 231.121 499.674 216.354L502.11 203.028C504.811 188.261 499.244 174.871 485.34 172.328C471.436 169.785 458.853 179.856 456.153 194.624L455.074 200.523C454.038 206.19 451.937 233.363 471.685 234.921Z" fill="#E98862"/>
<path d="M461.423 221.363C463.409 211.38 464.321 204.72 464.214 197.694C461.416 192.788 462.152 187.15 462.788 184.717C460.861 185.941 458.595 186.521 456.316 186.376C456.316 186.376 460.944 167.802 476.674 162.804C479.567 161.679 486.953 160.257 496.759 161.602C505.099 162.746 525.658 168.982 528.596 192.128V192.141C528.693 192.909 530.666 214.235 534.6 224.467C539.89 238.222 547.318 242.496 547.129 258.367C546.887 278.781 509.358 281.498 486.725 279.971C464.092 278.444 451.453 271.001 451.288 256.29C451.108 239.805 457.447 241.336 461.423 221.363Z" fill="#0A0A0A"/>
<path d="M552.447 304.591L553.179 304.616L550.473 383.665L549.742 383.64L552.447 304.591Z" fill="#0C0C0C"/>
<defs>
<linearGradient id="paint0_linear_5_1025" x1="434.201" y1="122.273" x2="73.9713" y2="122.273" gradientUnits="userSpaceOnUse">
<stop stop-color="#0DB5C8"/>
<stop offset="1" stop-color="#089BAB"/>
</linearGradient>
</defs>
</svg>
