<svg id="Layer_1" data-name="Layer 1" xmlns="http://www.w3.org/2000/svg" xmlns:xlink="http://www.w3.org/1999/xlink" viewBox="0 0 493.45 480.85"><defs><style>.cls-1{fill:#f2f2f2;}.cls-2{fill:#a0616a;}.cls-3{fill:#fff;}.cls-4{fill:url(#linear-gradient);}.cls-5{fill:url(#linear-gradient-2);}.cls-6{fill:url(#linear-gradient-3);}.cls-7{fill:url(#linear-gradient-4);}.cls-8{fill:#ccc;}.cls-9{fill:url(#linear-gradient-5);}.cls-10{fill:url(#linear-gradient-6);}.cls-11{fill:url(#linear-gradient-7);}.cls-12{fill:url(#linear-gradient-8);}.cls-13{fill:url(#linear-gradient-9);}.cls-14{fill:url(#linear-gradient-10);}.cls-15{fill:url(#linear-gradient-11);}</style><linearGradient id="linear-gradient" x1="392.21" y1="460.52" x2="422.89" y2="460.52" gradientUnits="userSpaceOnUse"><stop offset="0" stop-color="#2a3780"/><stop offset="1" stop-color="#171042"/></linearGradient><linearGradient id="linear-gradient-2" x1="296.47" y1="459.11" x2="329.51" y2="459.11" xlink:href="#linear-gradient"/><linearGradient id="linear-gradient-3" x1="392.66" y1="198.88" x2="392.66" y2="438.62" xlink:href="#linear-gradient"/><linearGradient id="linear-gradient-4" x1="443.51" y1="37.2" x2="482.78" y2="37.2" gradientUnits="userSpaceOnUse"><stop offset="0" stop-color="#2a3780"/><stop offset="0.24" stop-color="#222666"/><stop offset="0.49" stop-color="#1c1a52"/><stop offset="0.74" stop-color="#181246"/><stop offset="1" stop-color="#171042"/></linearGradient><linearGradient id="linear-gradient-5" x1="468.64" y1="248.75" x2="486.64" y2="248.75" gradientUnits="userSpaceOnUse"><stop offset="0" stop-color="#f8ed49"/><stop offset="0.66" stop-color="#e47a58"/><stop offset="1" stop-color="#d93c66"/></linearGradient><linearGradient id="linear-gradient-6" x1="393.37" y1="32.76" x2="446.94" y2="32.76" xlink:href="#linear-gradient-4"/><linearGradient id="linear-gradient-7" x1="393.46" y1="36.72" x2="452.45" y2="36.72" xlink:href="#linear-gradient-4"/><linearGradient id="linear-gradient-8" x1="421.01" y1="13.11" x2="447.22" y2="13.11" xlink:href="#linear-gradient-4"/><linearGradient id="linear-gradient-9" x1="375.66" y1="60.52" x2="375.66" y2="220.75" gradientUnits="userSpaceOnUse"><stop offset="0" stop-color="#ca246d"/><stop offset="1" stop-color="#4c286e"/></linearGradient><linearGradient id="linear-gradient-10" x1="85.13" y1="293.31" x2="307.13" y2="293.31" xlink:href="#linear-gradient-5"/><linearGradient id="linear-gradient-11" x1="213.96" y1="341.05" x2="306.18" y2="341.05" xlink:href="#linear-gradient-5"/></defs><title>login</title><path class="cls-1" d="M319.72,99.72H293.46V323.57a26.74,26.74,0,0,1-26.74,26.74H66v.26a26.74,26.74,0,0,0,26.74,26.74h227a26.74,26.74,0,0,0,26.74-26.74h0V126.47A26.74,26.74,0,0,0,319.72,99.72Z" transform="translate(-4.98 8.06)"/><path class="cls-1" d="M444.18,455.45a2.27,2.27,0,0,0,1.64-3.93l-.16-.62.06-.15a6.09,6.09,0,0,1,11.24,0c1.84,4.43,4.18,8.86,4.76,13.55a18,18,0,0,1-.32,6.2,72.28,72.28,0,0,0,6.58-30,69.76,69.76,0,0,0-.43-7.78q-.36-3.18-1-6.31a73.12,73.12,0,0,0-14.5-31A19.46,19.46,0,0,1,444,387a14.84,14.84,0,0,1-1.35-4.06c.39.05,1.49-5.95,1.19-6.32.55-.83,1.53-1.25,2.13-2.06,3-4,7.09-3.34,9.24,2.16,4.58,2.31,4.63,6.15,1.81,9.84-1.79,2.35-2,5.52-3.6,8l.49.61a73.59,73.59,0,0,1,7.68,12.17,30.59,30.59,0,0,1,1.83-14.21c1.75-4.22,5-7.77,7.91-11.41a6.28,6.28,0,0,1,11.18,3.08l0,.16q-.64.36-1.26.77a3.08,3.08,0,0,0,1.24,5.6h.06a30.63,30.63,0,0,1-.81,4.58c3.7,14.32-4.29,19.53-15.7,19.76l-.75.38a75.12,75.12,0,0,1,4,19,71.25,71.25,0,0,1-.05,11.5l0-.14a18.83,18.83,0,0,1,6.43-10.87c4.95-4.06,11.93-5.56,17.27-8.82a3.53,3.53,0,0,1,5.41,3.44l0,.14a20.68,20.68,0,0,0-2.32,1.12q-.64.36-1.26.77a3.08,3.08,0,0,0,1.24,5.6h.06l.13,0a30.65,30.65,0,0,1-5.64,8.83c-2.31,12.5-12.26,13.68-22.89,10h0a75.09,75.09,0,0,1-5,14.73h-18c-.06-.2-.12-.41-.18-.61a20.48,20.48,0,0,0,5-.3l-4-4.93-.08-.1-2-2.51h0a30,30,0,0,1,.88-7.64Z" transform="translate(-4.98 8.06)"/><path class="cls-2" d="M245.71,69.28a8.25,8.25,0,0,0,12.47,1.53l37.47,16.9,7.22-9.21L258.22,58.74a8.23,8.23,0,0,0-12.51,10.54Z" transform="translate(-4.98 8.06)"/><rect class="cls-1" y="72.79" width="280.48" height="277.59" rx="26.74" ry="26.74"/><path class="cls-3" d="M31.73,70.22A21.24,21.24,0,0,0,10.48,91.47h0v224.1a21.24,21.24,0,0,0,21.24,21.24H176.6A103.36,103.36,0,0,0,280,233.45h0v-142a21.24,21.24,0,0,0-21.24-21.24h-227Z" transform="translate(-4.98 8.06)"/><path class="cls-1" d="M208.68,138.24H81.27a4.41,4.41,0,0,1,0-8.82H208.68a4.41,4.41,0,1,1,0,8.82Z" transform="translate(-4.98 8.06)"/><path class="cls-1" d="M208.68,232.24H81.27a4.41,4.41,0,0,1,0-8.82H208.68a4.41,4.41,0,1,1,0,8.82Z" transform="translate(-4.98 8.06)"/><path class="cls-1" d="M260.41,185.27H29.53a4.41,4.41,0,0,1,0-8.82H260.41a4.41,4.41,0,0,1,0,8.82Z" transform="translate(-4.98 8.06)"/><polygon class="cls-2" points="393.53 180.69 370.53 229.69 459.01 220.73 440.54 173.69 393.53 180.69"/><polygon class="cls-2" points="414.1 462.32 405.71 462.25 402 429.14 414.38 429.24 414.1 462.32"/><path class="cls-4" d="M392.21,467.59a3.76,3.76,0,0,0,3.72,3.78l16.68.14,2.92-5.92,1.07,5.95,6.29.06-1.59-21.22-2.19-.15-8.93-.62-2.88-.19-.05,6-13.4,9.09A3.75,3.75,0,0,0,392.21,467.59Z" transform="translate(-4.98 8.06)"/><polygon class="cls-2" points="321.27 462.36 313.27 459.82 319.45 427.08 331.25 430.82 321.27 462.36"/><path class="cls-5" d="M296.64,459.15a3.76,3.76,0,0,0,2.44,4.71l15.9,5,4.53-4.8-.72,6,6,1.9,4.71-20.75-2.05-.78-8.36-3.21-2.7-1-1.81,5.72-15.48,4.75A3.75,3.75,0,0,0,296.64,459.15Z" transform="translate(-4.98 8.06)"/><path class="cls-6" d="M460,198.88l-80.45,14.74s-12.9,9.65-9.45,13.11,4,2.92,1.72,5.19-7.17,5.3-7.22,7.28-36,91-36,91,4-2,1,1-3,5.48-3,5.48l-14,94.52,22.74,1.34,22.26-86.17,49.66-80.5s4.93,71.79,5.13,76.56,3.21-1.23.21,4.77-5,2-3,6-7.2,85.43-7.2,85.43h20.75l44.51-168.79S483.41,221.58,460,198.88Z" transform="translate(-4.98 8.06)"/><path class="cls-7" d="M482.77,37.12C483,46.66,479.43,55.9,474.3,64c-1.52-4.74-4.26-9-7.11-13.16a41,41,0,0,1-4.36,25.94,5.49,5.49,0,0,1-.47.3c-4.18,2.51-9.47,3.53-14,1.71,9.33-10.06,10.52-26.73,2.7-38-2.22-3.2-5.08-6-6.45-9.68-2.17-5.81-.08-12.21,1.23-18.27C447.08,7.21,447.3.5,443.51-3.64a4,4,0,0,1,3.64-1.68c2.33.33,4,2.36,5.11,4.45s1.8,4.4,3.3,6.21c2.79,3.38,7.55,4.18,11.55,6C476.83,15.62,482.54,26.51,482.77,37.12Z" transform="translate(-4.98 8.06)"/><path class="cls-8" d="M242.63,471.59a1.19,1.19,0,0,0,1.18,1.19h253.3a1.19,1.19,0,1,0,0-2.38H243.82a1.19,1.19,0,0,0-1.19,1.18Z" transform="translate(-4.98 8.06)"/><circle class="cls-9" cx="477.64" cy="248.75" r="9"/><path class="cls-10" d="M401.09,31.67c.55-1.94-3.27,9.92-1.42,10.14,8.4,1,19.93,6,25.78,8.32l.78-.1c.63-.07,1.24-.17,1.84-.28,13.62-2.58,18.86-23.5,18.86-23.69,0-.94-2.26-26.78-5.81-27.16a26.22,26.22,0,0,0-2.81-.15h-8.83a41,41,0,0,0-5.54-.8h0c-17.77-1.35-31.78,9.48-30.47,22.65l0,0c.38.57.71,1.1,1,1.61s.53.94.74,1.38c1.62,3.37-2.54,7.6.22,8.39,3.67,1.05-9.66,35.6,4.88,35.6C393.26,69.62,399.57,37,401.09,31.67Z" transform="translate(-4.98 8.06)"/><circle class="cls-2" cx="412.99" cy="41.44" r="19.89"/><path class="cls-11" d="M393.46,21.73l1,.52c.36.18.73.35,1.09.51,7,3.17,12.69,3.53,16.15-1a19.32,19.32,0,0,1,1.59-7,11.19,11.19,0,0,0,1.84,7h7C429.3,26.48,433,27,428,42.6c-1.39,4.35-6.9,29.67-4.73,33.43.63-.07,7.3-27.8,7.91-27.92,13.62-2.58,22.28-25,21.17-26.29a23.4,23.4,0,0,0-2.43-10.41,23.94,23.94,0,0,0-9.1-9.9,42.19,42.19,0,0,0-7.27-2.73l-.18,0c-.77-.21-1.55-.4-2.33-.56a42.9,42.9,0,0,0-4.9-.74l-.34,0a3.69,3.69,0,0,0-1.87.51h0a3.52,3.52,0,0,0-1,.93,3.56,3.56,0,0,0-.76,2.21h-7.75l-.86,0a20.78,20.78,0,0,0-20,19.53C393.47,21,393.46,21.36,393.46,21.73Z" transform="translate(-4.98 8.06)"/><circle class="cls-12" cx="434.12" cy="13.11" r="13.11"/><path class="cls-2" d="M482.72,244.39a8.25,8.25,0,0,0-3.72-12l.06-41.1-11.36-2.81L468,237.3a8.23,8.23,0,0,0,14.74,7.09Z" transform="translate(-4.98 8.06)"/><path class="cls-13" d="M484.95,220.75l-.12-81.31-21.55-39.38A25.82,25.82,0,0,0,445,76.15l-1.36-.41-7.33-11.87L404,60.52l-8.35,10.84L386,76.54a24.23,24.23,0,0,0-6.64,5.21l-39.66,2.82-64.43-20.4L266.37,81l74.22,33.22,34.63-2.72,9.31,54.13s-9.6,21.62-3,27-5.1,18.71,9,12c12.94-6.16,65.3-.17,73.82.86L466,219.56Zm-32.43-52.12,4.77-17.85.89,1.66,5.6,48.24Z" transform="translate(-4.98 8.06)"/><path class="cls-3" d="M290.63,277.81h-189a15.5,15.5,0,0,0,0,31h189a15.5,15.5,0,1,0,0-31Z" transform="translate(-4.98 8.06)"/><path class="cls-14" d="M290.63,309.81h-189a16.5,16.5,0,1,1,0-33h189a16.5,16.5,0,0,1,0,33Zm-189-31a14.5,14.5,0,1,0,0,29h189a14.5,14.5,0,0,0,0-29Z" transform="translate(-4.98 8.06)"/><path class="cls-15" d="M301.77,345.46H218.37a4.41,4.41,0,0,1,0-8.82h83.41a4.41,4.41,0,0,1,0,8.82Z" transform="translate(-4.98 8.06)"/></svg>