<?xml version="1.0" encoding="utf-8"?>
<!-- Generator: Adobe Illustrator 21.0.0, SVG Export Plug-In . SVG Version: 6.00 Build 0)  -->
<svg version="1.1" id="Layer_1" xmlns="http://www.w3.org/2000/svg" xmlns:xlink="http://www.w3.org/1999/xlink" x="0px" y="0px"
	 viewBox="0 0 709.5 558.6" style="enable-background:new 0 0 709.5 558.6;" xml:space="preserve">
<style type="text/css">
	.st0{fill:#E6E6E6;}
	.st1{fill:#FFFFFF;}
	.st2{fill:url(#SVGID_1_);}
	.st3{fill:url(#SVGID_2_);}
	.st4{fill:url(#SVGID_3_);}
	.st5{fill:#FFB8B8;}
	.st6{fill:url(#SVGID_4_);}
	.st7{fill:url(#SVGID_5_);}
	.st8{fill:#2F2E41;}
	.st9{fill:url(#SVGID_6_);}
	.st10{fill:url(#SVGID_7_);}
	.st11{fill:url(#SVGID_8_);}
	.st12{fill:url(#SVGID_9_);}
	.st13{fill:url(#SVGID_10_);}
	.st14{fill:url(#SVGID_11_);}
	.st15{fill:url(#SVGID_12_);}
	.st16{fill:url(#SVGID_13_);}
	.st17{fill:#CCCCCC;}
</style>
<title>pantau</title>
<rect x="0.3" y="0.4" class="st0" width="643.9" height="412.4"/>
<rect x="18.7" y="52.1" class="st1" width="607" height="336.2"/>
<linearGradient id="SVGID_1_" gradientUnits="userSpaceOnUse" x1="0" y1="546.325" x2="643.86" y2="546.325" gradientTransform="matrix(1 0 0 -1 0 560)">
	<stop  offset="0" style="stop-color:#65CCF2"/>
	<stop  offset="1" style="stop-color:#4959A7"/>
</linearGradient>
<rect class="st2" width="643.9" height="27.4"/>
<circle class="st1" cx="20.3" cy="14" r="5.1"/>
<circle class="st1" cx="39.6" cy="14" r="5.1"/>
<circle class="st1" cx="58.8" cy="14" r="5.1"/>
<rect x="73.8" y="87" class="st0" width="156" height="266.5"/>
<linearGradient id="SVGID_2_" gradientUnits="userSpaceOnUse" x1="321.74" y1="473.03" x2="321.74" y2="399.68" gradientTransform="matrix(1 0 0 -1 0 560)">
	<stop  offset="0" style="stop-color:#65CCF2"/>
	<stop  offset="1" style="stop-color:#4959A7"/>
</linearGradient>
<rect x="256.8" y="87" class="st3" width="130" height="73.4"/>
<rect x="256.8" y="180.8" class="st0" width="130" height="78.9"/>
<rect x="256.8" y="280.1" class="st0" width="130" height="73.4"/>
<rect x="414.6" y="87" class="st0" width="156" height="116.1"/>
<rect x="414.6" y="237.3" class="st0" width="156" height="116.1"/>
<linearGradient id="SVGID_3_" gradientUnits="userSpaceOnUse" x1="543.98" y1="407.028" x2="543.98" y2="344.06" gradientTransform="matrix(1 0 0 -1 0 560)">
	<stop  offset="0" style="stop-color:#2A3780"/>
	<stop  offset="8.000000e-02" style="stop-color:#262F73"/>
	<stop  offset="0.26" style="stop-color:#1F215D"/>
	<stop  offset="0.45" style="stop-color:#1B184E"/>
	<stop  offset="0.68" style="stop-color:#181245"/>
	<stop  offset="1" style="stop-color:#171042"/>
</linearGradient>
<path class="st4" d="M510.5,211.4v-25c0-18.5,15-33.5,33.5-33.5c18.5,0,33.5,15,33.5,33.5l0,0v25c0,2.5-2,4.5-4.5,4.5h-58
	C512.5,215.9,510.5,213.9,510.5,211.4C510.5,211.4,510.5,211.4,510.5,211.4z"/>
<polygon class="st5" points="593.5,536.8 581.7,540.1 563.5,496 580.9,491.2 "/>
<linearGradient id="SVGID_4_" gradientUnits="userSpaceOnUse" x1="580.2723" y1="27.31" x2="580.2723" y2="2.68" gradientTransform="matrix(1 0 0 -1 0 560)">
	<stop  offset="0" style="stop-color:#2A3780"/>
	<stop  offset="8.000000e-02" style="stop-color:#262F73"/>
	<stop  offset="0.26" style="stop-color:#1F215D"/>
	<stop  offset="0.45" style="stop-color:#1B184E"/>
	<stop  offset="0.68" style="stop-color:#181245"/>
	<stop  offset="1" style="stop-color:#171042"/>
</linearGradient>
<path class="st6" d="M572.3,539l22.8-6.3l0,0l4,14.3l0,0L562,557.3l0,0C559.8,549.4,564.4,541.2,572.3,539z"/>
<polygon class="st5" points="470.3,545.9 458.1,545.9 452.2,498.6 470.3,498.6 "/>
<linearGradient id="SVGID_5_" gradientUnits="userSpaceOnUse" x1="453.71" y1="17.63" x2="453.71" y2="2.74" gradientTransform="matrix(1 0 0 -1 0 560)">
	<stop  offset="0" style="stop-color:#2A3780"/>
	<stop  offset="8.000000e-02" style="stop-color:#262F73"/>
	<stop  offset="0.26" style="stop-color:#1F215D"/>
	<stop  offset="0.45" style="stop-color:#1B184E"/>
	<stop  offset="0.68" style="stop-color:#181245"/>
	<stop  offset="1" style="stop-color:#171042"/>
</linearGradient>
<path class="st7" d="M449.3,542.4H473v14.9h-38.6C434.4,549,441.1,542.4,449.3,542.4z"/>
<path class="st5" d="M455.5,281.6c3.3,4.5,9.6,5.4,14.1,2.1c0.5-0.4,0.9-0.7,1.3-1.2l32.6,14.7l-3-18.3L470,267.7
	c-4.3-3.6-10.7-3-14.2,1.4C452.8,272.7,452.7,277.9,455.5,281.6L455.5,281.6z"/>
<path class="st8" d="M523.3,391.8c-10.2,0-20.8-1.5-29.8-6.1c-9.6-4.8-16.7-13.3-19.7-23.6c-4.6-14.7,1.2-29.1,6.9-43.1
	c3.5-8.6,6.8-16.8,7.7-24.9l0.3-2.9c1.3-12.9,2.5-23.9,8.9-28.1c3.3-2.2,7.8-2.3,13.6-0.4l55,17.9l-2,104.5l-0.3,0.1
	C563.6,385.5,544.2,391.8,523.3,391.8z"/>
<linearGradient id="SVGID_6_" gradientUnits="userSpaceOnUse" x1="525.9689" y1="335.3231" x2="525.9689" y2="235.3859" gradientTransform="matrix(1 0 0 -1 0 560)">
	<stop  offset="0" style="stop-color:#2A3780"/>
	<stop  offset="1" style="stop-color:#171042"/>
</linearGradient>
<path class="st9" d="M510.2,230.4c0,0,27-8,48-5c0,0-12,66-8,88s-69.5,8.5-54.5-12.5l5-25c0,0-10-10-1-22L510.2,230.4z"/>
<linearGradient id="SVGID_7_" gradientUnits="userSpaceOnUse" x1="492.655" y1="333.24" x2="492.655" y2="170.14" gradientTransform="matrix(1 0 0 -1 0 560)">
	<stop  offset="0" style="stop-color:#F8ED49"/>
	<stop  offset="0.66" style="stop-color:#E47A58"/>
	<stop  offset="1" style="stop-color:#D93C66"/>
</linearGradient>
<path class="st10" d="M497,389.9l-33.3-6.2l11.6-89.4c0.8-2.5,18.8-59.1,27-62.2c5.9-2.1,12-3.7,18.2-5l1.2-0.2l-6.7,10l-26.6,63.7
	L497,389.9z"/>
<linearGradient id="SVGID_8_" gradientUnits="userSpaceOnUse" x1="523.73" y1="265.51" x2="523.73" y2="25.08" gradientTransform="matrix(1 0 0 -1 0 560)">
	<stop  offset="0" style="stop-color:#F8ED49"/>
	<stop  offset="0.66" style="stop-color:#E47A58"/>
	<stop  offset="1" style="stop-color:#D93C66"/>
</linearGradient>
<path class="st11" d="M479.6,534.9l-43-7.2l24.1-98.5l35.9-134.7l0.4,2.4c0,0.2,3.4,17.8,53.2,10l0.4-0.1l0.1,0.4l60.2,212.5
	l-49,8.2l-44.7-155.1L479.6,534.9z"/>
<linearGradient id="SVGID_9_" gradientUnits="userSpaceOnUse" x1="565.305" y1="336.476" x2="565.305" y2="153.41" gradientTransform="matrix(1 0 0 -1 0 560)">
	<stop  offset="0" style="stop-color:#F8ED49"/>
	<stop  offset="0.66" style="stop-color:#E47A58"/>
	<stop  offset="1" style="stop-color:#D93C66"/>
</linearGradient>
<path class="st12" d="M539.2,406.6v-0.8c0-0.8,3-84.4,2-118s9.9-62.9,10-63.2l0.1-0.2l0.2-0.1c14.1-4,26.4,8,26.5,8.1l0.2,0.2
	l-4,33.2l17.2,120.6L539.2,406.6z"/>
<circle class="st5" cx="537.1" cy="190.8" r="24.6"/>
<linearGradient id="SVGID_10_" gradientUnits="userSpaceOnUse" x1="533.815" y1="220.65" x2="533.815" y2="161.94">
	<stop  offset="0" style="stop-color:#2A3780"/>
	<stop  offset="8.000000e-02" style="stop-color:#262F73"/>
	<stop  offset="0.26" style="stop-color:#1F215D"/>
	<stop  offset="0.45" style="stop-color:#1B184E"/>
	<stop  offset="0.68" style="stop-color:#181245"/>
	<stop  offset="1" style="stop-color:#171042"/>
</linearGradient>
<path class="st13" d="M555.6,173c-4.8-6.7-12.7-11.1-21.5-11.1h-5c-14.6,0-26.5,11.9-26.5,26.5v0.5H538l0.4-5.1l1.8,5.1h1.8
	c-0.2,9.1-4.4,18.8-7.7,25.1c-0.8,1.5-0.7,3.3,0.3,4.7c0.8,1.2,2.2,1.9,3.6,1.9c0.3,0,0.5,0,0.8-0.1l26-4.6v-43H555.6z"/>
<linearGradient id="SVGID_11_" gradientUnits="userSpaceOnUse" x1="197.5332" y1="363.3097" x2="613.3276" y2="363.3097" gradientTransform="matrix(1 0 0 -1 0 560)">
	<stop  offset="0" style="stop-color:#2A3780"/>
	<stop  offset="1" style="stop-color:#171042"/>
</linearGradient>
<path class="st14" d="M419.6,41.5c-57-48.1-142.2-40.8-190.2,16.1s-40.8,142.2,16.1,190.2c53.3,45,132.1,41.9,181.7-7l165.6,139.8
	c5.2,4.4,13.1,3.8,17.5-1.5c4.4-5.2,3.8-13.1-1.5-17.5l0,0l0,0L443.3,221.9C483.2,164.7,472.9,86.5,419.6,41.5z M408.9,208.5
	c-36,42.7-99.8,48.1-142.6,12.1S218.2,120.7,254.3,78s99.8-48.1,142.6-12.1c0,0,0,0,0,0l0,0C439.5,102,444.9,165.8,408.9,208.5z"/>
<linearGradient id="SVGID_12_" gradientUnits="userSpaceOnUse" x1="311.3472" y1="84.55" x2="311.3472" y2="257.4554">
	<stop  offset="0" style="stop-color:#2A3780"/>
	<stop  offset="0.2252" style="stop-color:#232868"/>
	<stop  offset="0.4925" style="stop-color:#1C1B53"/>
	<stop  offset="0.7538" style="stop-color:#181346"/>
	<stop  offset="1" style="stop-color:#171042"/>
</linearGradient>
<path class="st15" d="M266.4,220.6c-40.2-34-47.7-93.1-17.2-136c-1.9,1.9-3.8,4-5.6,6.1c-36.2,42.5-31.2,106.4,11.4,142.6
	s106.4,31.2,142.6-11.4c0.2-0.3,0.4-0.5,0.6-0.8c1.8-2.1,3.5-4.3,5.1-6.6C366.2,251.9,306.6,254.5,266.4,220.6z"/>
<path class="st5" d="M545,324.5c5.4,1.3,10.8-2,12.2-7.4c0.1-0.6,0.2-1.2,0.3-1.7l34.4-9.6l-14-12.2l-30.5,11
	c-5.6,0-10.1,4.6-10,10.2C537.3,319.4,540.5,323.5,545,324.5z"/>
<linearGradient id="SVGID_13_" gradientUnits="userSpaceOnUse" x1="585.215" y1="327.77" x2="585.215" y2="240.52" gradientTransform="matrix(1 0 0 -1 0 560)">
	<stop  offset="0" style="stop-color:#F8ED49"/>
	<stop  offset="0.66" style="stop-color:#E47A58"/>
	<stop  offset="1" style="stop-color:#D93C66"/>
</linearGradient>
<path class="st16" d="M559.3,319.5l-2.1-19.9l28.8-15.9L567.2,261l3.1-25.5l7.6-3.3l0.2,0.3c3.6,4.6,35.1,45.3,35.1,50.3
	s-6,20.3-14.3,24.5c-8,4-37.8,11.7-39.1,12L559.3,319.5z"/>
<path class="st17" d="M708.5,558.6h-381c-0.6,0-1-0.4-1-1s0.4-1,1-1h381c0.6,0,1,0.4,1,1S709.1,558.6,708.5,558.6z"/>
</svg>
