<svg id="Layer_1" data-name="Layer 1" xmlns="http://www.w3.org/2000/svg" xmlns:xlink="http://www.w3.org/1999/xlink" viewBox="0 0 868.98 474.71"><defs><style>.cls-1{fill:#f2f2f2;}.cls-2{fill:url(#linear-gradient);}.cls-3{fill:#ffb7b7;}.cls-4{fill:url(#linear-gradient-2);}.cls-5{fill:url(#linear-gradient-3);}.cls-6{fill:url(#linear-gradient-4);}.cls-7{fill:url(#linear-gradient-5);}.cls-8{fill:url(#linear-gradient-6);}.cls-9{fill:url(#linear-gradient-7);}.cls-10{fill:#fff;}.cls-11{fill:url(#linear-gradient-8);}.cls-12{fill:#1c1951;}.cls-13{fill:#f1f1f1;}.cls-14{fill:url(#linear-gradient-9);}.cls-15{fill:url(#linear-gradient-10);}.cls-16{opacity:0.1;isolation:isolate;}.cls-17{fill:url(#linear-gradient-11);}.cls-18{fill:url(#linear-gradient-12);}.cls-19{fill:url(#linear-gradient-13);}.cls-20{fill:#cbcbcb;}.cls-21{fill:url(#linear-gradient-14);}</style><linearGradient id="linear-gradient" x1="204.88" y1="52.19" x2="204.88" y2="110.19" gradientUnits="userSpaceOnUse"><stop offset="0" stop-color="#2a3780"/><stop offset="0.09" stop-color="#252d71"/><stop offset="0.26" stop-color="#1f205c"/><stop offset="0.44" stop-color="#1a174d"/><stop offset="0.66" stop-color="#181245"/><stop offset="1" stop-color="#171042"/></linearGradient><linearGradient id="linear-gradient-2" x1="240.26" y1="166.49" x2="240.26" y2="126.44" gradientUnits="userSpaceOnUse"><stop offset="0" stop-color="#ca246d"/><stop offset="1" stop-color="#4c286e"/></linearGradient><linearGradient id="linear-gradient-3" x1="257.93" y1="456.26" x2="257.93" y2="472.15" gradientUnits="userSpaceOnUse"><stop offset="0" stop-color="#2a3780"/><stop offset="1" stop-color="#171042"/></linearGradient><linearGradient id="linear-gradient-4" x1="173.93" y1="456.26" x2="173.93" y2="472.15" xlink:href="#linear-gradient-3"/><linearGradient id="linear-gradient-5" x1="209.22" y1="120.73" x2="209.22" y2="435.5" xlink:href="#linear-gradient-3"/><linearGradient id="linear-gradient-6" x1="186.95" y1="168.35" x2="186.95" y2="127.68" xlink:href="#linear-gradient-2"/><linearGradient id="linear-gradient-7" x1="574.09" y1="383.67" x2="574.09" y2="76.58" gradientUnits="userSpaceOnUse"><stop offset="0" stop-color="#65ccf2"/><stop offset="1" stop-color="#4959a7"/></linearGradient><linearGradient id="linear-gradient-8" x1="578.72" y1="413.96" x2="578.72" y2="369.43" xlink:href="#linear-gradient-7"/><linearGradient id="linear-gradient-9" x1="617.63" y1="272.01" x2="623.75" y2="272.01" gradientUnits="userSpaceOnUse"><stop offset="0" stop-color="#f8ed49"/><stop offset="0.66" stop-color="#e47a58"/><stop offset="1" stop-color="#d93c66"/></linearGradient><linearGradient id="linear-gradient-10" x1="775.06" y1="-0.04" x2="775.06" y2="181.24" xlink:href="#linear-gradient-9"/><linearGradient id="linear-gradient-11" x1="757.23" y1="73.6" x2="757.23" y2="79.07" xlink:href="#linear-gradient-9"/><linearGradient id="linear-gradient-12" x1="779.12" y1="92.53" x2="779.12" y2="98" xlink:href="#linear-gradient-9"/><linearGradient id="linear-gradient-13" x1="779.07" y1="111.46" x2="779.07" y2="116.93" xlink:href="#linear-gradient-9"/><linearGradient id="linear-gradient-14" x1="212.66" y1="60.82" x2="212.66" y2="86.75" xlink:href="#linear-gradient"/></defs><title>pelayanan</title><path class="cls-1" d="M47.46,432.28C28.94,448.07,25.1,474,25.1,474s26.18.3,44.7-15.49,22.36-41.69,22.36-41.69S66,416.49,47.46,432.28Z" transform="translate(0 0.04)"/><path class="cls-1" d="M56,438.56c-7.89,23-30.57,36.11-30.57,36.11s-9.89-24.24-2-47.26S54,391.3,54,391.3,63.9,415.54,56,438.56Z" transform="translate(0 0.04)"/><path class="cls-2" d="M249.3,98c-4.19-5.43-10.11-10.45-10.49-17.15-.34-6.14,4.24-12.24,2.31-18.12-1.49-4.52-6.39-7.25-11.18-8.69A43.44,43.44,0,0,0,202,55.07l.48-.34c-5.45-1.94-11.83.06-16.11,3.78s-6.84,8.86-8.82,14S174.07,83,171.32,87.86s-7,9.23-12.51,10.9c1.86,3.71,7.67,5,11.08,2.42a14,14,0,0,0,2.33-2.41L179,90.49c2.34,4.16-1.16,9.9,1.72,13.75,1.48,2,4.19,2.74,6.7,3.28a121.28,121.28,0,0,0,59.33-2.2c1.55-.46,3.26-1.09,3.9-2.49C251.44,101.21,250.4,99.39,249.3,98Z" transform="translate(0 0.04)"/><path class="cls-3" d="M305,119.15a10.53,10.53,0,0,0-.24,1.64l-43,24.78-10.44-6-11.13,14.57,17.45,12.44a8,8,0,0,0,9.6-.23l44.3-34.95A10.5,10.5,0,1,0,305,119.15Z" transform="translate(0 0.04)"/><path class="cls-4" d="M260.4,146.74l-13.88,18a4.5,4.5,0,0,1-6.8.37L224,148.79A12.5,12.5,0,0,1,239.32,129l19.71,11a4.5,4.5,0,0,1,1.37,6.68Z" transform="translate(0 0.04)"/><polygon class="cls-3" points="241.29 460.31 253.55 460.31 259.38 413.02 241.29 413.02 241.29 460.31"/><path class="cls-5" d="M238.16,456.26h24.15a15.39,15.39,0,0,1,15.39,15.39v.5H238.16Z" transform="translate(0 0.04)"/><polygon class="cls-3" points="157.29 460.31 169.55 460.31 175.38 413.02 157.29 413.02 157.29 460.31"/><path class="cls-6" d="M154.16,456.26h24.15a15.39,15.39,0,0,1,15.39,15.39v.5H154.16Z" transform="translate(0 0.04)"/><circle class="cls-3" cx="212.86" cy="88.96" r="21.19" transform="translate(101.2 290.89) rotate(-83.74)"/><path class="cls-7" d="M225.26,120.73l12.48,6.18s13.95,24.24,5.95,47.24c-3.88,11.17,7.05,46.76,7.05,46.76s16.95,161.24,17,211c-21.05,3.24-41.05,7.24-42.05-2.76s-11.95-128.24-11.95-128.24-15.05,131.24-27.05,133.24-36-1-36-1,19.05-192.24,32.05-204.24l2-10-.05-89.76,15-7.15Z" transform="translate(0 0.04)"/><path class="cls-3" d="M180.61,257a10.74,10.74,0,0,0,3.29-16.14l14.52-96.76-19-.91-11.32,96.36A10.8,10.8,0,0,0,180.61,257Z" transform="translate(0 0.04)"/><path class="cls-8" d="M198,168.34l-22.68-1.43a4.5,4.5,0,0,1-4.12-5.43l4.73-22.16A12.5,12.5,0,0,1,200.87,141l1.9,22.51a4.5,4.5,0,0,1-4.77,4.87Z" transform="translate(0 0.04)"/><path class="cls-9" d="M824.89,76.58H323.29a13.81,13.81,0,0,0-13.81,13.81V369.87a13.81,13.81,0,0,0,13.81,13.81H824.89a13.81,13.81,0,0,0,13.81-13.81V90.39a13.81,13.81,0,0,0-13.81-13.81h0Z" transform="translate(0 0.04)"/><rect class="cls-10" x="328" y="101.03" width="492.19" height="277.64"/><circle class="cls-10" cx="573.67" cy="88.41" r="5.05"/><polygon class="cls-1" points="679.42 378.67 328 378.67 328 101.03 679.42 378.67"/><path class="cls-11" d="M852.51,373.58h-48v-3.46a.69.69,0,0,0-.69-.69H787.32a.69.69,0,0,0-.69.69h0v3.46H776.34v-3.46a.69.69,0,0,0-.69-.69H759.19a.69.69,0,0,0-.69.69h0v3.46H748.21v-3.46a.69.69,0,0,0-.69-.69H731.05a.69.69,0,0,0-.69.69h0v3.46H720.07v-3.46a.69.69,0,0,0-.69-.69H702.92a.69.69,0,0,0-.69.69h0v3.46H691.94v-3.46a.69.69,0,0,0-.69-.69H674.78a.69.69,0,0,0-.69.69h0v3.46H663.81v-3.46a.69.69,0,0,0-.69-.69H646.65a.69.69,0,0,0-.69.69h0v3.46H635.67v-3.46a.69.69,0,0,0-.69-.69H506a.69.69,0,0,0-.69.69h0v3.46H495v-3.46a.69.69,0,0,0-.69-.69H477.84a.69.69,0,0,0-.69.69h0v3.46H466.87v-3.46a.69.69,0,0,0-.69-.69H449.71a.69.69,0,0,0-.69.69h0v3.46H438.73v-3.46a.69.69,0,0,0-.69-.69H421.58a.69.69,0,0,0-.69.69h0v3.46H410.6v-3.46a.69.69,0,0,0-.69-.69H393.44a.69.69,0,0,0-.69.69h0v3.46H382.46v-3.46a.69.69,0,0,0-.69-.69H365.31a.69.69,0,0,0-.69.69v3.46H354.33v-3.46a.69.69,0,0,0-.69-.69H337.17a.69.69,0,0,0-.69.69h0v3.46H304.92A16.47,16.47,0,0,0,288.45,390v7.45A16.47,16.47,0,0,0,304.92,414H852.51A16.47,16.47,0,0,0,869,397.49V390a16.47,16.47,0,0,0-16.47-16.47Z" transform="translate(0 0.04)"/><path class="cls-12" d="M583.56,342.22a12.08,12.08,0,0,1-.55,1.14,14.56,14.56,0,0,1-27.38-6.92v-2.35h2A50.94,50.94,0,0,0,583.56,342.22Z" transform="translate(0 0.04)"/><path class="cls-12" d="M612,334.78v1.66a14.56,14.56,0,0,1-27.34,7,12.15,12.15,0,0,1-.58-1.17l1.27,0A51,51,0,0,0,612,334.78Z" transform="translate(0 0.04)"/><path class="cls-12" d="M631.64,159c-.44-.06-.88-.11-1.32-.13a49,49,0,0,1,1,36.58c.44-.05.88-.12,1.32-.2a18.37,18.37,0,0,0-1-36.24Z" transform="translate(0 0.04)"/><path class="cls-12" d="M540.42,158.86c-.44,0-.89.07-1.32.13a18.37,18.37,0,0,0-1,36.24c.44.08.87.15,1.32.2a49,49,0,0,1,1-36.58Z" transform="translate(0 0.04)"/><path class="cls-12" d="M631.64,159a50.16,50.16,0,1,0,3.89,19.36A50.16,50.16,0,0,0,631.64,159Zm-.35,36.44a49,49,0,1,1,3.07-17.08A49,49,0,0,1,631.29,195.43Z" transform="translate(0 0.04)"/><path class="cls-12" d="M611,167H559.71a10.21,10.21,0,0,0,0,20.41H611A10.21,10.21,0,0,0,611,167Z" transform="translate(0 0.04)"/><path class="cls-12" d="M631.29,265.52q-.28-.52-.58-1l0,0A52.47,52.47,0,1,0,583,343.36c.55,0,1.11,0,1.67,0h.69A52.11,52.11,0,0,0,612,336.14a52.84,52.84,0,0,0,20.38-21.9l0,0c.18-.35.34-.71.51-1.07a52.42,52.42,0,0,0-1.64-47.62Zm.5,47.3q-.25.54-.52,1.07A51.69,51.69,0,0,1,612,334.78a51,51,0,0,1-26.65,7.48l-1.27,0-.54,0a51.33,51.33,0,1,1,46-77.42l0,0c.2.33.4.67.59,1a51.26,51.26,0,0,1,1.66,47Z" transform="translate(0 0.04)"/><path class="cls-12" d="M625.72,267.07a6.07,6.07,0,0,0-3.5-1.13H599.28a6,6,0,1,0,0,12.05h22.95a6,6,0,0,0,1.22-.12,6.62,6.62,0,0,0,1.17-.37,6,6,0,0,0,1.11-10.43Z" transform="translate(0 0.04)"/><circle class="cls-13" cx="600.8" cy="272.01" r="3.06"/><circle class="cls-13" cx="610.74" cy="272.01" r="3.06"/><circle class="cls-14" cx="620.69" cy="272.01" r="3.06"/><path class="cls-10" d="M735.9,171.15c-8,4.77-22.13,10.75-36.61,4.61l-9.36-4,18.76-21a89.6,89.6,0,1,1,27.21,20.4Z" transform="translate(0 0.04)"/><path class="cls-15" d="M735.95,172.29c-7.64,4.49-22.21,10.69-37.05,4.39l-10.65-4.52,19.09-21.4a90.6,90.6,0,1,1,128.58,6.91h0a90.2,90.2,0,0,1-100,14.61ZM840.69,31A88.6,88.6,0,1,0,709.37,150l.05.06.6.67L691.6,171.41l8.08,3.43c14.34,6.08,28.53-.24,35.71-4.54l.46-.28.49.24A88.6,88.6,0,0,0,840.69,31Z" transform="translate(0 0.04)"/><path class="cls-16" d="M850.7,90A82.46,82.46,0,0,0,775.53,7.87c2.4-.21,4.83-.32,7.29-.32a82.46,82.46,0,0,1,0,164.91c-2.45,0-4.88-.12-7.28-.33A82.46,82.46,0,0,0,850.7,90Z" transform="translate(0 0.04)"/><rect class="cls-17" x="727.77" y="73.6" width="58.92" height="5.47"/><rect class="cls-18" x="727.77" y="92.53" width="102.69" height="5.47"/><rect class="cls-19" x="727.77" y="111.46" width="102.59" height="5.47"/><path class="cls-20" d="M382,473.19H1a1,1,0,0,1,0-2H382a1,1,0,0,1,0,2Z" transform="translate(0 0.04)"/><path class="cls-21" d="M235.07,75.19c-.83-3.75-3.51-6.85-6.6-9.12a27,27,0,0,0-34.54,2.1,17.65,17.65,0,0,0-5.33,8.55,10.49,10.49,0,0,0,2.23,9.55l.42.27c-.38-1.63.88-3.25,2.39-4a19.11,19.11,0,0,1,4.88-1.09,17.93,17.93,0,0,0,12.16-8.58A20.25,20.25,0,0,0,222.3,85c2.8,1.1,10.49,2.6,13.16,1.21C238.85,84.42,235.9,78.94,235.07,75.19Z" transform="translate(0 0.04)"/></svg>