<svg id="Layer_1" data-name="Layer 1" xmlns="http://www.w3.org/2000/svg" xmlns:xlink="http://www.w3.org/1999/xlink" viewBox="0 0 856.12 674"><defs><style>.cls-1{fill:url(#linear-gradient);}.cls-2{fill:#fff;}.cls-3{fill:url(#linear-gradient-2);}.cls-4{fill:#3f3d56;}.cls-5{fill:#e6e6e6;}.cls-6{fill:#ffb8b8;}.cls-7{fill:url(#linear-gradient-3);}.cls-8{fill:url(#linear-gradient-4);}.cls-9{fill:url(#linear-gradient-5);}.cls-10{fill:url(#linear-gradient-6);}.cls-11{fill:url(#linear-gradient-7);}</style><linearGradient id="linear-gradient" x1="260.66" x2="260.66" y2="644.41" gradientUnits="userSpaceOnUse"><stop offset="0" stop-color="#65ccf2"/><stop offset="0.13" stop-color="#5daadc"/><stop offset="0.27" stop-color="#568dc9"/><stop offset="0.42" stop-color="#5076ba"/><stop offset="0.58" stop-color="#4c66af"/><stop offset="0.76" stop-color="#4a5ca9"/><stop offset="1" stop-color="#4959a7"/></linearGradient><linearGradient id="linear-gradient-2" x1="132.64" y1="414.91" x2="385.33" y2="414.91" gradientUnits="userSpaceOnUse"><stop offset="0" stop-color="#ca246d"/><stop offset="1" stop-color="#4c286e"/></linearGradient><linearGradient id="linear-gradient-3" x1="617.17" y1="665.36" x2="655.7" y2="665.36" gradientUnits="userSpaceOnUse"><stop offset="0" stop-color="#2a3780"/><stop offset="1" stop-color="#171042"/></linearGradient><linearGradient id="linear-gradient-4" x1="678.17" y1="665.36" x2="716.7" y2="665.36" xlink:href="#linear-gradient-3"/><linearGradient id="linear-gradient-5" x1="669.07" y1="349.39" x2="669.07" y2="486.25" xlink:href="#linear-gradient-2"/><linearGradient id="linear-gradient-6" x1="673.16" y1="480.75" x2="673.16" y2="646.75" gradientUnits="userSpaceOnUse"><stop offset="0" stop-color="#f8ed49"/><stop offset="0.66" stop-color="#e47a58"/><stop offset="1" stop-color="#d93c66"/></linearGradient><linearGradient id="linear-gradient-7" x1="669.8" y1="279.88" x2="669.8" y2="337.25" gradientUnits="userSpaceOnUse"><stop offset="0" stop-color="#2a3780"/><stop offset="0.01" stop-color="#2a367f"/><stop offset="0.25" stop-color="#212564"/><stop offset="0.49" stop-color="#1c1951"/><stop offset="0.74" stop-color="#181246"/><stop offset="1" stop-color="#171042"/></linearGradient></defs><title>pembayaran1</title><path class="cls-1" d="M421.32,153.14h-3.54v-97A56.14,56.14,0,0,0,361.64,0H156.14A56.14,56.14,0,0,0,100,56.14h0V588.27a56.14,56.14,0,0,0,56.14,56.14h205.5a56.14,56.14,0,0,0,56.14-56.14h0V222.18h3.54Z"/><path class="cls-2" d="M363.49,15.93H336.66a19.92,19.92,0,0,1-18.44,27.44H200.49a19.92,19.92,0,0,1-18.44-27.44H157a41.92,41.92,0,0,0-41.92,41.92V589.21A41.92,41.92,0,0,0,157,631.13H363.49a41.92,41.92,0,0,0,41.92-41.92V57.86a41.92,41.92,0,0,0-41.92-41.92h0ZM359,262.43a10.89,10.89,0,0,1-10.86,10.86H295.64a10.89,10.89,0,0,1-10.86-10.86v-2.71a10.89,10.89,0,0,1,10.86-10.86h52.49A10.89,10.89,0,0,1,359,259.72Zm5.88-48A10.89,10.89,0,0,1,354,225.33H165.78a10.89,10.89,0,0,1-10.86-10.86v-2.71a10.89,10.89,0,0,1,10.86-10.86H354a10.89,10.89,0,0,1,10.86,10.86Zm0-48A10.89,10.89,0,0,1,354,177.37H165.78a10.89,10.89,0,0,1-10.86-10.86v-2.71a10.89,10.89,0,0,1,10.86-10.86H354a10.89,10.89,0,0,1,10.86,10.86Zm0-48A10.89,10.89,0,0,1,354,129.41H165.78a10.89,10.89,0,0,1-10.86-10.86v-2.71A10.89,10.89,0,0,1,165.78,105H354a10.89,10.89,0,0,1,10.86,10.86Z"/><circle class="cls-2" cx="169.85" cy="213.56" r="6.33"/><circle class="cls-2" cx="190.66" cy="213.56" r="6.33"/><circle class="cls-2" cx="211.48" cy="213.56" r="6.33"/><circle class="cls-2" cx="232.29" cy="213.56" r="6.33"/><circle class="cls-2" cx="300.16" cy="261.53" r="6.33"/><circle class="cls-2" cx="320.97" cy="261.53" r="6.33"/><circle class="cls-2" cx="341.79" cy="261.53" r="6.33"/><path class="cls-3" d="M366.32,343.6H151.65a19,19,0,0,0-19,19V467.21a19,19,0,0,0,19,19H366.32a19,19,0,0,0,19-19V362.62a19,19,0,0,0-19-19Zm-220,13c.42-.08,10.48-1.79,18.8,3.22s11.52,14.69,11.65,15.1l.34,1-1.08.19a28.67,28.67,0,0,1-4.66.34,27.74,27.74,0,0,1-14.14-3.56c-8.32-5-11.52-14.69-11.65-15.1l-.34-1Zm46.6,97.11H154.65a10.53,10.53,0,0,1,0-21.06h38.29a10.53,10.53,0,0,1,0,21.06Zm174.21-1.91a11.52,11.52,0,0,1-11.49,11.49H326.95a11.52,11.52,0,0,1-11.49-11.49V434.53A11.52,11.52,0,0,1,326.95,423h28.72a11.52,11.52,0,0,1,11.49,11.49Z"/><path class="cls-4" d="M336.2,448.21H324.66a3.11,3.11,0,1,0,0,6.22H336.2a3.11,3.11,0,0,0,0-6.22Z"/><path class="cls-4" d="M357.52,448.21H346a3.11,3.11,0,0,0,0,6.22h11.55a3.11,3.11,0,0,0,0-6.22Z"/><path class="cls-4" d="M336.2,439.44H324.66a3.11,3.11,0,1,0,0,6.22H336.2a3.11,3.11,0,1,0,0-6.22Z"/><path class="cls-4" d="M357.52,439.44H346a3.11,3.11,0,0,0,0,6.22h11.55a3.11,3.11,0,0,0,0-6.22Z"/><path class="cls-4" d="M336.2,430.84H324.66a3.11,3.11,0,1,0,0,6.22H336.2a3.11,3.11,0,1,0,0-6.22Z"/><path class="cls-4" d="M357.52,430.84H346a3.11,3.11,0,0,0,0,6.22h11.55a3.11,3.11,0,0,0,0-6.22Z"/><rect class="cls-5" x="487" y="383" width="28" height="28"/><path class="cls-4" d="M454,400h46v46H454Zm44,2H456v42h42Z"/><rect class="cls-5" y="152" width="28" height="28"/><path class="cls-4" d="M61,163H15V117H61Zm-44-2H59V119H17Z"/><polygon class="cls-6" points="653.08 661.42 640.82 661.42 634.99 614.13 653.08 614.13 653.08 661.42"/><path class="cls-7" d="M632.06,657.91H655.7V672.8H617.17A14.89,14.89,0,0,1,632.06,657.91Z"/><polygon class="cls-6" points="714.08 661.42 701.82 661.42 695.99 614.13 714.08 614.13 714.08 661.42"/><path class="cls-8" d="M693.06,657.91H716.7V672.8H678.17A14.89,14.89,0,0,1,693.06,657.91Z"/><path class="cls-6" d="M591.58,492.3a10.74,10.74,0,0,1,4.51-15.84l41.68-114.87,20.51,11.19L610.68,482.56a10.8,10.8,0,0,1-19.11,9.75Z"/><path class="cls-6" d="M707.81,513.89a10.74,10.74,0,0,1-2.89-16.22L692,376.16l23.34,1.07,5.37,119.52a10.8,10.8,0,0,1-12.9,17.14Z"/><circle class="cls-6" cx="670.58" cy="315.76" r="24.56"/><path class="cls-9" d="M723.64,416.65l-7.53-42.93c-1.18-6.73-5.89-11.82-11.48-13.17-22-18.06-47.77-10.26-61.29-3.9h0a11.85,11.85,0,0,0-1.94,1.16,14,14,0,0,0-11.27,10.27l-15.63,37,26.23,5.32c-.78,34.34-6.93,74.64-7,75.23l-.09.58h74l5.06-67Z"/><path class="cls-10" d="M705.19,480.75c11.91,45.38,13.21,103.07,10,166l-16-2-29-120-16,122-18-1c-5.38-66-10.61-122.72-2-160Z"/><path class="cls-11" d="M686.77,334.74c-4.58,4.88-13.09,2.26-13.69-4.41a8.05,8.05,0,0,1,0-1.56c.31-3,2-5.64,1.61-8.75a4.59,4.59,0,0,0-.84-2.15c-3.65-4.89-12.22,2.19-15.67-2.24-2.11-2.71.37-7-1.25-10-2.14-4-8.48-2-12.45-4.22-4.42-2.44-4.16-9.23-1.25-13.35,3.55-5,9.78-7.72,15.92-8.11s12.25,1.27,18,3.51c6.52,2.54,13,6.05,17,11.79,4.88,7,5.35,16.35,2.91,24.5C695.58,324.69,690.51,330.75,686.77,334.74Z"/><path class="cls-4" d="M855.12,674h-381a1,1,0,0,1,0-2h381a1,1,0,1,1,0,2Z"/></svg>