<svg id="Layer_1" data-name="Layer 1" xmlns="http://www.w3.org/2000/svg" xmlns:xlink="http://www.w3.org/1999/xlink" viewBox="0 0 773.98 419.06"><defs><style>.cls-1{fill:#f2f2f2;}.cls-2{fill:url(#linear-gradient);}.cls-3{fill:#fff;}.cls-4{fill:#3f3d56;}.cls-5{fill:url(#linear-gradient-2);}.cls-6{fill:url(#linear-gradient-3);}.cls-7{fill:#ffb8b8;}.cls-8{fill:#19154a;}.cls-9{fill:url(#linear-gradient-4);}.cls-10{fill:url(#linear-gradient-5);}.cls-11{fill:url(#linear-gradient-6);}.cls-12{opacity:0.2;isolation:isolate;}.cls-13{fill:url(#linear-gradient-7);}.cls-14{fill:url(#linear-gradient-8);}.cls-15{fill:url(#linear-gradient-9);}.cls-16{fill:url(#linear-gradient-10);}.cls-17{fill:url(#linear-gradient-11);}.cls-18{fill:url(#linear-gradient-12);}.cls-19{fill:url(#linear-gradient-13);}.cls-20{fill:url(#linear-gradient-14);}</style><linearGradient id="linear-gradient" x1="22.79" y1="55.81" x2="75.61" y2="55.81" gradientUnits="userSpaceOnUse"><stop offset="0" stop-color="#65ccf2"/><stop offset="1" stop-color="#4959a7"/></linearGradient><linearGradient id="linear-gradient-2" x1="650.87" y1="270.59" x2="667.42" y2="270.59" xlink:href="#linear-gradient"/><linearGradient id="linear-gradient-3" x1="650.87" y1="250.59" x2="667.41" y2="250.59" gradientTransform="translate(402.46 -406.2) rotate(47.84)" xlink:href="#linear-gradient"/><linearGradient id="linear-gradient-4" x1="549.13" y1="296.44" x2="623.13" y2="296.44" gradientUnits="userSpaceOnUse"><stop offset="0" stop-color="#f8ed49"/><stop offset="0.66" stop-color="#e47a58"/><stop offset="1" stop-color="#d93c66"/></linearGradient><linearGradient id="linear-gradient-5" x1="627.09" y1="82.75" x2="547.29" y2="220.97" gradientUnits="userSpaceOnUse"><stop offset="0" stop-color="#ca246d"/><stop offset="1" stop-color="#4c286e"/></linearGradient><linearGradient id="linear-gradient-6" x1="542.49" y1="26.48" x2="603.98" y2="26.48" gradientUnits="userSpaceOnUse"><stop offset="0" stop-color="#2a3780"/><stop offset="1" stop-color="#171042"/></linearGradient><linearGradient id="linear-gradient-7" x1="584.02" y1="83.47" x2="516.79" y2="199.9" xlink:href="#linear-gradient-5"/><linearGradient id="linear-gradient-8" x1="650.93" y1="100.81" x2="595.02" y2="197.65" xlink:href="#linear-gradient-5"/><linearGradient id="linear-gradient-9" x1="314.5" y1="153.19" x2="344.5" y2="153.19" xlink:href="#linear-gradient"/><linearGradient id="linear-gradient-10" x1="314.5" y1="169.19" x2="344.5" y2="169.19" xlink:href="#linear-gradient"/><linearGradient id="linear-gradient-11" x1="314.5" y1="185.19" x2="344.5" y2="185.19" xlink:href="#linear-gradient"/><linearGradient id="linear-gradient-12" x1="349.5" y1="153.19" x2="379.5" y2="153.19" xlink:href="#linear-gradient"/><linearGradient id="linear-gradient-13" x1="349.5" y1="169.19" x2="379.5" y2="169.19" xlink:href="#linear-gradient"/><linearGradient id="linear-gradient-14" x1="349.5" y1="185.19" x2="379.5" y2="185.19" xlink:href="#linear-gradient"/></defs><title>pembayaran</title><path class="cls-1" d="M420,221.69v.91a31.52,31.52,0,0,1-31.52,31.51H32.71A31.51,31.51,0,0,1,1.2,222.6v-.91Z" transform="translate(0 0)"/><path class="cls-2" d="M75.61,71.69C49.9,78,26.82,58.26,22.79,39.91l1.79-.32C46.25,34.8,70.44,50.29,75.61,71.69Z" transform="translate(0 0)"/><path class="cls-1" d="M697.07,411.52c-7.44-3.21-9.12-14.91-2.9-20.09s17.42-1.41,19.23,6.49l-6.94-49.62c-1.59-11.41-2.87-24.16,4-33.39,6.46-8.64,19.07-11.41,29.19-7.69s17.61,13,20.78,23.31,2.43,21.51-.35,31.93-7.48,20.21-12.24,29.89c-4.88,9.92-10.8,20.66-21.23,24.31C716.67,420.16,697.07,411.52,697.07,411.52Z" transform="translate(0 0)"/><path class="cls-3" d="M729.66,306.29a135.27,135.27,0,0,1,6.42,44,139,139,0,0,1-7.91,43.62,132.6,132.6,0,0,1-10.67,22.9,1.5,1.5,0,0,0,2.59,1.51A137.91,137.91,0,0,0,736.24,376,141.5,141.5,0,0,0,738,330.53a136.69,136.69,0,0,0-5.5-25C732,303.66,729.06,304.44,729.66,306.29Z" transform="translate(0 0)"/><path class="cls-3" d="M692.66,393.26l23.74,25c1.33,1.4,3.45-.72,2.12-2.12l-23.74-25C693.45,389.74,691.33,391.86,692.66,393.26Z" transform="translate(0 0)"/><path class="cls-4" d="M672.49,299a3.51,3.51,0,0,1-2.3-.86,165,165,0,0,1-38.66-35,3.54,3.54,0,0,1-.19-4.94l7.2-7.95,1.48,1.34-7.2,7.95a1.54,1.54,0,0,0,.11,2.17l.11.11a163,163,0,0,0,38.3,34.68l.13.1a1.54,1.54,0,0,0,2.17-.11l14-15.51a1.54,1.54,0,0,0,0-2.1c-3.25-1.77-6.43-3.71-9.44-5.75l1.12-1.66c3,2,6.15,3.95,9.39,5.71l.19.14a3.54,3.54,0,0,1,.25,5h0l-14,15.51a3.51,3.51,0,0,1-2.45,1.16Z" transform="translate(0 0)"/><path class="cls-5" d="M657,272.94c4.41,4,8.94,6.18,10.12,4.88a1.63,1.63,0,0,0,.18-1.53,11.74,11.74,0,0,0-2.25-4q-5.88-4.19-11.43-9c-1.16-.38-2.05-.37-2.48.11a.91.91,0,0,0-.15.23C650.26,265.1,652.83,269.15,657,272.94Z" transform="translate(0 0)"/><path class="cls-4" d="M630.43,240.79a3.46,3.46,0,0,0,1.1,2.39A173.29,173.29,0,0,0,651,263.59a154.86,154.86,0,0,0,16.31,12.7c1,.65,1.91,1.28,2.88,1.9a3.47,3.47,0,0,0,2.3.86h.18a3.51,3.51,0,0,0,2.45-1.16l14-15.5a3.54,3.54,0,0,0-.25-5l-.19-.14a108.16,108.16,0,0,1-38.19-34.57l-.15-.18a3.54,3.54,0,0,0-5,.25l-14,15.5A3.53,3.53,0,0,0,630.43,240.79Zm2-.1a1.52,1.52,0,0,1,.39-1.1l14-15.51a1.52,1.52,0,0,1,1.07-.5,1.5,1.5,0,0,1,1,.32,110.2,110.2,0,0,0,38.69,35,1.53,1.53,0,0,1,0,2.09l-14,15.51a1.48,1.48,0,0,1-1.06.5,1.56,1.56,0,0,1-1.11-.39l-.13-.1q-3.18-2-6.27-4.27-5.88-4.19-11.43-9A171.42,171.42,0,0,1,633,241.87l-.1-.11a1.57,1.57,0,0,1-.5-1.07Z" transform="translate(0 0)"/><ellipse class="cls-6" cx="659.14" cy="250.59" rx="3.17" ry="10.78" transform="translate(30.96 570.98) rotate(-47.84)"/><polygon class="cls-7" points="578.9 406.55 566.64 406.55 560.81 359.26 578.91 359.26 578.9 406.55"/><path class="cls-8" d="M582,418.43H542.5v-.5a15.39,15.39,0,0,1,15.39-15.39H582Z" transform="translate(0 0)"/><polygon class="cls-7" points="614.9 406.55 602.64 406.55 596.81 359.26 614.91 359.26 614.9 406.55"/><path class="cls-8" d="M618,418.43H578.5v-.5a15.39,15.39,0,0,1,15.39-15.39H618Z" transform="translate(0 0)"/><path class="cls-9" d="M623.13,215.44,620.2,389.14a4,4,0,0,1-4.07,3.93l-.29,0-14.35-1.3a4,4,0,0,1-3.63-3.67l-8.4-108.35a1,1,0,0,0-2,0l-4.2,110.83a4,4,0,0,1-4,3.85H563.9a4,4,0,0,1-4-3.76L549.13,214.44l64-16Z" transform="translate(0 0)"/><circle class="cls-7" cx="576.71" cy="27.78" r="24.56"/><path class="cls-10" d="M546.94,220.61a4.47,4.47,0,0,1-1.36-3.17L543.92,99A28.5,28.5,0,0,1,563.2,71.56c2.3-10.44,14.55-11.75,21.69-11.59a11.08,11.08,0,0,1,9,4.92L599,72.57l11.28,6.61A28.53,28.53,0,0,1,623.73,110L622,117.9a181.54,181.54,0,0,0,1.7,84.66l3.49,13.32a4.5,4.5,0,0,1-4.7,5.63l-4.06-.31a4.49,4.49,0,0,1-4.13-4l-.67-6.72a.5.5,0,0,0-1,0l-.65,6.5a4.5,4.5,0,0,1-4.41,4.05l-57.43.88h-.07A4.47,4.47,0,0,1,546.94,220.61Z" transform="translate(0 0)"/><path class="cls-11" d="M578.63,41.94c.1,3.47,2.51,5.48,5.47,7.3s6.42,2.61,9.81,3.37A3,3,0,0,0,598.32,50l3.11-11.82a74.84,74.84,0,0,0,2.39-11.54c.75-7.51-1-15.59-6.27-21s-14.33-7.36-20.61-3.17c-7.45-9.52-41.52,11.51-33.12,18.13,1.5,1.18,3.78-.31,5.68-.46s4,.19,5.23,1.66c1.57,1.92.89,4.79,1.54,7.19a6.71,6.71,0,0,0,8.43,4.36l.05,0a23.09,23.09,0,0,0,4.4-2.83c1.46-1,3.3-1.69,4.93-1.07,2.16.81,2.93,3.45,3.12,5.75A53.24,53.24,0,0,0,578.63,41.94Z" transform="translate(0 0)"/><polygon class="cls-12" points="572.9 107.77 568.9 156.77 547.9 207.77 578.9 157.77 572.9 107.77"/><path class="cls-7" d="M543,226.76a10.06,10.06,0,0,0,.32-15.42l13.38-33.14-18.2,3.68-9.91,30.9a10.11,10.11,0,0,0,14.42,14Z" transform="translate(0 0)"/><path class="cls-13" d="M542,212.15l-10.3-3.71a4.52,4.52,0,0,1-2.82-5.42l17-62.22,2.59-56.23a12.82,12.82,0,1,1,25.61,1.18q0,.19,0,.37l-4.63,61.57L547.78,209.4a4.49,4.49,0,0,1-5.77,2.74Z" transform="translate(0 0)"/><path class="cls-7" d="M648.2,230a10.06,10.06,0,0,0-5.65-14.35l-.42-35.73-15.38,10.4,2.76,32.34A10.11,10.11,0,0,0,648.2,230Z" transform="translate(0 0)"/><path class="cls-14" d="M641.67,216.9l-10.94.54a4.52,4.52,0,0,1-4.69-3.92l-8.29-64L598.48,96.67a12.82,12.82,0,0,1,24.09-8.78l.12.35,19.45,58.6,3.79,65.3a4.49,4.49,0,0,1-4.27,4.75Z" transform="translate(0 0)"/><path class="cls-4" d="M773,418.94H392a1,1,0,0,1,0-2H773a1,1,0,0,1,0,2Z" transform="translate(0 0)"/><path class="cls-4" d="M323.22,203c-5.74,0-10.31-1.71-13.58-5.08-7.38-7.62-6.92-22.29-6.55-34.09.11-3.43.21-6.67.11-9.39v0a20.14,20.14,0,0,1,20-20h47.62c5.74,0,10.3,1.71,13.56,5.07,7.38,7.61,6.92,22.28,6.56,34.08-.11,3.44-.21,6.69-.1,9.41a20.15,20.15,0,0,1-20,20.08Zm-18-48.61c.1,2.78,0,6-.11,9.51-.36,11.42-.81,25.63,6,32.63,2.92,3,6.89,4.47,12.14,4.47h47.6a18.14,18.14,0,0,0,18-18c-.11-2.75,0-6,.1-9.5.36-11.41.8-25.62-6-32.62-2.91-3-6.88-4.46-12.13-4.46H323.23A18.13,18.13,0,0,0,305.2,154.44Z" transform="translate(0 0)"/><path class="cls-4" d="M65.09,73.53a44.62,44.62,0,0,1-23.57-6.9C31.18,60.2,23.37,49.91,21.14,39.78l-.22-1,2.79-.5c22-4.85,46.87,10.79,52.2,32.84l.23,1-1,.24A42,42,0,0,1,65.09,73.53ZM23.34,40.36C25.74,49.66,33,59,42.57,64.93a41.69,41.69,0,0,0,31.15,5.66c-5.58-20.54-28.92-35-49.59-30.37Z" transform="translate(0 0)"/><path class="cls-4" d="M37.35,187.18c-6.54,0-11.86-2.93-15-8.27a20.76,20.76,0,0,1,0-20.36c3.17-5.43,8.61-8.38,15.33-8.28h63.44c6.7-.09,12.14,2.85,15.32,8.29a20.76,20.76,0,0,1,0,20.36c-3.17,5.43-8.62,8.32-15.33,8.26H37.35Zm0-34.9c-5.83,0-10.55,2.58-13.29,7.29a18.7,18.7,0,0,0,0,18.34c2.79,4.78,7.6,7.37,13.57,7.28h63.48c6,.1,10.8-2.49,13.59-7.27a18.7,18.7,0,0,0,0-18.34c-2.79-4.79-7.62-7.37-13.58-7.29H37.38Z" transform="translate(0 0)"/><path class="cls-15" d="M339.5,158.19h-20a5,5,0,0,1,0-10h20a5,5,0,0,1,0,10Z" transform="translate(0 0)"/><path class="cls-16" d="M339.5,174.19h-20a5,5,0,0,1,0-10h20a5,5,0,0,1,0,10Z" transform="translate(0 0)"/><path class="cls-17" d="M339.5,190.19h-20a5,5,0,0,1,0-10h20a5,5,0,0,1,0,10Z" transform="translate(0 0)"/><path class="cls-18" d="M374.5,158.19h-20a5,5,0,0,1,0-10h20a5,5,0,0,1,0,10Z" transform="translate(0 0)"/><path class="cls-19" d="M374.5,174.19h-20a5,5,0,0,1,0-10h20a5,5,0,0,1,0,10Z" transform="translate(0 0)"/><path class="cls-20" d="M374.5,190.19h-20a5,5,0,0,1,0-10h20a5,5,0,0,1,0,10Z" transform="translate(0 0)"/><rect class="cls-4" x="1.2" y="87.13" width="418.8" height="2"/><path class="cls-4" d="M387,254.69H33a33,33,0,0,1-33-33v-172a33,33,0,0,1,33-33H387a33,33,0,0,1,33,33v172A33,33,0,0,1,387,254.69ZM33,18.69a31,31,0,0,0-31,31v172a31,31,0,0,0,31,31H387a31,31,0,0,0,31-31v-172a31,31,0,0,0-31-31Z" transform="translate(0 0)"/></svg>