<svg id="Layer_1" data-name="Layer 1" xmlns="http://www.w3.org/2000/svg" xmlns:xlink="http://www.w3.org/1999/xlink" viewBox="0 0 637.75 542.83"><defs><style>.cls-1{fill:#ffb6b6;}.cls-2{fill:url(#linear-gradient);}.cls-3{fill:url(#linear-gradient-2);}.cls-4{fill:#2f2e41;}.cls-5{fill:url(#linear-gradient-3);}.cls-6{fill:url(#linear-gradient-4);}.cls-7{opacity:0.2;}.cls-12,.cls-7{isolation:isolate;}.cls-8{fill:#f2f2f2;}.cls-9{fill:#ccc;}.cls-10{fill:#fff;}.cls-11{fill:#3f3d56;}.cls-12,.cls-15{fill:#2762aa;}.cls-12{opacity:0.5;}.cls-13{fill:url(#linear-gradient-5);}.cls-14{fill:url(#linear-gradient-6);}.cls-16{fill:#e6e6e6;}.cls-17{fill:url(#linear-gradient-7);}.cls-18{fill:#ffb8b8;}.cls-19{fill:url(#linear-gradient-8);}</style><linearGradient id="linear-gradient" x1="493.75" y1="100.75" x2="386.05" y2="100.75" gradientUnits="userSpaceOnUse"><stop offset="0" stop-color="#f8ed49"/><stop offset="0.66" stop-color="#e47a58"/><stop offset="1" stop-color="#d93c66"/></linearGradient><linearGradient id="linear-gradient-2" x1="505.53" y1="91.35" x2="505.53" y2="355" xlink:href="#linear-gradient"/><linearGradient id="linear-gradient-3" x1="515.73" y1="223.05" x2="515.73" y2="510" gradientUnits="userSpaceOnUse"><stop offset="0" stop-color="#2a3780"/><stop offset="1" stop-color="#171042"/></linearGradient><linearGradient id="linear-gradient-4" x1="532.75" y1="78.99" x2="532.75" y2="248.87" gradientUnits="userSpaceOnUse"><stop offset="0" stop-color="#ca246d"/><stop offset="0.09" stop-color="#b6256d"/><stop offset="0.28" stop-color="#90266d"/><stop offset="0.47" stop-color="#72276e"/><stop offset="0.65" stop-color="#5d276e"/><stop offset="0.83" stop-color="#50286e"/><stop offset="1" stop-color="#4c286e"/></linearGradient><linearGradient id="linear-gradient-5" x1="293.31" y1="306.93" x2="293.31" y2="512.22" gradientUnits="userSpaceOnUse"><stop offset="0" stop-color="#65ccf2"/><stop offset="0.07" stop-color="#62c0ea"/><stop offset="0.37" stop-color="#5794cd"/><stop offset="0.63" stop-color="#4f74b8"/><stop offset="0.85" stop-color="#4b60ac"/><stop offset="1" stop-color="#4959a7"/></linearGradient><linearGradient id="linear-gradient-6" x1="539.53" y1="88.35" x2="539.53" y2="352" xlink:href="#linear-gradient"/><linearGradient id="linear-gradient-7" x1="524.24" y1="126.53" x2="524.24" y2="217.35" xlink:href="#linear-gradient"/><linearGradient id="linear-gradient-8" x1="519.06" x2="519.06" y2="62.7" gradientUnits="userSpaceOnUse"><stop offset="0" stop-color="#2a3780"/><stop offset="0.04" stop-color="#28347b"/><stop offset="0.26" stop-color="#212462"/><stop offset="0.48" stop-color="#1b1950"/><stop offset="0.72" stop-color="#181245"/><stop offset="1" stop-color="#171042"/></linearGradient></defs><title>pengujian</title><path class="cls-1" d="M330.64,80.54a10.13,10.13,0,0,0,14.53,5.51L433,114.24l29.08-22.82L348.78,71.57a10.19,10.19,0,0,0-18.14,9Z" transform="translate(0 0)"/><path class="cls-2" d="M493.41,118.21s-.8-2-11.31,2.3c-13.05,5.27-82.54,1.75-86.39-17.2a8,8,0,0,1-9.66,1.38l10.86-23.84C402.56,79,405.63,77.7,406,80l17-1,68.85,11.59,1.9,23.77Z" transform="translate(0 0)"/><polygon class="cls-3" points="471.75 94.31 505.94 91.35 538 106 556 355 485.36 322.33 455.06 330.72 471.75 94.31"/><polygon class="cls-1" points="555.87 528.87 542.9 528.87 536.74 478.85 555.88 478.85 555.87 528.87"/><path class="cls-4" d="M559.18,541.45H517.36v-.53a16.28,16.28,0,0,1,16.28-16.28h0l7.64-5.8,14.25,5.8h3.65Z" transform="translate(0 0)"/><polygon class="cls-1" points="505.62 520.7 492.96 523.56 475.93 476.12 494.6 471.9 505.62 520.7"/><path class="cls-4" d="M511.61,532.24l-40.79,9.21-.12-.52A16.28,16.28,0,0,1,483,521.47h0l6.17-7.34,15.18,2.51,3.56-.8Z" transform="translate(0 0)"/><path class="cls-5" d="M572.3,223c6.08,18.34,5.44,38.25-1.46,59.61L567.89,403c4.88,5.37,5.62,53.38-1.89,69-10,20.92-.81,23.72-7.9,37.6H537.54L528,446.72l-.68-51c-2.73-6.47-.49-29.23-.49-29.23l-.79-47.19L489,402c16.8,14.38,15.29,60.83,15.56,81.43l5.51,24.31L484.76,510l-11.17-33L461,456.72c-6.4-36-8.3-62.42-2.84-73.22L495.42,245Z" transform="translate(0 0)"/><path class="cls-6" d="M574.94,216.93l-3.39-6.78c-4.15-25.71-8.25-49.69-2.68-71.26.35-18.83-5.47-36.52-21.63-46.18l-7.29-4.36L536.26,79l-34,.83-.1,12.27L490,111.5v.08l.76,105.62,3.36,10.9-5.07,12.68,2.69,8.09,67-10.71,7.79-1.25a13.92,13.92,0,0,0,2.59-1.13,14.23,14.23,0,0,0,6.22-7c.07-.17.13-.33.19-.5a13.93,13.93,0,0,0,.9-4.3A14.3,14.3,0,0,0,574.94,216.93Z" transform="translate(0 0)"/><path class="cls-7" d="M576.43,224a13.93,13.93,0,0,1-.9,4.3l-6.41,7.45a13.92,13.92,0,0,1-2.59,1.13l-7.79,1.25L570,217l-24.77-54.23Z" transform="translate(0 0)"/><path class="cls-8" d="M50.13,443.13a148.84,148.84,0,0,1-23.52-1.63c-7.25-1.23-10.92-3-10.92-5.18v0l13.52-103L22.4,313.81a5.41,5.41,0,0,1,5.16-7.19l44.78.47a5.41,5.41,0,0,1,5.07,7.12L71,333.33l13.52,103C84.57,441.69,62.92,443.13,50.13,443.13Z" transform="translate(0 0)"/><rect class="cls-9" x="24.6" y="428.64" width="21.88" height="1.23"/><rect class="cls-9" x="24.6" y="421.25" width="21.88" height="1.23"/><rect class="cls-9" x="24.6" y="413.87" width="21.88" height="1.23"/><rect class="cls-9" x="24.6" y="406.49" width="21.88" height="1.23"/><rect class="cls-9" x="24.6" y="399.11" width="21.88" height="1.23"/><path class="cls-8" d="M246.95,443.13a148.84,148.84,0,0,1-23.52-1.63c-7.25-1.23-10.92-3-10.92-5.18v0l13.52-103-6.81-19.52a5.41,5.41,0,0,1,5.16-7.19l44.78.47a5.41,5.41,0,0,1,5.07,7.12l-6.37,19.12,13.52,103C281.39,441.69,259.74,443.13,246.95,443.13Z" transform="translate(0 0)"/><rect class="cls-9" x="221.42" y="428.64" width="21.88" height="1.23"/><rect class="cls-9" x="221.42" y="421.25" width="21.88" height="1.23"/><rect class="cls-9" x="221.42" y="413.87" width="21.88" height="1.23"/><rect class="cls-9" x="221.42" y="406.49" width="21.88" height="1.23"/><rect class="cls-9" x="221.42" y="399.11" width="21.88" height="1.23"/><path class="cls-8" d="M154.69,443.13a148.84,148.84,0,0,1-23.52-1.63c-7.25-1.23-10.92-3-10.92-5.18v0l13.52-103L127,313.81a5.41,5.41,0,0,1,5.16-7.19l44.78.47a5.41,5.41,0,0,1,5.07,7.12l-6.37,19.12,13.52,103C189.13,441.69,167.48,443.13,154.69,443.13Z" transform="translate(0 0)"/><rect class="cls-9" x="129.16" y="428.64" width="21.88" height="1.23"/><rect class="cls-9" x="129.16" y="421.25" width="21.88" height="1.23"/><rect class="cls-9" x="129.16" y="413.87" width="21.88" height="1.23"/><rect class="cls-9" x="129.16" y="406.49" width="21.88" height="1.23"/><rect class="cls-9" x="129.16" y="399.11" width="21.88" height="1.23"/><path class="cls-9" d="M300.15,450.78H258.33V380.66h41.82a8.61,8.61,0,0,0,0-17.22H8.61a8.61,8.61,0,0,0,0,17.22H44.28v70.12H8.61a8.61,8.61,0,0,0,0,17.22H300.15a8.61,8.61,0,0,0,0-17.22Zm-238.64,0V380.66H241.1v70.12Z" transform="translate(0 0)"/><path class="cls-10" d="M293.38,541.56c-21.39,0-41.34-1.38-56.18-3.89-18.3-3.1-27.2-7.59-27.2-13.75v-.19l32.12-244.58L226.05,233A14.16,14.16,0,0,1,227.94,220a14,14,0,0,1,11.8-6l106.49,1.11A14.32,14.32,0,0,1,359.67,234l-15.05,45.16,32.13,244.6v.09c0,6.64-10.07,11.35-30.79,14.41C325.6,541.24,302.4,541.56,293.38,541.56Z" transform="translate(0 0)"/><path class="cls-11" d="M293.38,541.56c-21.39,0-41.34-1.38-56.18-3.89-18.3-3.1-27.2-7.59-27.2-13.75v-.19l32.12-244.58L226.05,233A14.16,14.16,0,0,1,227.94,220a14,14,0,0,1,11.8-6l106.49,1.11A14.32,14.32,0,0,1,359.67,234l-15.05,45.16,32.13,244.6v.09c0,6.64-10.07,11.35-30.79,14.41C325.6,541.24,302.4,541.56,293.38,541.56ZM239.45,216.93a11.13,11.13,0,0,0-9.13,4.75,11.26,11.26,0,0,0-1.5,10.4l16.31,46.75,0,.34L212.92,524c0,2.4,3.22,7.13,24.77,10.77,14.68,2.48,34.46,3.85,55.69,3.85,18.66,0,38.16-1.23,52.15-3.3,17.87-2.64,28.17-6.8,28.29-11.43L341.63,278.84,356.9,233a11.4,11.4,0,0,0-10.7-15l-106.5-1.11Z" transform="translate(0 0)"/><path class="cls-12" d="M354.08,494H232.67l19.25-130.14.52-3.59,8-54.18c.49-3.3,4.29-.74,7-2.72,16.7-12.3,33.6-12.66,50.65-.8,2.64,1.83,6.28-.31,6.77,2.86l8.42,54.34.81,5.26Z" transform="translate(0 0)"/><path class="cls-13" d="M339.1,512.22H247.53A16.71,16.71,0,0,1,231,493.06l26.75-180.91a5.31,5.31,0,0,1,8.59-3.35c16.3,13.06,34.08,12.77,52.82-.87a5.21,5.21,0,0,1,5.1-.59,5.3,5.3,0,0,1,3.23,4.11L355.61,493a16.71,16.71,0,0,1-16.51,19.26Z" transform="translate(0 0)"/><rect class="cls-10" x="250.23" y="491.01" width="52.02" height="2.93"/><rect class="cls-10" x="250.23" y="473.45" width="52.02" height="2.93"/><rect class="cls-10" x="250.23" y="455.9" width="52.02" height="2.93"/><rect class="cls-10" x="250.23" y="438.35" width="52.02" height="2.93"/><rect class="cls-10" x="250.23" y="420.8" width="52.02" height="2.93"/><path class="cls-10" d="M336.56,374.75a39.42,39.42,0,0,1-30.94,11.32c-6.47-.59-12.36-3-18-6-5.87-3.14-11.54-6.9-18-8.66-5.69-1.54-12.43-1.74-17.32,2.06a2.37,2.37,0,0,1-2.81.07l.56-3.8c5.44-3.8,12.05-4.39,18.53-3.09,13,2.63,22.95,13.43,36.32,15a35,35,0,0,0,30.85-12.4h0Z" transform="translate(0 0)"/><path class="cls-9" d="M637.75,541.64a1.19,1.19,0,0,1-1.18,1.19H1.27a1.19,1.19,0,0,1,0-2.38H636.56a1.19,1.19,0,0,1,1.19,1.18Z" transform="translate(0 0)"/><polygon class="cls-14" points="505.75 91.31 539.95 88.35 572 103 590 352 519.36 319.33 489.06 327.72 505.75 91.31"/><circle class="cls-15" cx="337" cy="85" r="6"/><circle class="cls-15" cx="327" cy="158" r="6"/><circle class="cls-15" cx="295" cy="201" r="6"/><path class="cls-16" d="M444.79,253.49V189.08a4.92,4.92,0,0,1,4.92-4.92h48.64a4.92,4.92,0,0,1,4.92,4.92v64.41a4.92,4.92,0,0,1-4.92,4.92H449.7A4.92,4.92,0,0,1,444.79,253.49Z" transform="translate(0 0)"/><path class="cls-10" d="M448.52,234V192.62a4.61,4.61,0,0,1,4.6-4.61h41.8a4.61,4.61,0,0,1,4.61,4.61v57.32a4.61,4.61,0,0,1-4.61,4.61H469A20.54,20.54,0,0,1,448.52,234Z" transform="translate(0 0)"/><path class="cls-16" d="M455.29,204.18a4.5,4.5,0,0,1,4.5-4.5h29a4.5,4.5,0,0,1,0,9h-29A4.5,4.5,0,0,1,455.29,204.18Z" transform="translate(0 0)"/><path class="cls-16" d="M455.29,218.18a4.5,4.5,0,0,1,4.5-4.5h29a4.5,4.5,0,0,1,0,9h-29A4.5,4.5,0,0,1,455.29,218.18Z" transform="translate(0 0)"/><path class="cls-16" d="M455.29,232.18a4.5,4.5,0,0,1,4.5-4.5h29a4.5,4.5,0,0,1,0,9h-29A4.5,4.5,0,0,1,455.29,232.18Z" transform="translate(0 0)"/><path class="cls-1" d="M484.41,264.6a10.13,10.13,0,0,0,4.67-14.82l35.27-32,12.37-47.86-22-1.83-6.71,37.56L474.42,247a10.19,10.19,0,0,0,10,17.59Z" transform="translate(0 0)"/><path class="cls-17" d="M540.11,126.65s5.35.08,2.94,11.16c-1.93,8.87-9.25,58.8-15.1,70a8,8,0,0,1,1.93,9.57l-24.43-9.48c-2.13-5.54,1.44-7.26,3.72-7.76l-.45-17.38,3.5-44.3,24-11.9Z" transform="translate(0 0)"/><path class="cls-18" d="M547.3,44.64a31.65,31.65,0,0,1-62.71-8.54l.06-.45a31.65,31.65,0,0,1,62.64,9Z" transform="translate(0 0)"/><path class="cls-19" d="M539.25,60.94c1.63-3.3,3.29-6.85,2.84-10.5s-4-7.14-7.55-6.06c-2.1.65-3.69,2.73-5.89,2.83-3,.15-4.76-3.31-5.7-6.19L519.11,29.3a31.71,31.71,0,0,1-26.34,6c-3.56-.81-7.16-2.4-9.24-5.4s-2.08-7.64.79-9.91c1.4-1.11,3.27-1.53,4.61-2.72a5.17,5.17,0,0,0-4.13-9L494.46,7l-2.88-5.2c2.07,1.63,5,1.85,7.55,1.39s5-1.54,7.58-2.25c12.2-3.42,26.37,2.53,32.47,13.63a12.36,12.36,0,0,1,13.47,3.89c2.58,3.28,3.29,7.66,3.39,11.83a51.32,51.32,0,0,1-5.23,23.77,19.48,19.48,0,0,1-4.4,6.23,8.8,8.8,0,0,1-7.06,2.31" transform="translate(0 0)"/></svg>