<svg id="Layer_1" data-name="Layer 1" xmlns="http://www.w3.org/2000/svg" xmlns:xlink="http://www.w3.org/1999/xlink" viewBox="0 0 618.67 487.32"><defs><style>.cls-1{fill:#f0f0f0;}.cls-2{fill:#fff;}.cls-3{fill:#ffb6b6;}.cls-4{fill:#3f3d56;}.cls-5{fill:url(#linear-gradient);}.cls-6{fill:#ffb7b7;}.cls-7{fill:url(#linear-gradient-2);}.cls-8{fill:url(#linear-gradient-3);}.cls-9{fill:url(#linear-gradient-4);}.cls-10{fill:url(#linear-gradient-5);}.cls-11{fill:url(#linear-gradient-6);}.cls-12{fill:#ccc;}.cls-13{fill:url(#linear-gradient-7);}.cls-14{fill:url(#linear-gradient-8);}.cls-15{fill:url(#linear-gradient-9);}.cls-16{fill:url(#linear-gradient-10);}.cls-17{fill:url(#linear-gradient-11);}.cls-18{fill:#cacaca;}.cls-19{fill:url(#linear-gradient-12);}.cls-20{fill:#e6e6e6;}</style><linearGradient id="linear-gradient" x1="450.1" x2="450.1" y2="88" gradientUnits="userSpaceOnUse"><stop offset="0" stop-color="#2a3780"/><stop offset="0.17" stop-color="#252c6f"/><stop offset="0.48" stop-color="#1d1d56"/><stop offset="0.77" stop-color="#191347"/><stop offset="1" stop-color="#171042"/></linearGradient><linearGradient id="linear-gradient-2" x1="437.66" y1="3.46" x2="437.66" y2="34.46" xlink:href="#linear-gradient"/><linearGradient id="linear-gradient-3" x1="371.07" y1="468.65" x2="419.08" y2="468.65" gradientUnits="userSpaceOnUse"><stop offset="0" stop-color="#2a3780"/><stop offset="1" stop-color="#171042"/></linearGradient><linearGradient id="linear-gradient-4" x1="499.86" y1="464.26" x2="547.98" y2="464.26" xlink:href="#linear-gradient-3"/><linearGradient id="linear-gradient-5" x1="386.59" y1="302.44" x2="535.59" y2="302.44" gradientUnits="userSpaceOnUse"><stop offset="0" stop-color="#ca246d"/><stop offset="1" stop-color="#4c286e"/></linearGradient><linearGradient id="linear-gradient-6" x1="435.09" y1="68.95" x2="435.09" y2="215.66" gradientUnits="userSpaceOnUse"><stop offset="0" stop-color="#f8ed49"/><stop offset="0.66" stop-color="#e47a58"/><stop offset="1" stop-color="#d93c66"/></linearGradient><linearGradient id="linear-gradient-7" x1="280.6" y1="49.01" x2="360.5" y2="187.41" xlink:href="#linear-gradient-3"/><linearGradient id="linear-gradient-8" x1="320.34" y1="51.59" x2="320.34" y2="188.29" gradientUnits="userSpaceOnUse"><stop offset="0" stop-color="#65ccf2"/><stop offset="1" stop-color="#4959a7"/></linearGradient><linearGradient id="linear-gradient-9" x1="320.06" y1="69.63" x2="320.06" y2="91.08" xlink:href="#linear-gradient-8"/><linearGradient id="linear-gradient-10" x1="319.01" y1="58.02" x2="319.01" y2="179.18" xlink:href="#linear-gradient-8"/><linearGradient id="linear-gradient-11" x1="448.27" y1="75.83" x2="448.27" y2="124.01" xlink:href="#linear-gradient-6"/><linearGradient id="linear-gradient-12" x1="120.11" y1="288.9" x2="120.11" y2="360.52" xlink:href="#linear-gradient-8"/></defs><title>penjemputan</title><path class="cls-1" d="M148.53,264.22c-4.94-26.43,2.84-56.49,24.44-72.49a123.86,123.86,0,0,0,25.82,81c6.94,8.89,15.58,18.05,15.31,29.33-.17,7-4,13.55-9,18.47S194,329,187.9,332.52L187,334C169.12,313.88,153.47,290.65,148.53,264.22Z" transform="translate(-0.01 0)"/><path class="cls-2" d="M173.37,192.14a105.87,105.87,0,0,0-7,64.76,45.59,45.59,0,0,0,4.83,13.44,26.15,26.15,0,0,0,9.88,9.58c3.77,2.18,7.88,4,11.06,7a16,16,0,0,1,4.71,12.22c-.15,5.62-2.32,10.86-4.61,15.9-2.55,5.6-5.28,11.38-5.11,17.67,0,.76-1.16.75-1.18,0-.29-11,7.63-19.75,9.4-30.26.82-4.9.17-10.09-3.27-13.89-3-3.32-7.25-5.18-11.09-7.35a27.9,27.9,0,0,1-10-9A42.15,42.15,0,0,1,165.65,259a102.71,102.71,0,0,1-2.33-32,107.75,107.75,0,0,1,9-35.46c.31-.69,1.33-.08,1,.61Z" transform="translate(-0.01 0)"/><path class="cls-2" d="M164.51,250a15.88,15.88,0,0,1-16.57-12.18c-.17-.74,1-1,1.15-.3a14.71,14.71,0,0,0,15.44,11.3c.76-.06.74,1.13,0,1.18Z" transform="translate(-0.01 0)"/><path class="cls-2" d="M179,279.07a30.61,30.61,0,0,0,7.67-21c0-.76,1.17-.75,1.18,0a31.84,31.84,0,0,1-8,21.78c-.51.57-1.33-.28-.83-.85Z" transform="translate(-0.01 0)"/><path class="cls-2" d="M165.67,215.48a9,9,0,0,0,8-3c.5-.58,1.33.27.83.85a10.08,10.08,0,0,1-8.83,3.34.61.61,0,0,1-.59-.6.6.6,0,0,1,.6-.59Z" transform="translate(-0.01 0)"/><path class="cls-1" d="M261.33,213.59l-.9,1.12a118.41,118.41,0,0,0-10.84,15.86c-.25.43-.5.86-.74,1.3a124.83,124.83,0,0,0-14.56,43.59,121.22,121.22,0,0,0-1.11,18.39c.13,8.49,1,17.68-1.65,25.49a20.8,20.8,0,0,1-.94,2.4L188.83,335l-.33,0-1.64.61c0-.32,0-.65-.08-1s0-.37,0-.55,0-.25,0-.36,0-.08,0-.11,0-.22,0-.32c-.12-1.84-.24-3.68-.33-5.53,0,0,0,0,0,0-.72-14.08-.26-28.34,2.34-42.08.08-.41.15-.84.25-1.26a115.68,115.68,0,0,1,5.12-18.17,102.26,102.26,0,0,1,4.12-9.49,85,85,0,0,1,15.44-21.65c12.46-12.68,28.83-21.24,46.38-21.5Z" transform="translate(-0.01 0)"/><path class="cls-2" d="M261.41,214.15a105.87,105.87,0,0,0-44.57,47.5,45.59,45.59,0,0,0-4.24,13.64,26.15,26.15,0,0,0,2.12,13.6c1.7,4,3.9,7.91,4.6,12.27a16,16,0,0,1-3.59,12.59c-3.51,4.4-8.38,7.27-13.25,9.92-5.4,2.94-11.06,5.9-14.72,11-.44.62-1.38-.1-.94-.72,6.37-8.92,18-11.17,25.72-18.5,3.61-3.42,6.21-7.95,5.75-13.06-.41-4.47-2.67-8.5-4.43-12.54a27.9,27.9,0,0,1-2.57-13.22A42.15,42.15,0,0,1,215,262.9a102.71,102.71,0,0,1,17.42-27A107.75,107.75,0,0,1,261,213.05c.67-.37,1.11.73.45,1.1Z" transform="translate(-0.01 0)"/><path class="cls-2" d="M219.51,255a15.88,15.88,0,0,1-5.9-19.7c.31-.7,1.41-.25,1.1.45a14.71,14.71,0,0,0,5.52,18.32c.64.41-.09,1.35-.72.94Z" transform="translate(-0.01 0)"/><path class="cls-2" d="M213.59,287a30.61,30.61,0,0,0,18.74-12.11c.45-.62,1.38.1.94.72a31.84,31.84,0,0,1-19.53,12.56c-.75.15-.9-1-.15-1.17Z" transform="translate(-0.01 0)"/><path class="cls-2" d="M241.21,228.16a9,9,0,0,0,8.18,2.41c.75-.16.89,1,.15,1.17a10.08,10.08,0,0,1-9.06-2.65.61.61,0,0,1-.11-.83.6.6,0,0,1,.83-.11Z" transform="translate(-0.01 0)"/><path class="cls-3" d="M326.93,69.08a12,12,0,0,1,.27,1.87l49,28.25,11.9-6.85L400.76,109l-19.89,14.18a9.12,9.12,0,0,1-10.94-.27L319.44,83a12,12,0,1,1,7.5-14Z" transform="translate(-0.01 0)"/><path class="cls-4" d="M376.85,96.08a5.12,5.12,0,0,1,2.56-3.42L402,80.34A14.24,14.24,0,0,1,419.23,103l-18.12,18.41a5.13,5.13,0,0,1-7.75-.51l-15.6-20.68A5.12,5.12,0,0,1,376.85,96.08Z" transform="translate(-0.01 0)"/><path class="cls-5" d="M417.24,24.48C420.49,14.11,427.88,4.6,438.11,1.1s25.21,1.83,32.9,9.5c14.07,14,17.5,62.18,7.84,77.4-1.92-.1-8.56-.18-10.5-.25l-2.75-9.17v9.08c-15.19-.47-31-.18-46.82.13C417.36,77,414,34.84,417.24,24.48Z" transform="translate(-0.01 0)"/><polygon class="cls-3" points="412.88 459.57 399.03 459.57 392.44 406.15 412.88 406.15 412.88 459.57"/><polygon class="cls-3" points="534.13 450.96 520.73 454.45 500.88 404.42 520.66 399.26 534.13 450.96"/><polygon class="cls-3" points="457.8 131.43 460.94 139.59 460.31 147.75 398.89 169.03 401.93 133.32 408.84 125.16 457.8 131.43"/><circle class="cls-6" cx="438.38" cy="36.06" r="21.94"/><path class="cls-7" d="M423.31,7.49a27.56,27.56,0,0,1,41.89,24c-12,3.06-24.7,4.33-38.21.74l-3.09-7.56-1.82,7.56q-6.2,4.36-12,0A28.14,28.14,0,0,1,423.31,7.49Z" transform="translate(-0.01 0)"/><path class="cls-8" d="M419.08,485.87h-9.83l-1.75-9.28L403,485.87H376.94a5.86,5.86,0,0,1-3.33-10.68l20.82-14.38v-9.38l21.9,1.31Z" transform="translate(-0.01 0)"/><path class="cls-9" d="M548,474.53,538.47,477l-4-8.54-2,10.11-25.23,6.58a5.86,5.86,0,0,1-5.92-9.5L517.8,456.5l-2.37-9.08L537,443.16Z" transform="translate(-0.01 0)"/><path class="cls-10" d="M532.44,417.36l-40.6-83.45L479.09,232.35c8.79-16.32-7.53-49.53-7.53-49.53V168.88L408.34,180.8h0A303.47,303.47,0,0,0,389.85,291l2.55,135h-.8a5,5,0,1,0,0,10h25a5,5,0,0,0,0-10h-.64L433.9,254.24,454.76,339l50.43,78a5,5,0,0,0,.4,10h25a5,5,0,0,0,1.84-9.64Z" transform="translate(-0.01 0)"/><path class="cls-11" d="M477.27,191.37h0a4,4,0,0,0-3.61-3c-.83-9.53-6.34-70.63-6.55-72.42v-.08l-1.59-34.06a5,5,0,0,0-4.7-4.79l-8.42-.55A.45.45,0,0,1,452,76a7.08,7.08,0,0,0-7.08-7.08H420a6.63,6.63,0,0,0-6.58,5.8.44.44,0,0,1-.45.4h0A11.84,11.84,0,0,0,401,85c-3.41,19.83-10.24,64.84-6.86,89.86,1.18,8.71.64,21.81.2,29.1a5.36,5.36,0,0,0,1.34,3.89,4,4,0,0,0-2.77,4.81h0a4,4,0,0,0,4.86,2.9l76.6-19.31A4,4,0,0,0,477.27,191.37Z" transform="translate(-0.01 0)"/><path class="cls-2" d="M350.67,334.55a9.46,9.46,0,0,0-7.95-9.28L206.91,303a9.46,9.46,0,0,0-3.91.17l-31.83,8.23L152.9,316.1l-33.7,8.71a9.49,9.49,0,0,0-7.11,9.19V476.31a9.54,9.54,0,0,0,7.51,9.27L257.94,484a9.22,9.22,0,0,0,2,.21,9.47,9.47,0,0,0,2.85-.43l82.19,2a9.45,9.45,0,0,0,6.63-9.12Z" transform="translate(-0.01 0)"/><path class="cls-12" d="M350.67,334.55a9.46,9.46,0,0,0-7.95-9.28L206.91,303a9.46,9.46,0,0,0-3.91.17l-31.83,8.23L152.9,316.1l-33.7,8.71a9.49,9.49,0,0,0-7.11,9.19V476.31a9.54,9.54,0,0,0,7.51,9.27L257.94,484a9.22,9.22,0,0,0,2,.21,9.47,9.47,0,0,0,2.85-.43l82.19,2a9.45,9.45,0,0,0,6.63-9.12Zm-6.42,149-82.19,2a7.21,7.21,0,0,1-3.62.17l-138.34-2.43a7.15,7.15,0,0,1-5.63-7V334a7.12,7.12,0,0,1,4.66-6.68,5.91,5.91,0,0,1,.66-.21l35.66-9.22,21.08-5.46,27.05-7a6.78,6.78,0,0,1,1.78-.23,7,7,0,0,1,1.15.09l135.81,22.3a7.08,7.08,0,0,1,6,7l.92,142.16A7.09,7.09,0,0,1,344.25,483.57Z" transform="translate(-0.01 0)"/><path class="cls-12" d="M347.51,331.35a1,1,0,0,1-.3.13l-39.95,10.8-12.44,3.36-35.37,9.56a1.37,1.37,0,0,1-.31,0l-.21,0-142.62-26-.47-.09a1.19,1.19,0,0,1,.43-2.34l2.87.52,140,25.52,30.48-8.24L306.63,340,346,329.36l.62-.17a1.19,1.19,0,0,1,1.38.65.93.93,0,0,1,.07.19A1.19,1.19,0,0,1,347.51,331.35Z" transform="translate(-0.01 0)"/><path class="cls-12" d="M260.33,484.5c-.65,0-1.18-.52-1.19,2.82L258,358.06c0-4.65.52-5.19,1.18-5.2h0c.65,0,1.18.52,1.19,5.18l1.19,129.26c0-3.35-.52-2.81-1.18-2.8Z" transform="translate(-0.01 0)"/><path class="cls-12" d="M307.59,486l-12.77.14L289.58,344.6,155.84,318l-.39-.09a4.71,4.71,0,0,1-2.55-1.79l18.26-4.73,5.37,1.07,126.9,25.24a4.72,4.72,0,0,1,3.19,2.31C307,340.68,307.59,485.18,307.59,486Z" transform="translate(-0.01 0)"/><path class="cls-2" d="M409.9,75.49a7.13,7.13,0,0,0-6-7L301.55,51.69a7.13,7.13,0,0,0-2.95.13l-24,6.2-13.76,3.56-25.4,6.57a7.16,7.16,0,0,0-5.36,6.92V159a7.19,7.19,0,0,0,5.66,7L340,188.14a7,7,0,0,0,1.49.15,7.14,7.14,0,0,0,2.15-.33l61.94-19.56a7.12,7.12,0,0,0,5-6.88Z" transform="translate(-0.01 0)"/><path class="cls-13" d="M300.39,57.85l-.22,0L237,74.21a.89.89,0,0,0-.67.86V159a.9.9,0,0,0,.71.87L341.31,182a.9.9,0,0,0,.46,0l61.94-19.56a.89.89,0,0,0,.62-.86l-.69-86a.89.89,0,0,0-.75-.87L300.54,57.86Z" transform="translate(-0.01 0)"/><path class="cls-14" d="M409.9,75.49a7.13,7.13,0,0,0-6-7L301.55,51.69a7.13,7.13,0,0,0-2.95.13l-24,6.2-13.76,3.56-25.4,6.57a7.16,7.16,0,0,0-5.36,6.92V159a7.19,7.19,0,0,0,5.66,7L340,188.14a7,7,0,0,0,1.49.15,7.14,7.14,0,0,0,2.15-.33l61.94-19.56a7.12,7.12,0,0,0,5-6.88Zm-4.84,91.21-61.94,19.56a5.44,5.44,0,0,1-2.73.13L236.12,164.21a5.39,5.39,0,0,1-4.24-5.24V75.07a5.37,5.37,0,0,1,3.52-5,4.46,4.46,0,0,1,.5-.15l26.87-6.95,15.89-4.11L299,53.55a5.11,5.11,0,0,1,1.34-.17,5.3,5.3,0,0,1,.87.07L403.62,70.26a5.34,5.34,0,0,1,4.49,5.24l.7,86a5.34,5.34,0,0,1-3.75,5.16Z" transform="translate(-0.01 0)"/><path class="cls-15" d="M407.51,73.08a.78.78,0,0,1-.23.1l-30.11,8.14-9.37,2.53-26.66,7.2-.23,0h-.16L233.27,71.47l-.36-.07a.9.9,0,0,1,.32-1.76l2.16.39L340.88,89.27l23-6.21,12.85-3.47,29.64-8,.47-.13a.9.9,0,0,1,1,.49.7.7,0,0,1,.05.14A.9.9,0,0,1,407.51,73.08Z" transform="translate(-0.01 0)"/><path class="cls-4" d="M341.81,188.5a.89.89,0,0,1-.89-.89L340,90.2a.89.89,0,0,1,.89-.9h0a.89.89,0,0,1,.89.89l.89,97.42a.89.89,0,0,1-.89.9Z" transform="translate(-0.01 0)"/><path class="cls-16" d="M377.18,176.65l-9.37,2.53-4-96.12L263.06,63l-.29-.07a3.55,3.55,0,0,1-1.92-1.35L274.61,58l4,.8,95.64,19a3.56,3.56,0,0,1,2.41,1.74C377,80.11,377.17,176,377.18,176.65Z" transform="translate(-0.01 0)"/><path class="cls-3" d="M373,121.85a12,12,0,0,1,1.33,1.34l56.15-6.56,5.46-12.6L456,109.78,448.52,133a9.12,9.12,0,0,1-8.94,6.32l-64.29-1.83A12,12,0,1,1,373,121.85Z" transform="translate(-0.01 0)"/><path class="cls-17" d="M429.15,113.72a5.12,5.12,0,0,1,0-4.27l10.79-23.37A14.24,14.24,0,0,1,467.31,94l-3.55,25.58a5.13,5.13,0,0,1-6.52,4.22l-24.86-7.29A5.12,5.12,0,0,1,429.15,113.72Z" transform="translate(-0.01 0)"/><path class="cls-18" d="M617.48,487H1.19a1.19,1.19,0,0,1,0-2.38H617.48a1.19,1.19,0,0,1,0,2.38Z" transform="translate(-0.01 0)"/><circle class="cls-19" cx="120.11" cy="324.71" r="35.81"/><path class="cls-2" d="M115.23,343.35a4,4,0,0,1-3.19-1.59l-9.77-13a4,4,0,1,1,6.36-4.79h0l6.39,8.52,16.42-24.62a4,4,0,0,1,6.64,4.4v0l-19.54,29.31a4,4,0,0,1-3.2,1.77Z" transform="translate(-0.01 0)"/><path class="cls-2" d="M272.59,134.5a1.51,1.51,0,0,1-.33,0l-31-7a1.5,1.5,0,1,1,.66-2.93l31,7a1.5,1.5,0,0,1-.33,3Z" transform="translate(-0.01 0)"/><path class="cls-20" d="M153.29,416.24a1.51,1.51,0,0,1-.33,0l-31.78-.54a1.5,1.5,0,0,1,0-3l31.78.54a1.5,1.5,0,0,1,.28,3Z" transform="translate(-0.01 0)"/><path class="cls-20" d="M164.29,433.24a1.51,1.51,0,0,1-.33,0l-31.78-.54a1.5,1.5,0,0,1,0-3l31.78.54a1.5,1.5,0,0,1,.28,3Z" transform="translate(-0.01 0)"/></svg>