<svg id="Layer_1" data-name="Layer 1" xmlns="http://www.w3.org/2000/svg" xmlns:xlink="http://www.w3.org/1999/xlink" viewBox="0 0 833 599.76"><defs><style>.cls-1{fill:#e5e5e5;}.cls-2{fill:url(#linear-gradient);}.cls-3{fill:url(#linear-gradient-2);}.cls-4{fill:#cbcbcb;}.cls-5{fill:#ffb7b7;}.cls-6{fill:url(#linear-gradient-3);}.cls-7{fill:url(#linear-gradient-4);}.cls-8{fill:url(#linear-gradient-5);}.cls-9{fill:url(#linear-gradient-6);}.cls-10{fill:url(#linear-gradient-7);}.cls-11{opacity:0.1;}.cls-11,.cls-19{isolation:isolate;}.cls-12{fill:url(#linear-gradient-8);}.cls-13{fill:url(#linear-gradient-9);}.cls-14{fill:url(#linear-gradient-10);}.cls-15{fill:url(#linear-gradient-11);}.cls-16{fill:url(#linear-gradient-12);}.cls-17{fill:url(#linear-gradient-13);}.cls-18{fill:#f1f1f1;}.cls-19{fill:#2f2e41;opacity:0.17;}.cls-20{fill:url(#linear-gradient-14);}.cls-21{fill:url(#linear-gradient-15);}.cls-22{fill:url(#linear-gradient-16);}.cls-23{fill:url(#linear-gradient-17);}.cls-24{fill:url(#linear-gradient-18);}.cls-25{fill:url(#linear-gradient-19);}</style><linearGradient id="linear-gradient" x1="279.54" y1="315" x2="299.54" y2="315" gradientUnits="userSpaceOnUse"><stop offset="0" stop-color="#2a3780"/><stop offset="1" stop-color="#171042"/></linearGradient><linearGradient id="linear-gradient-2" x1="274.58" y1="401" x2="294.58" y2="401" xlink:href="#linear-gradient"/><linearGradient id="linear-gradient-3" x1="409.71" y1="520.5" x2="409.71" y2="599.76" xlink:href="#linear-gradient"/><linearGradient id="linear-gradient-4" x1="262.79" y1="261.99" x2="262.79" y2="396.14" gradientUnits="userSpaceOnUse"><stop offset="0" stop-color="#ca246d"/><stop offset="1" stop-color="#4c286e"/></linearGradient><linearGradient id="linear-gradient-5" x1="405.4" y1="256.17" x2="405.4" y2="388.73" xlink:href="#linear-gradient-4"/><linearGradient id="linear-gradient-6" x1="329.13" y1="417.43" x2="329.13" y2="510.52" gradientUnits="userSpaceOnUse"><stop offset="0" stop-color="#f8ed49"/><stop offset="0.66" stop-color="#e47a58"/><stop offset="1" stop-color="#d93c66"/></linearGradient><linearGradient id="linear-gradient-7" x1="252.45" y1="426.98" x2="252.45" y2="536.74" xlink:href="#linear-gradient-6"/><linearGradient id="linear-gradient-8" x1="328.07" y1="223" x2="328.07" y2="451.45" xlink:href="#linear-gradient-4"/><linearGradient id="linear-gradient-9" x1="334.94" y1="98.77" x2="334.94" y2="212.38" gradientUnits="userSpaceOnUse"><stop offset="0" stop-color="#2a3780"/><stop offset="0.01" stop-color="#2a367f"/><stop offset="0.25" stop-color="#212564"/><stop offset="0.49" stop-color="#1c1951"/><stop offset="0.74" stop-color="#181246"/><stop offset="1" stop-color="#171042"/></linearGradient><linearGradient id="linear-gradient-10" x1="334.94" y1="118.25" x2="334.94" y2="164.3" xlink:href="#linear-gradient-9"/><linearGradient id="linear-gradient-11" x1="519.09" y1="229.5" x2="519.09" y2="334.5" gradientUnits="userSpaceOnUse"><stop offset="0" stop-color="#65ccf2"/><stop offset="1" stop-color="#4959a7"/></linearGradient><linearGradient id="linear-gradient-12" x1="296.46" y1="519.5" x2="296.46" y2="598.76" xlink:href="#linear-gradient"/><linearGradient id="linear-gradient-13" x1="418.03" y1="418.43" x2="418.03" y2="544.33" xlink:href="#linear-gradient-6"/><linearGradient id="linear-gradient-14" x1="270.59" y1="288.02" x2="270.59" y2="386.1" xlink:href="#linear-gradient-4"/><linearGradient id="linear-gradient-15" x1="392.1" y1="276.7" x2="392.1" y2="372.73" xlink:href="#linear-gradient-4"/><linearGradient id="linear-gradient-16" x1="0" y1="95.25" x2="75.33" y2="95.25" xlink:href="#linear-gradient-4"/><linearGradient id="linear-gradient-17" x1="0" y1="216.76" x2="75.33" y2="216.76" xlink:href="#linear-gradient-6"/><linearGradient id="linear-gradient-18" x1="0" y1="318.75" x2="75.33" y2="318.75" xlink:href="#linear-gradient"/><linearGradient id="linear-gradient-19" x1="0" y1="416.92" x2="75.33" y2="416.92" xlink:href="#linear-gradient-11"/></defs><title>permohonan</title><path class="cls-1" d="M591.27,480.5l-52.68-78.25s79.78,27.85,70.73,78.25Z" transform="translate(184 0)"/><path class="cls-1" d="M45.16,481l-2,0a463.83,463.83,0,0,1,7.1-66.29c8.65-46.88,23-77.67,42.74-91.51l1.15,1.64C48.1,357.15,45.19,479.79,45.16,481Z" transform="translate(184 0)"/><path class="cls-1" d="M70.16,480.54l-2,0c0-2.21,1.29-54.41,21.84-68.84l1.15,1.64C71.43,427.14,70.17,480,70.16,480.54Z" transform="translate(184 0)"/><circle class="cls-2" cx="289.54" cy="315" r="10"/><circle class="cls-3" cx="284.58" cy="401" r="10"/><path class="cls-1" d="M65.5,331c1.88,12-3,22.74-3,22.74S54.54,345,52.66,333s3-22.74,3-22.74S63.62,319,65.5,331Z" transform="translate(184 0)"/><path class="cls-1" d="M98.19,360.15c-11.49,3.94-22.92,1-22.92,1s7.21-9.34,18.7-13.29,22.92-1,22.92-1S109.68,356.21,98.19,360.15Z" transform="translate(184 0)"/><path class="cls-1" d="M98.56,436.31a31.13,31.13,0,0,1-16.06.69,28.37,28.37,0,0,1,29.17-10A31.13,31.13,0,0,1,98.56,436.31Z" transform="translate(184 0)"/><path class="cls-4" d="M648,482.5H1a1,1,0,0,1,0-2H648a1,1,0,0,1,0,2Z" transform="translate(184 0)"/><polygon class="cls-5" points="593.8 528.6 585.62 549.89 499.59 528.47 511.67 497.05 593.8 528.6"/><path class="cls-6" d="M432.52,531.1l-26.38,68.66-.87-.33a28.63,28.63,0,0,1-16.46-37h0l16.11-41.93Z" transform="translate(184 0)"/><path class="cls-7" d="M279.07,262l-37.49,3.51L239.73,377a21,21,0,0,0,22.35,19l23.77-1.64Z" transform="translate(184 0)"/><path class="cls-8" d="M411.24,256.5l-25.65-.33-1.52,132.54h0a41.28,41.28,0,0,0,42.63-39.88q0-1.49,0-3Z" transform="translate(184 0)"/><path class="cls-9" d="M262.4,435.79a81.59,81.59,0,0,1-2.64,11.36c-1.29,3.64-3.29,7-4.48,10.68-3.77,11.72,1.46,24.79,9.81,33.84a55.22,55.22,0,0,0,26.92,16c7.54,1.9,15.37,2.17,23.14,2.43,21.5.73,43.56,1.38,63.93-5.53a111.09,111.09,0,0,0,18.57-8.44,13.91,13.91,0,0,0,4.82-3.79c1.55-2.21,1.75-5.08,1.74-7.79,0-9.12-1.89-18.18-1.46-27.29.24-5,1.19-10.08.72-15.11a27.88,27.88,0,0,0-21.3-24c-5.78-1.24-11.78-.56-17.66,0a450.26,450.26,0,0,1-46,2.05c-15.68-.1-31.26-2.49-46.86-2.74-4.61-.07-4.52,1.35-6,5.81A108.77,108.77,0,0,0,262.4,435.79Z" transform="translate(184 0)"/><path class="cls-10" d="M201.09,428.38a46.39,46.39,0,0,0-12.9-1.37,32.21,32.21,0,0,0-29.9,38,54.1,54.1,0,0,0,5.11,14c3.42,6.95,7.53,13.87,13.86,18.33,3.71,2.6,8,4.23,12.23,5.82l33.37,12.57c4.91,1.85,9.82,3.7,14.78,5.41a289,289,0,0,0,77.18,15.34c8,.48,16.15.61,24-1.21,1.85-.43,3.83-1.08,4.91-2.65a8.4,8.4,0,0,0,1.1-3.62l2.05-14.37c.29-2,.57-4.15-.17-6.06-.94-2.42-3.3-3.94-5.55-5.23-21.94-12.6-47.55-19.55-66-36.84-4.35-4.07-8-10.52-13.27-13.29-6-3.14-13-4.93-19.23-7.82C229.07,439,215.76,431.75,201.09,428.38Z" transform="translate(184 0)"/><path class="cls-11" d="M234.41,447.76c11.79,3.7,61.59,29.3,70.13,38.24-1.14.41-40-21.34-41.13-21.69-10.59-3.18-21.23-6.38-31.29-11-2-.94-13.14-5.33-12.64-7.88C220,442.52,232.31,447.11,234.41,447.76Z" transform="translate(184 0)"/><path class="cls-12" d="M305.59,224.5l-31.76,24.11s-33.51,1-32.38,22.47S256,393.92,256,393.92l2.91,34.9,55.19,15.73a180.59,180.59,0,0,0,91.49,2h0l-6.56-35s26.56-159,10.56-166-26-5-26-5L363.53,223Z" transform="translate(184 0)"/><path class="cls-13" d="M399.59,185.56c0,31.3-28.94,26.57-64.65,26.57s-64.65,4.73-64.65-26.57,14.14-86.78,64.65-86.78C387.19,98.77,399.59,154.25,399.59,185.56Z" transform="translate(184 0)"/><circle class="cls-5" cx="337.79" cy="165.4" r="43.5" transform="translate(165.98 287.3) rotate(-45)"/><path class="cls-14" d="M284.46,164.3h17.21L309.26,143l1.52,21.25H319l4.43-12.4.89,12.4h61.1a46,46,0,0,0-46-46h-8.86a46,46,0,0,0-46,46Z" transform="translate(184 0)"/><rect class="cls-15" x="475.59" y="229.5" width="87" height="105"/><polygon class="cls-5" points="480.38 527.6 488.57 548.89 574.59 527.47 562.52 496.05 480.38 527.6"/><path class="cls-16" d="M301.25,519.5l16.11,41.93h0a28.63,28.63,0,0,1-16.46,37l-.87.33L273.65,530.1Z" transform="translate(184 0)"/><path class="cls-17" d="M468.33,420.23a60.06,60.06,0,0,1,21.16-1.45c5.66.62,11.48,2.2,15.61,6.11,5,4.76,6.64,12.13,6.78,19.06a59.54,59.54,0,0,1-12.94,38,34.5,34.5,0,0,1-7.4,7.12,48.7,48.7,0,0,1-9.63,4.64l-74.73,29.47c-19.66,7.75-39.39,15.53-59.89,20.64a4.67,4.67,0,0,1-6.23-2.17l0-.1a154.82,154.82,0,0,1-16.38-30,2,2,0,0,1,.89-3.18l52.86-30.37c3.79-2.18,7.61-4.38,10.76-7.41a26.71,26.71,0,0,0,5.52-7.69c1.1-2.29,1.2-7.69,2.6-9.38s6.06-1.79,8.22-2.44a74.6,74.6,0,0,0,9-3.38c11.82-5.29,22.35-13,33.69-19.17A86.43,86.43,0,0,1,468.33,420.23Z" transform="translate(184 0)"/><path class="cls-11" d="M438.37,442.91c-9.08,6.82-20.84,13.09-29.84,20.09-3.07,2.39-54.28,31.18-55,35,8.4,1.41,61.88-36,69.54-39.74s14.44-9,21.16-14.23c1.71-1.33,9-5.34,4.06-6.82C445.51,436.38,440.42,441.55,438.37,442.91Z" transform="translate(184 0)"/><circle class="cls-18" cx="785.59" cy="148.47" r="31.25"/><circle class="cls-18" cx="727.76" cy="163.39" r="21.92"/><circle class="cls-18" cx="326.22" cy="153.44" r="17.58"/><circle class="cls-18" cx="355.15" cy="170.5" r="12.33"/><circle class="cls-18" cx="525.66" cy="13.44" r="13.44"/><path class="cls-19" d="M261.59,296.5l1.2-9.27s44.8,3.27,37.8,14.27-24,12-24,12Z" transform="translate(184 0)"/><path class="cls-5" d="M295.4,256.19A17.49,17.49,0,0,1,308.13,264h0A17.47,17.47,0,0,1,303,288.19l-.61.38a16.85,16.85,0,0,1-2.32,1.14l-27.54,84.23a14,14,0,1,1-25.22-12.11l.07-.13,29.28-83.29a17.45,17.45,0,0,1,18.68-22.2Z" transform="translate(184 0)"/><path class="cls-20" d="M262,288s15.78,27,38.59,13.48l-22.11,84.6H259.85l-19.27-3.6,5.39-35Z" transform="translate(184 0)"/><path class="cls-1" d="M374.66,306.45,361.59,288.5s6.28-18.61,30.64-11.81C392.23,276.7,407.73,311.39,374.66,306.45Z" transform="translate(184 0)"/><path class="cls-19" d="M374.66,306.45,361.59,288.5s6.28-18.61,30.64-11.81C392.23,276.7,407.73,311.39,374.66,306.45Z" transform="translate(184 0)"/><path class="cls-5" d="M378.12,243.75a17.36,17.36,0,0,1,9.33,20.65l29.28,83.29a14,14,0,1,1-25.09,12.38l-.07-.14L364,275.71a16.85,16.85,0,0,1-2.32-1.14,17.47,17.47,0,0,1-6.06-24L356,250h0a17.49,17.49,0,0,1,12.72-7.81A17.28,17.28,0,0,1,378.12,243.75Z" transform="translate(184 0)"/><path class="cls-21" d="M361.59,288.5s21.57,13.09,30.64-11.81l30.39,80-9,15.79-1.31.11a33.4,33.4,0,0,1-28.58-12.09h0A66.34,66.34,0,0,1,369.84,331Z" transform="translate(184 0)"/><rect class="cls-22" y="57.59" width="75.33" height="75.33"/><rect class="cls-23" y="179.09" width="75.33" height="75.33"/><rect class="cls-24" y="281.09" width="75.33" height="75.33"/><rect class="cls-25" y="379.26" width="75.33" height="75.33"/></svg>