<svg id="Layer_1" data-name="Layer 1" xmlns="http://www.w3.org/2000/svg" xmlns:xlink="http://www.w3.org/1999/xlink" viewBox="0 0 571.94 689.04"><defs><style>.cls-1{fill:#ffb8b8;}.cls-2{fill:url(#linear-gradient);}.cls-3{fill:url(#linear-gradient-2);}.cls-4{fill:url(#linear-gradient-3);}.cls-5{fill:#3f3d56;}.cls-6{fill:url(#linear-gradient-4);}.cls-7{fill:#e6e6e6;}.cls-8{fill:#fff;}.cls-9{fill:url(#linear-gradient-5);}.cls-10{fill:url(#linear-gradient-6);}.cls-11{fill:url(#linear-gradient-7);}.cls-12{fill:url(#linear-gradient-8);}.cls-13{fill:url(#linear-gradient-9);}.cls-14{fill:#f2f2f2;}</style><linearGradient id="linear-gradient" x1="357.71" y1="516.15" x2="357.71" y2="689.04" gradientUnits="userSpaceOnUse"><stop offset="0" stop-color="#ca246d"/><stop offset="1" stop-color="#4c286e"/></linearGradient><linearGradient id="linear-gradient-2" x1="345.94" y1="169.5" x2="345.94" y2="543.66" gradientUnits="userSpaceOnUse"><stop offset="0" stop-color="#f8ed49"/><stop offset="0.66" stop-color="#e47a58"/><stop offset="1" stop-color="#d93c66"/></linearGradient><linearGradient id="linear-gradient-3" x1="366.2" x2="366.2" y2="135.51" gradientUnits="userSpaceOnUse"><stop offset="0" stop-color="#2a3780"/><stop offset="0.07" stop-color="#273075"/><stop offset="0.26" stop-color="#20225e"/><stop offset="0.46" stop-color="#1b184e"/><stop offset="0.69" stop-color="#181245"/><stop offset="1" stop-color="#171042"/></linearGradient><linearGradient id="linear-gradient-4" x1="515.82" y1="224.18" x2="515.82" y2="599.75" xlink:href="#linear-gradient-2"/><linearGradient id="linear-gradient-5" x1="174.1" y1="262" x2="174.1" y2="280" gradientUnits="userSpaceOnUse"><stop offset="0" stop-color="#65ccf2"/><stop offset="0.13" stop-color="#60b6e3"/><stop offset="0.4" stop-color="#568ec9"/><stop offset="0.64" stop-color="#4f71b7"/><stop offset="0.85" stop-color="#4b5fab"/><stop offset="1" stop-color="#4959a7"/></linearGradient><linearGradient id="linear-gradient-6" x1="115.6" y1="220.5" x2="115.6" y2="238.5" xlink:href="#linear-gradient-5"/><linearGradient id="linear-gradient-7" x1="174.1" y1="303.5" x2="174.1" y2="321.5" xlink:href="#linear-gradient-5"/><linearGradient id="linear-gradient-8" x1="174.1" y1="345" x2="174.1" y2="363" xlink:href="#linear-gradient-5"/><linearGradient id="linear-gradient-9" x1="236.97" y1="400.73" x2="236.97" y2="472.35" xlink:href="#linear-gradient-5"/></defs><title>sertifikat</title><path class="cls-1" d="M4.09,329.56a28,28,0,0,0,42.37,6.73l86.26,49.47-3.21-51.57L48.09,295.12a28.13,28.13,0,0,0-44,34.44Z" transform="translate(0 0)"/><path class="cls-2" d="M253.81,527.74c-25.59,35.81-24.67,95.73-17.53,161.3h121l5.26-12.27,7,12.27h114s-8.77-166.56-24.55-171.82S253.81,527.74,253.81,527.74Z" transform="translate(0 0)"/><circle class="cls-1" cx="357.25" cy="92.22" r="61.36"/><path class="cls-3" d="M401.6,169.5l12,23,83,37L474.79,440.64,465.6,462.5l5,19-12,14c12,10.86,13.53,22.24,7,34l-38.22,8.76s-212.52,18.9-194.61-14c19.57-36,24.55-142.22-18.65-199C177.44,277,205.6,214.5,205.6,214.5l87-26,32-19Z" transform="translate(0 0)"/><path class="cls-4" d="M384.5,2.33A3.38,3.38,0,0,1,387.75.4C359.66-1.28,330.07,2,306.56,17.47c-5.69,3.75-11.06,8.22-17.26,10.95a1.86,1.86,0,0,0-.38,3.16l.68.53a1.87,1.87,0,0,1-.61,3.25h0a1.87,1.87,0,0,0-.47,3.35l5.22,3.37a1.86,1.86,0,0,1,0,3.13,9.27,9.27,0,0,1-1.39.7,1.86,1.86,0,0,0-.59,3.13,18.54,18.54,0,0,1,5,7.38c1.74,4.52,2.05,9.44,2.34,14.28,1.8-7,9.41-11.08,16.6-11.5s14.2,2,21.2,3.66a117.27,117.27,0,0,0,46.55,1.79c-5.26,10.55-.82,23.13,3.64,34L401.6,92.5c19.84-11.2,6,36.17-1.4,42.67,15.14,5.25,54.77-53,42-75.11-6.63-11.5-1.92-26.32-15-37.23-6.39-6.73-19.15-3.74-25.66-9.33-2.56-2.2,1.34-8.09-2.18-9.37C398.25,3.71,384.69,1.9,384.5,2.33Z" transform="translate(0 0)"/><path class="cls-5" d="M280.55,194.44c-11.26,50-40.14,166.71-69.44,191.12a17.09,17.09,0,0,1-6.52,3.85c-103,25.09-136-38.91-136-38.91s27.6-13.45,28.3-39.74L152.56,328l48.52-109.19,7.14-6.66,0,0Z" transform="translate(0 0)"/><path class="cls-1" d="M500.15,656.08a28,28,0,0,0-2.94-42.81l28.87-95.15-49.54,14.7-19.82,88.11a28.13,28.13,0,0,0,43.43,35.16Z" transform="translate(0 0)"/><path class="cls-6" d="M473.72,224.18l22.88,5.32s94.58,184,71.79,219.09-50.71,151.16-50.71,151.16-41.3-8.21-57.08-29.25l28.9-137.69L459.69,317.1Z" transform="translate(0 0)"/><path class="cls-7" d="M39.58,497.46l.82-296.39A22.65,22.65,0,0,1,63.09,178.5l223.84.62a22.65,22.65,0,0,1,22.56,22.69l-.82,296.39A22.65,22.65,0,0,1,286,520.77l-223.84-.62A22.65,22.65,0,0,1,39.58,497.46Z" transform="translate(0 0)"/><path class="cls-8" d="M57,408l.53-190.55A21.21,21.21,0,0,1,78.78,196.3l192.37.53a21.22,21.22,0,0,1,21.13,21.25l-.73,263.75A21.22,21.22,0,0,1,270.3,503l-119.17-.33A94.5,94.5,0,0,1,57,408Z" transform="translate(0 0)"/><path class="cls-9" d="M249.1,280H99.1a9,9,0,1,1,0-18h150a9,9,0,0,1,0,18Z" transform="translate(0 0)"/><path class="cls-10" d="M132.1,238.5h-33a9,9,0,0,1,0-18h33a9,9,0,0,1,0,18Z" transform="translate(0 0)"/><path class="cls-11" d="M249.1,321.5H99.1a9,9,0,1,1,0-18h150a9,9,0,0,1,0,18Z" transform="translate(0 0)"/><path class="cls-12" d="M249.1,363H99.1a9,9,0,1,1,0-18h150a9,9,0,0,1,0,18Z" transform="translate(0 0)"/><circle class="cls-13" cx="236.97" cy="436.54" r="35.81"/><path class="cls-8" d="M232.08,455.18a4,4,0,0,1-3.19-1.59l-9.77-13a4,4,0,0,1,6.37-4.78l6.39,8.52,16.42-24.62a4,4,0,0,1,6.64,4.41h0L235.4,453.41a4,4,0,0,1-3.2,1.77Z" transform="translate(0 0)"/><circle class="cls-14" cx="160.61" cy="92.5" r="17"/><circle class="cls-14" cx="98.61" cy="581.5" r="17"/><circle class="cls-14" cx="489.61" cy="158.5" r="17"/></svg>