<svg id="Layer_1" data-name="Layer 1" xmlns="http://www.w3.org/2000/svg" xmlns:xlink="http://www.w3.org/1999/xlink" viewBox="0 0 543.22 633.6"><defs><style>.cls-1{fill:#f2f2f2;}.cls-2{fill:#fff;}.cls-3{fill:#e6e6e6;}.cls-4{fill:#ffb6b6;}.cls-5{fill:url(#linear-gradient);}.cls-6{fill:url(#linear-gradient-2);}.cls-7{fill:url(#linear-gradient-3);}.cls-8{fill:url(#linear-gradient-4);}.cls-9{fill:url(#linear-gradient-5);}.cls-10{fill:url(#linear-gradient-6);}.cls-11{fill:#2f2e41;}.cls-12{fill:url(#linear-gradient-7);}.cls-13{fill:#f0f0f0;}.cls-14{fill:#cacaca;}.cls-15{fill:#3f3d56;}.cls-16{fill:#2762aa;}.cls-17{fill:url(#linear-gradient-8);}</style><linearGradient id="linear-gradient" x1="376.67" y1="215.43" x2="376.67" y2="131.89" gradientUnits="userSpaceOnUse"><stop offset="0" stop-color="#f8ed49"/><stop offset="0.66" stop-color="#e47a58"/><stop offset="1" stop-color="#d93c66"/></linearGradient><linearGradient id="linear-gradient-2" x1="260.85" y1="169.83" x2="260.85" y2="56.66" gradientUnits="userSpaceOnUse"><stop offset="0" stop-color="#65ccf2"/><stop offset="1" stop-color="#4959a7"/></linearGradient><linearGradient id="linear-gradient-3" x1="397.04" y1="617.2" x2="438.25" y2="617.2" gradientUnits="userSpaceOnUse"><stop offset="0" stop-color="#ca246d"/><stop offset="1" stop-color="#4c286e"/></linearGradient><linearGradient id="linear-gradient-4" x1="302.94" y1="617.2" x2="344.15" y2="617.2" xlink:href="#linear-gradient-3"/><linearGradient id="linear-gradient-5" x1="364.97" y1="301.73" x2="364.97" y2="590.43" gradientUnits="userSpaceOnUse"><stop offset="0" stop-color="#2a3780"/><stop offset="1" stop-color="#171042"/></linearGradient><linearGradient id="linear-gradient-6" x1="389.8" y1="299.99" x2="389.8" y2="165.14" xlink:href="#linear-gradient"/><linearGradient id="linear-gradient-7" x1="401.19" y1="99.07" x2="401.19" y2="184.41" gradientUnits="userSpaceOnUse"><stop offset="0" stop-color="#2a3780"/><stop offset="0.24" stop-color="#222666"/><stop offset="0.49" stop-color="#1c1a52"/><stop offset="0.74" stop-color="#181246"/><stop offset="1" stop-color="#171042"/></linearGradient><linearGradient id="linear-gradient-8" x1="319.86" y1="249.68" x2="319.86" y2="175.93" xlink:href="#linear-gradient"/></defs><title>verifikasi</title><path class="cls-1" d="M525.66,233.53H17.09A17.11,17.11,0,0,1,0,216.44V17.09A17.11,17.11,0,0,1,17.09,0H525.66a17.11,17.11,0,0,1,17.09,17.09V216.44A17.11,17.11,0,0,1,525.66,233.53Z" transform="translate(0 0)"/><path class="cls-2" d="M407.05,222.63H97.82A87,87,0,0,1,10.9,135.71V97.83A87,87,0,0,1,97.82,10.91H444.94a87,87,0,0,1,86.92,86.92A124.94,124.94,0,0,1,407.05,222.63Z" transform="translate(0 0)"/><path class="cls-3" d="M327.28,68H122.88a4.41,4.41,0,0,1,0-8.82H327.28a4.41,4.41,0,0,1,0,8.82Z" transform="translate(0 0)"/><path class="cls-3" d="M430.76,115H122.88a4.41,4.41,0,0,1,0-8.82H430.76a4.41,4.41,0,0,1,0,8.82Z" transform="translate(0 0)"/><path class="cls-3" d="M430.76,162H122.88a4.41,4.41,0,0,1,0-8.82H430.76a4.41,4.41,0,0,1,0,8.82Z" transform="translate(0 0)"/><path class="cls-3" d="M430.76,162H122.88a4.41,4.41,0,0,1,0-8.82H430.76a4.41,4.41,0,0,1,0,8.82Z" transform="translate(0 0)"/><path class="cls-4" d="M305.71,120.4a9.09,9.09,0,0,0,11,8.55l16.81,27.58,7.15-15.18-17.06-23.86a9.14,9.14,0,0,0-17.91,2.92Z" transform="translate(0 0)"/><path class="cls-5" d="M431.86,199.44,373.93,168l-18.27-17.14s-7.94-2.13-5-4.71-5.41-5.07-5.41-5.07l-9.81-9.2-13.94,9.86,4,6.25s-.28,10.35,5.39,8.36,4.25,6.59,4.25,6.59L369,215.43Z" transform="translate(0 0)"/><circle class="cls-6" cx="260.85" cy="113.25" r="56.59"/><polygon class="cls-4" points="432.04 611.6 420.28 611.6 414.68 566.22 432.04 566.22 432.04 611.6"/><path class="cls-7" d="M438.25,632h-8.44l-1.51-8-3.86,8H402.07a5,5,0,0,1-2.86-9.17l17.87-12.34v-8.05l18.8,1.12Z" transform="translate(0 0)"/><polygon class="cls-4" points="337.94 611.6 326.18 611.6 320.58 566.22 337.94 566.22 337.94 611.6"/><path class="cls-8" d="M344.15,632h-8.44l-1.51-8-3.86,8H308a5,5,0,0,1-2.86-9.17L323,610.47v-8.05l18.8,1.12Z" transform="translate(0 0)"/><rect class="cls-4" x="360.17" y="268.38" width="59.38" height="67.61"/><path class="cls-9" d="M361.55,301.73l-10,11.88-17.36,36.54L290.4,454.22l-9.25,22,7.47,38.91s1.21,27.41,1.21,31.9c0,9.14,7.64,14.2,7.64,14.2l5.61,29.2,54.36-2.28s-1.9-32.18-13.28-40.3-16.62-50.43-16.62-50.43l-6.19-18.77,60.3-71.48.39,25,.19,12.09s-8.83,78.66,1.46,93.92.21,13.47.21,13.47l.49,31.49,64.41.46-14.21-90.66s-7.22-5.7-3.35-11.42-3.74-12.74-3.74-12.74L430.9,398s-3.78-12.22.67-13.81.58-12.1.58-12.1l.66-13.7-13.25-42.48Z" transform="translate(0 0)"/><path class="cls-10" d="M420.47,268.38l6.4-19.19,4.57-6.4,1.83-18.27c0-49.34-11-41.12-11-41.12l-6.35-17.35-29.24-.91L367.94,183l-15.53,5.48L346.33,220l11.11,33.72L360.17,272c-5.23,9.65-4.79,5.09-.46,12.33l51.62,14.16c18.27,6.4,18.27-10,14.61-14.16S420.47,268.38,420.47,268.38Z" transform="translate(0 0)"/><circle class="cls-4" cx="397.51" cy="131.91" r="27.1"/><path class="cls-11" d="M371.12,174.63" transform="translate(0 0)"/><path class="cls-12" d="M433.69,168.08a3.33,3.33,0,0,1-1.85,4.87c-3.64,1.21-5.87,4.72-8.49,7.54s-6.8,5.13-10.12,3.23-3.54-6.75-6.32-9.38-7.2-2.25-10.38-.3l-.1.06a3.35,3.35,0,0,1-5.13-3.41l3.34-17.77a59.76,59.76,0,0,1-12.51,18.91,13.76,13.76,0,0,1-5.43,3.82c-1.9.6-3.75-1.36-5.59-1,4.59-4,20-29.72,17.25-46.9l-9.73,1.1a8.94,8.94,0,0,0-2.17-4.1,10.51,10.51,0,0,1-.56,4.41l-4.07.46c-1.88.21-3.93.39-5.55-.59-2.7-1.64-2.78-5.54-2-8.61,2.25-8.93,9.06-16.39,17.4-20.3s10.81,4.79,19.6,2c17.36-5.48,30.66,3.89,35.35,21.29C440.57,138,437.71,153.47,433.69,168.08Z" transform="translate(0 0)"/><path class="cls-13" d="M508.73,632.58H475.54l-.14-.26c-.42-.77-.83-1.59-1.22-2.42-3.42-7.32-4.86-15.69-6.14-23.07l-1-5.57a3.44,3.44,0,0,1,5.41-3.36l15.14,11c1.91,1.39,4.09,3,6.18,4.74.2-1,.41-2,.62-2.93a3.44,3.44,0,0,1,6.28-1.09l3.88,6.24c2.83,4.56,5.33,9,4.82,13.89a.75.75,0,0,1,0,.18,10.94,10.94,0,0,1-.56,2.33Z" transform="translate(0 0)"/><path class="cls-14" d="M542,633.29l-315.36.31a1.19,1.19,0,0,1,0-2.38L542,630.91a1.19,1.19,0,0,1,0,2.38Z" transform="translate(0 0)"/><path class="cls-15" d="M255.71,189.41,221,160.12a5.87,5.87,0,0,1-.7-8.26l6.38-7.56a5.87,5.87,0,0,1,8.26-.7l34.69,29.29a5.87,5.87,0,0,1,.7,8.26L264,188.71A5.87,5.87,0,0,1,255.71,189.41Z" transform="translate(0 0)"/><path class="cls-2" d="M222.84,152.47a3.16,3.16,0,0,0,.38,4.45l34.69,29.29a3.16,3.16,0,0,0,4.45-.38l6.38-7.56a3.16,3.16,0,0,0-.38-4.45l-34.69-29.29a3.16,3.16,0,0,0-4.45.38Z" transform="translate(0 0)"/><path class="cls-16" d="M243.21,163.86a1.33,1.33,0,0,1-1.05.56l-5.45.13a1.33,1.33,0,0,1-.06-2.67l3.57-.08-3.51-9.27a1.33,1.33,0,0,1,2.49-.95l4.18,11a1.33,1.33,0,0,1-.14,1.22Z" transform="translate(0 0)"/><path class="cls-4" d="M243.91,166.18a9.09,9.09,0,0,1,7.3,11.87l25.59,19.71-15.87,5.46-21.86-19.55a9.14,9.14,0,0,1,4.85-17.49Z" transform="translate(0 0)"/><path class="cls-17" d="M377.11,175.93l-65.51,40.28s-26.41-9.77-21.25-14.3-11.27-7.58-11.27-7.58l-18.15-12.21L250.4,194.36s1.92,19.89,5.19,16.44,8.15,6,8.15,6,1.44,10.5,10.74,7.86,34.24,25.06,34.24,25.06l80.62-30.07Z" transform="translate(0 0)"/><path class="cls-2" d="M258.87,135.95a4.89,4.89,0,0,1-3.91-2l-12-16a4.89,4.89,0,1,1,7.83-5.87h0l7.85,10.47,20.16-30.24a4.89,4.89,0,0,1,8.14,5.43l-24,36a4.89,4.89,0,0,1-3.93,2.18Z" transform="translate(0 0)"/></svg>